<svg xmlns="http://www.w3.org/2000/svg" width="422" height="123" viewBox="0 0 422 123">
    <defs>
        <linearGradient id="cqsjqzjw2a" x1="110.89%" x2="-21.419%" y1="52.388%" y2="46.703%">
            <stop offset="0%" stop-color="#ED1D32"/>
            <stop offset="100%" stop-color="#7F132A"/>
        </linearGradient>
    </defs>
    <path fill="url(#cqsjqzjw2a)" d="M952.403 671c1.777 1.79 3.928 3.39 5.238 5.463 15.713 26.183 40.593 36.92 69.027 41.724 11.972 2.072 24.037 2.354 36.103.753.748.094 1.497.283 2.245.188 19.548-1.883 38.442-6.875 57.055-12.809 2.993-1.036 5.892-2.354 8.792-3.579 8.043-2.637 16.18-5.086 24.131-7.911 23.477-8.194 47.047-16.671 71.833-19.873 12.066-1.601 47.104-9.08 100.173 8.665l-1.333-.442.232-.529c13.958 5.975 26.495 14.187 38.389 23.592l.963.765c22.955 18.409 40.288 41.35 52.937 67.972 2.249 4.814 3.842 9.818 5.903 14.821l-1.405.85c-2.062-2.549-4.04-5.147-6.372-7.458-55.233-54.765-97.932-59.796-106.645-60.47-.226.51-.347.778-.347.778s-56.62-5.313-173.409 43.757c-21.231 6.593-42.93 9.89-65.098 8.382-31.146-2.166-59.206-12.244-79.877-36.826-9.54-11.396-17.303-24.394-25.347-37.015-4.677-7.44-8.418-15.446-12.44-23.263-1.029-2.072-1.403-4.427-2.151-6.687l1.403-.848z" opacity=".146" transform="rotate(161 769.513 329.34)"/>
</svg>
