<svg xmlns="http://www.w3.org/2000/svg" width="40" height="45" viewBox="0 0 40 45">
    <g fill="#AC0619">
        <path d="M32.429 9.89c0-1.406-1.19-2.578-2.62-2.578H19.382c.048.422.095.844.095 1.266 0 2.25-.714 4.36-1.952 6.094h8.619c.286 0 .476.234.476.469v1.406c0 .281-.238.469-.476.469H15.19c-1.809 1.359-4.047 2.156-6.476 2.156-.857 0-1.714-.094-2.524-.281v16.078c0 1.406 1.191 2.578 2.62 2.578H21.57L32.43 22.359V9.891zM22 30.657c0 .282-.238.469-.476.469h-9.476c-.286 0-.477-.234-.477-.469V29.25c0-.281.239-.469.477-.469h9.428c.286 0 .476.235.476.469v1.406H22zm4.619-7.078c0 .281-.238.469-.476.469H12.048c-.286 0-.477-.235-.477-.469v-1.406c0-.281.239-.469.477-.469h14.095c.286 0 .476.235.476.469v1.406zM24.286 37.172L29 40.453 36.952 29.344 32.238 26.063zM39.429 24.656l-3.572-2.484c-.333-.235-.762-.14-1 .187l-1.524 2.11 4.762 3.281 1.524-2.11c.238-.328.143-.796-.19-.984zM22.143 40.172c-.095.14-.19.375-.143.562l.143 3.235c.047.562.571.937 1.143.797l3.143-.938c.19-.047.333-.187.476-.328l1-1.406-4.762-3.282-1 1.36z"/>
        <path d="M17.143 8.531c0-4.594-3.762-8.297-8.429-8.297C4.048.234.286 3.938.286 8.531c0 4.594 3.762 8.344 8.428 8.344 4.667 0 8.429-3.75 8.429-8.344zm-9.381 3.563c-.333 0-.62-.14-.857-.375L4.476 9.188c-.428-.47-.428-1.172.048-1.594.476-.422 1.19-.422 1.619.047l1.571 1.64 3.429-3.61c.428-.468 1.19-.468 1.619-.046.476.422.476 1.172.048 1.594l-4.191 4.5c-.238.234-.524.375-.857.375z"/>
    </g>
</svg>
