<svg xmlns="http://www.w3.org/2000/svg" width="81" height="79" viewBox="0 0 81 79">
    <g fill="none" fill-rule="evenodd">
        <g stroke="#ffffff" stroke-linecap="round" stroke-linejoin="round" stroke-width=".9">
            <path d="M.549 1.872L77.733 2.059M20.993 8.059L62.02 8.246M10.118 8.059L14.993 8.246" transform="translate(1.47 .107) translate(0 68)"/>
        </g>
        <g fill="#ffffff" fill-rule="nonzero">
            <path d="M0 36.547c.181-.285.323-.595.53-.854.712-.88 1.825-1.126 2.912-.492 1.604.932 3.312 1.087 4.968.932-.065-.802-.272-1.605-.155-2.38.194-1.308 1.306-2.24 2.548-2.369 1.372-.142 2.575.53 3.144 1.773.272.582.492 1.19.738 1.786.233.569.466 1.151.699 1.734.88-.647.866-1.502.724-2.433-.336-2.187-.362-4.374.181-6.535.259-1.061.608-2.11 1.01-3.118.88-2.265 1.254-4.581 1.112-7.014-.142-2.33-.35-4.671.194-7C20.106 4.236 25.902-.163 32.565.005c6.34.168 11.93 5.02 13.055 11.283.388 2.148.143 4.296.039 6.431-.103 2.11.039 4.219.893 6.147 1.604 3.649 1.953 7.402 1.345 11.297-.026.194-.026.44.052.608.543 1.138 1.113 2.264 1.67 3.39.025.052.064.103.103.155 2.329-.906 4.826-.996 7.232-1.475 1.177-.233 2.368-.401 3.558-.595.983-.168 1.475.233 1.475 1.242 0 5.68 0 11.361.013 17.042 0 .608-.181 1.035-.776 1.268-.143.052-.272.246-.31.401-.273.919-.88 1.45-1.825 1.592-.272.039-.544.116-.828.142-1.048.09-1.928.337-2.458 1.437-.453.944-1.514 1.255-2.459 1.617h-1.552c-1.475-.466-2.614-1.32-3.209-2.808-.065-.155-.401-.259-.621-.285-.996-.116-2.005-.168-3.002-.297-.84-.117-1.682-.324-2.587-.518v3.908h-2.07c0-1.268-.013-2.536.013-3.804.012-.401-.117-.544-.518-.621-1.139-.195-2.277-.44-3.416-.686-1.048-.22-1.242-.453-1.242-1.527V42.823v-.634c-.776 1.165-1.384 2.355-2.083 3.494-.207.336-.62.66-1.009.763-.518.13-.841-.31-1.06-.763-.053-.117-.13-.22-.195-.337-1.734-3.183-3.493-6.366-5.201-9.575-.272-.518-.582-.7-1.139-.66-.854.052-1.72 0-2.574.013-2.342.064-3.998 1.151-4.93 3.312-.427 1.01-.828 2.032-1.216 3.054-.13.337-.207.699-.207 1.061-.013 3.727-.013 7.44-.013 11.167v.609c.479-.66.854-1.333 1.203-2.019l4.115-7.88c.569-1.087 1.28-2.058 2.29-2.834.452.543.88 1.048 1.293 1.552-3.234 2.912-3.092 7.299-.931 9.887.207.245.272.672.285 1.022.025 2.653.012 5.292.012 7.945h-2.07v-7.35c0-.207.026-.453-.064-.634-.557-1.1-1.139-2.174-1.708-3.248-.052.078-.155.22-.233.388-1.397 2.588-2.86 5.137-4.153 7.777-.75 1.527-1.747 2.614-3.39 3.067h-1.94c-.078-.039-.143-.09-.22-.116-2.446-.7-3.701-2.614-3.468-5.15.272-3.016.491-6.044.698-9.071.065-1.062.013-2.136.013-3.119-.905-.13-1.76-.116-2.497-.388C2.885 43.444.776 42.978.026 40.7 0 39.303 0 37.919 0 36.547zm45.879-2.523c.517-3.196.207-5.577-1.126-8.955-.944-2.394-1.306-4.878-1.177-7.453.09-1.76.233-3.546.052-5.28-.867-7.996-9.691-12.68-16.885-9.019-4.373 2.226-6.78 6.638-6.43 11.711.168 2.407.427 4.827-.194 7.195-.427 1.643-1.048 3.222-1.553 4.84-.711 2.25-.789 4.541-.414 6.935 1.281-.66 2.575-.984 3.96-.958 1.332.026 2.665-.013 3.997.013.57.013.764-.207.75-.763-.025-1.048-.025-2.11 0-3.157.014-.415-.116-.647-.465-.88-2.64-1.76-4.283-4.193-4.58-7.35-.207-2.161-.117-4.335-.09-6.51 0-.297.297-.672.569-.866 1.992-1.41 3.48-3.235 4.54-5.435.493-1.022 1.114-1.139 1.98-.401 3.61 3.067 7.75 4.969 12.434 5.72.828.129 1.1.452 1.1 1.293 0 1.553.013 3.093 0 4.646-.013 3.843-1.617 6.832-4.787 8.993-.181.13-.35.427-.35.647-.038.984-.013 1.98-.013 2.963 0 1.074 0 1.049 1.061 1.087 2.536.13 5.163-.453 7.621.984zM28.219 9.89c-1.1 1.98-2.498 3.61-4.244 4.956-.143.116-.22.4-.22.608-.013 1.423-.026 2.847-.013 4.257.038 4.219 3.247 7.687 7.504 8.14 3.998.426 7.944-2.304 8.733-6.341.388-1.993.272-4.09.388-6.16-4.58-.84-8.565-2.64-12.149-5.46zm8.965 32.686c0 4.063 0 8.01.013 11.97 0 .155.26.4.44.452 1.23.285 2.484.518 3.727.777 1.345.272 2.678.53 4.036.802V44.233c-2.756-.556-5.447-1.1-8.216-1.656zm15.488 13.794c0-.543.025-1.074 0-1.604-.143-2.627.62-3.455 3.13-3.714 1.346-.143 2.666-.828 4.063-.065v-8.385c-2.756.543-5.46 1.087-8.177 1.63v12.358l.984-.22zM2.083 36.82c0 1.268-.026 2.355.013 3.442.013.22.22.505.414.608 1.397.764 2.769 1.54 4.45 1.488 1.929-.052 3.87-.013 5.81-.013.207 0 .414-.013.647-.026v-4.762c0-.129-.039-.258-.078-.375-.414-1.035-.802-2.083-1.242-3.105-.246-.583-.802-.803-1.32-.57-.517.233-.711.79-.44 1.359.234.505.492.996.751 1.5.57 1.166.168 1.838-1.113 1.838-1.048 0-2.109-.013-3.157 0-1.255.013-2.432-.271-3.545-.828-.349-.155-.698-.31-1.19-.556zm25.372-1.89c.375.7.699 1.32 1.06 1.929.104.155.35.323.531.323 1.98.026 3.946.013 5.926 0 .168 0 .401-.09.479-.207.388-.66.737-1.346 1.1-2.006-1.256-.97-1.437-1.358-1.437-2.924v-2.562c-2.096.647-4.127.608-6.197.026 0 .906-.039 1.72.013 2.536.052 1.23-.285 2.239-1.475 2.886zM9.238 48.582c-.026.194-.052.363-.065.518-.207 2.627-.4 5.266-.62 7.893-.13 1.592.853 2.847 2.315 2.912 1.475.064 2.549-1.074 2.562-2.679v-6.832-1.812H9.238zm40.29 8.204V44.466h-1.993v12.32h1.993zm-11.93-19.423c3.3.764 6.625.88 9.795 1.915-.634-2.109-1.89-3.649-4.115-4.011-1.384-.22-2.82-.116-4.23-.13-.117 0-.272.13-.337.234-.375.647-.724 1.307-1.113 1.992zm21.27 19.371v-3.545c0-.401-.18-.544-.568-.479-1.035.181-2.083.337-3.118.544-.169.038-.427.271-.44.427-.04 1.216-.026 2.445-.026 3.726 1.41-.22 2.743-.44 4.153-.673zM47.174 42.461c-.324-1.023-.984-1.501-1.89-1.657-1.565-.271-3.13-.53-4.696-.789-1.112-.181-2.225-.375-3.377-.57-.013.234-.026.376-.026.518 0 .168.026.324.052.518 3.325.673 6.625 1.32 9.937 1.98zm2.743 0c3.312-.66 6.624-1.307 9.95-1.967v-1.048c-2.834.478-5.629.931-8.41 1.449-.751.13-1.282.647-1.54 1.566zm-20.08-3.17c.737 1.345 1.436 2.613 2.186 3.998.763-1.398 1.45-2.666 2.174-3.999h-4.36zm-16.458 7.168v-1.993h-4.05v1.993h4.05zm37.43 12.448c.738 1.165 2.11 1.346 3.028.492-.815-1.359-1.928-.763-3.028-.492z" transform="translate(1.47 .107) translate(3.53 .893)"/>
            <path d="M30.972 21.013c.14.53.42.959 1.043.959.624 0 .916-.417 1.056-.972h1.909c.203 1.426-1.145 2.89-2.736 2.992-1.743.126-3.206-1.212-3.244-2.98h1.972zM27.481 18c-.828-.013-1.493-.703-1.48-1.531.012-.804.69-1.456 1.48-1.469.829 0 1.506.678 1.519 1.506 0 .829-.703 1.506-1.519 1.494zM38 16.518c0 .816-.703 1.506-1.531 1.481-.804-.012-1.456-.677-1.469-1.48-.012-.829.678-1.519 1.494-1.519.828.013 1.506.69 1.506 1.518z" transform="translate(1.47 .107) translate(3.53 .893)"/>
        </g>
    </g>
</svg>
