<svg xmlns="http://www.w3.org/2000/svg" xmlns:xlink="http://www.w3.org/1999/xlink" width="188" height="52" viewBox="0 0 188 52">
    <defs>
        <circle id="uqontiteka" cx="16" cy="16" r="16"/>
        <circle id="357djg55yb" cx="16" cy="16" r="16"/>
    </defs>
    <g fill="none" fill-rule="evenodd">
        <text fill="#1B2437" font-family="Montserrat-Regular, Montserrat" font-size="14">
            <tspan x="83" y="14">Mahesh Reddy</tspan>
        </text>
        <g transform="translate(36 11)">
            <use fill="#D4D5D9" xlink:href="#uqontiteka"/>
            <mask id="q6h34urr9c" fill="#fff">
                <use xlink:href="#357djg55yb"/>
            </mask>
            <use fill="#F0F0F0" stroke="#979797" xlink:href="#357djg55yb"/>
            <path fill="#585858" fill-rule="nonzero" d="M16 8c2.245 0 4.184 1.53 4.646 3.667.462 2.137-.679 4.297-2.734 5.177 2.931.844 5.088 3.585 5.088 6.825V24H9v-.331c0-3.24 2.155-5.98 5.088-6.825-2.055-.88-3.196-3.04-2.734-5.177C11.816 9.53 13.754 8 16 8zm0 9.236c-3.381 0-6.141 2.708-6.31 6.102l12.622.001c-.169-3.395-2.93-6.103-6.311-6.103zm0-8.574c-2.246 0-4.067 1.771-4.067 3.956.003 2.184 1.822 3.954 4.068 3.957 2.246 0 4.068-1.772 4.068-3.957 0-2.185-1.822-3.956-4.068-3.956z" mask="url(#q6h34urr9c)"/>
        </g>
        <g fill="#A0A5BA" fill-rule="nonzero">
            <path d="M10 14H6c0 1.1.9 2 2 2s2-.9 2-2zM15 11h-.5c-.7-.7-1.5-1.7-1.5-3V5c0-2.8-2.2-5-5-5S3 2.2 3 5v3c0 1.3-.8 2.3-1.5 3H1c-.6 0-1 .4-1 1s.4 1 1 1h14c.6 0 1-.4 1-1s-.4-1-1-1z" transform="translate(0 20)"/>
        </g>
    </g>
</svg>
