<svg xmlns="http://www.w3.org/2000/svg" width="277" height="47" viewBox="0 0 277 47">
    <defs>
        <linearGradient id="4gu4xw2l6a" x1="110.89%" x2="-21.419%" y1="83.058%" y2="4.361%">
            <stop offset="0%" stop-color="#ED1D32"/>
            <stop offset="100%" stop-color="#7F132A"/>
        </linearGradient>
        <linearGradient id="evo72oa17b" x1="65.855%" x2="34.175%" y1="57.866%" y2="30.878%">
            <stop offset="0%" stop-color="#3C66B0"/>
            <stop offset="100%" stop-color="#1A2557"/>
        </linearGradient>
        <linearGradient id="0ga4hnhpmc" x1="94.542%" x2="-9.841%" y1="86.887%" y2="19.633%">
            <stop offset="0%" stop-color="#3C66B0"/>
            <stop offset="100%" stop-color="#1A2557"/>
        </linearGradient>
        <linearGradient id="n5w9ovphqd" x1="-.007%" x2="99.994%" y1="49.919%" y2="49.919%">
            <stop offset="0%" stop-color="#ED1D32"/>
            <stop offset="100%" stop-color="#7F132A"/>
        </linearGradient>
        <linearGradient id="2ub4adhmge" x1=".014%" x2="100.108%" y1="50.836%" y2="50.836%">
            <stop offset="0%" stop-color="#ED1D32"/>
            <stop offset="100%" stop-color="#7F132A"/>
        </linearGradient>
    </defs>
    <g fill="none" fill-rule="evenodd">
        <g fill-rule="nonzero">
            <path fill="#002B61" d="M16.618 18.248l-1.927.084c-1.21-3.002-3.02-7.534-4.231-10.535-.564-1.4-1.129-2.787-1.693-4.186-.047-.12-.094-.25-.152-.43l2.526 1.435.153.43c.564 1.4 1.128 2.787 1.692 4.186 1.223 3.013 2.433 6.015 3.632 9.016"/>
            <path fill="url(#4gu4xw2l6a)" d="M13.833 11.779c-1.587-3.372-3.761-6.278-6.64-8.61C5.665 1.937 4.055.86 2.256.084L.036 5.25c.223.036.446.071.67.12 5.123 1.004 9.448 3.431 12.892 7.45.27.31.54.621.799.944l.176-.108c-.258-.634-.458-1.267-.74-1.877z" transform="translate(45.012 13.752)"/>
            <g>
                <path fill="#002B61" d="M22.659 32.144l-2.527-1.435c.141-.335.247-.586.353-.85l5.041-12.269c.024-.06.047-.12.06-.179l2.526 1.435c-.024.06-.035.12-.059.18l-5.042 12.268c-.094.264-.211.515-.352.85M28.124 18.846l-2.527-1.435c1.116-2.702 2.233-5.417 3.35-8.12l2.526 1.435c-1.116 2.715-2.233 5.418-3.35 8.12" transform="translate(8.58)"/>
                <g>
                    <path fill="#002B61" d="M2.562 10.726L.035 9.291c.188-.406.376-.813.588-1.195L3.15 9.53c-.212.394-.412.789-.588 1.195" transform="translate(8.58) translate(28.911)"/>
                    <path fill="#002D64" d="M3.138 9.543L.61 8.108c.435-.802.905-1.567 1.446-2.26l2.526 1.435c-.528.693-1.01 1.446-1.445 2.26" transform="translate(8.58) translate(28.911)"/>
                    <path fill="#002F66" d="M4.583 7.27L2.057 5.837c.435-.574.893-1.1 1.398-1.603l2.527 1.435c-.494.502-.964 1.04-1.399 1.603" transform="translate(8.58) translate(28.911)"/>
                    <path fill="#003169" d="M5.982 5.68L3.455 4.245c.482-.478 1-.933 1.54-1.34l2.527 1.436c-.541.406-1.058.86-1.54 1.34" transform="translate(8.58) translate(28.911)"/>
                    <path fill="#00336B" d="M7.533 4.34L5.007 2.907c.61-.455 1.245-.873 1.939-1.244l2.526 1.435c-.693.37-1.34.777-1.939 1.244" transform="translate(8.58) translate(28.911)"/>
                    <path fill="#00346E" d="M9.46 3.085L6.935 1.65l.012-.012c.717-.394 1.457-.705 2.197-.956l2.527 1.435c-.752.25-1.48.562-2.198.956 0 .012 0 .012-.011.012" transform="translate(8.58) translate(28.911)"/>
                    <path fill="#003671" d="M11.682 2.129L9.155.694c1-.323 2.033-.527 3.103-.622l2.527 1.435c-1.07.083-2.104.299-3.103.622" transform="translate(8.58) translate(28.911)"/>
                </g>
                <path fill="#002B61" d="M18.98 45.106l-2.527-1.435c-.07-.036-.129-.107-.176-.227-2.48-6.158-4.96-12.305-7.45-18.451-.024-.06-.036-.12-.036-.132l2.527 1.435c.011.024.011.084.035.132 2.48 6.146 4.971 12.292 7.451 18.45.059.12.117.192.176.228" transform="translate(8.58)"/>
                <g>
                    <path fill="#003671" d="M2.62 3.922L.095 2.487c1.34-.358 2.668-.657 3.984-1.076.13-.036.259-.084.376-.12l2.527 1.435c-.13.036-.259.084-.376.12-1.305.419-2.644.73-3.984 1.076" transform="translate(8.58) translate(8.697 22.362)"/>
                    <path fill="#00346E" d="M6.993 2.738L4.466 1.303C5.653.921 6.828.454 8.062 0l2.527 1.435c-1.234.442-2.41.909-3.596 1.303" transform="translate(8.58) translate(8.697 22.362)"/>
                </g>
                <g>
                    <path fill="url(#evo72oa17b)" d="M35.81 1.65c-3.126 1.698-5.418 4.27-6.922 7.653-1.117 2.703-2.233 5.417-3.35 8.12-.023.06-.035.12-.059.18L20.438 29.87c-.106.264-.212.515-.353.85-1.152-2.859-2.268-5.62-3.373-8.347-1.375.49-2.668 1.004-3.984 1.423-1.316.406-2.644.717-3.984 1.076.012.024.012.084.035.131 2.48 6.147 4.971 12.293 7.451 18.452.106.275.27.287.506.275l3.173-.251c1.022-.084 2.056-.156 3.09-.215.341-.024.482-.168.612-.49 2.867-6.996 5.735-13.992 8.614-20.987.8-1.937 1.61-3.863 2.41-5.8.716-1.734 1.422-3.456 2.139-5.19.035-.107.058-.227.094-.323.963-2.355 1.939-4.723 2.902-7.079.447-1.088.882-2.164 1.352-3.3-1.88.131-3.643.633-5.312 1.554z" transform="translate(8.58) translate(2.586 1.435)"/>
                    <path fill="url(#0ga4hnhpmc)" d="M13.41 14.218c-.365-.909-.753-1.817-1.093-2.738C10.87 7.63 8.356 4.999 4.63 3.743c-1.469-.49-3.008-.658-4.63-.55l.153.43C.717 5.023 1.28 6.41 1.845 7.81c1.21 3.001 2.421 6.015 3.632 9.016.07 0 .14.012.223 0h.047c2.28-.406 4.478-1.184 6.664-2.08.317-.156.658-.36.999-.527z" transform="translate(8.58) translate(2.586 1.435)"/>
                </g>
                <g>
                    <path fill="#003671" d="M2.574 1.519L.047.084c1.634-.108 3.161.048 4.63.55.6.203 1.176.442 1.716.717L8.92 2.786c-.54-.275-1.116-.514-1.716-.717-1.457-.502-2.997-.67-4.63-.55" transform="translate(8.58) translate(0 3.11)"/>
                    <path fill="#00346E" d="M8.932 2.786L6.405 1.351c.165.084.317.168.47.251l2.527 1.435c-.153-.095-.317-.179-.47-.25" transform="translate(8.58) translate(0 3.11)"/>
                </g>
            </g>
            <path fill="url(#n5w9ovphqd)" d="M25.656 15.259c-1 .358-2.022.67-3.032 1.004-.365.156-.73.323-1.105.454-2.339.754-4.713 1.388-7.17 1.627-.093.012-.187-.012-.281-.024-1.516.203-3.032.167-4.537-.096-3.572-.61-6.699-1.973-8.673-5.297-.165-.263-.435-.467-.658-.694l-.176.108c.094.287.14.586.27.849.505.992.975 2.009 1.563 2.954 1.01 1.602 1.986 3.252 3.185 4.7 2.597 3.12 6.123 4.4 10.036 4.675 2.786.191 5.512-.228 8.18-1.065 2.856-.884 9.202-2.87 9.202-2.87s2.598-6.361 3.761-9.052c-1.528.108-.023 0-1.54.203-3.114.407-6.075 1.483-9.025 2.524z"/>
        </g>
        <g fill-rule="nonzero">
            <g>
                <path fill="#1C3664" d="M21.808 3.235L13.586 24.164 8.256 24.164 0.07 3.235 5.922 3.235 11.113 16.858 16.408 3.235z" transform="translate(67) translate(0 .124)"/>
                <path fill="url(#2ub4adhmge)" d="M23.376 5.29c-.593-.571-.871-1.294-.871-2.17 0-.875.278-1.56.87-2.169.593-.57 1.36-.875 2.3-.875.94 0 1.707.266 2.299.837.592.533.87 1.256.87 2.093 0 .914-.278 1.637-.87 2.245-.592.571-1.359.876-2.3.876-.94.038-1.706-.229-2.298-.837z" transform="translate(67) translate(0 .124)"/>
                <path fill="#1C3664" d="M47.413 1.979v22.185h-4.947v-1.598c-.975 1.256-2.404 1.865-4.355 1.865-1.358 0-2.577-.343-3.692-1.028-1.115-.685-1.986-1.674-2.648-2.93-.662-1.256-.975-2.74-.975-4.414 0-1.675.313-3.159.975-4.414.662-1.256 1.533-2.246 2.648-2.93 1.115-.686 2.334-1.028 3.692-1.028 1.777 0 3.136.57 4.111 1.674V1.98h5.19zM41.42 18.875c.592-.685.87-1.637.87-2.854 0-1.18-.278-2.131-.87-2.816-.557-.685-1.324-1.028-2.23-1.028-.905 0-1.672.343-2.23 1.028-.591.685-.87 1.598-.87 2.816 0 1.217.279 2.169.87 2.854.593.685 1.325 1.027 2.23 1.027.906 0 1.638-.342 2.23-1.027zM64.831 9.475c1.115 1.18 1.673 3.007 1.673 5.404v9.247h-5.191v-8.334c0-2.207-.801-3.31-2.439-3.31-.906 0-1.602.304-2.16.951-.522.647-.8 1.598-.8 2.854v7.84h-5.192V1.94h5.191v7.458c.558-.57 1.22-1.027 1.986-1.332.766-.304 1.602-.456 2.473-.456 1.847.076 3.345.685 4.46 1.864zM85.106 7.953l-6.375 16.858c-.731 1.98-1.672 3.387-2.752 4.186-1.08.8-2.404 1.218-3.936 1.218-.802 0-1.568-.152-2.37-.419-.8-.266-1.428-.609-1.915-1.065l1.811-3.958c.279.305.627.533 1.045.685.418.152.836.267 1.254.267.488 0 .906-.115 1.22-.343.313-.228.592-.57.8-1.027l-6.34-16.402h5.33l3.624 9.894 3.658-9.894h4.946zM97.892 9.552c1.288 1.217 1.95 3.12 1.95 5.632v8.98H95v-2.093c-.732 1.56-2.195 2.36-4.39 2.36-1.149 0-2.16-.229-2.995-.647-.836-.457-1.464-1.028-1.916-1.789-.418-.76-.627-1.598-.627-2.55 0-1.522.522-2.74 1.602-3.576 1.08-.838 2.752-1.256 4.982-1.256h2.96c-.104-1.713-1.149-2.588-3.134-2.588-.697 0-1.429.114-2.16.38-.732.267-1.359.61-1.847 1.028L85.733 9.59c.837-.61 1.812-1.066 2.996-1.408 1.185-.343 2.37-.495 3.554-.495 2.438 0 4.32.609 5.609 1.865zm-4.25 10.807c.452-.305.766-.8.975-1.408v-1.408h-2.23c-1.498 0-2.264.533-2.264 1.636 0 .495.174.914.522 1.18.349.304.837.457 1.429.457.592 0 1.115-.115 1.567-.457zM105.59 23.936c-1.463-.419-2.647-.99-3.553-1.674l1.777-4.377c.87.61 1.846 1.104 2.996 1.485 1.115.38 2.23.57 3.344.57 2.09 0 3.135-.57 3.135-1.712 0-.609-.313-1.028-.905-1.332-.593-.304-1.533-.609-2.857-.913-1.428-.343-2.648-.685-3.623-1.104-.975-.38-1.812-1.027-2.473-1.865-.697-.837-1.046-2.016-1.046-3.462 0-1.256.314-2.436.941-3.463.627-1.028 1.603-1.827 2.857-2.436 1.254-.609 2.821-.913 4.668-.913 1.254 0 2.508.152 3.727.457 1.22.304 2.3.76 3.24 1.37l-1.672 4.376c-1.812-1.066-3.588-1.599-5.295-1.599-1.08 0-1.847.19-2.37.533-.487.343-.73.8-.73 1.37 0 .57.278.99.87 1.256s1.533.57 2.822.875c1.463.343 2.682.685 3.623 1.104.94.418 1.777.99 2.473 1.864.697.838 1.046 1.98 1.046 3.463 0 1.256-.314 2.398-.941 3.425-.627 1.028-1.603 1.827-2.857 2.436-1.289.608-2.821.913-4.633.913-1.602 0-3.1-.228-4.564-.647zM132.763 9.552c1.29 1.217 1.951 3.12 1.951 5.632v8.98h-4.842v-2.093c-.732 1.56-2.195 2.36-4.39 2.36-1.15 0-2.16-.229-2.996-.647-.836-.457-1.463-1.028-1.916-1.789-.418-.76-.627-1.598-.627-2.55 0-1.522.523-2.74 1.603-3.576 1.08-.838 2.752-1.256 4.981-1.256h2.962c-.105-1.713-1.15-2.588-3.136-2.588-.697 0-1.428.114-2.16.38-.731.267-1.358.61-1.846 1.028l-1.742-3.843c.836-.61 1.812-1.066 2.996-1.408 1.185-.343 2.369-.495 3.553-.495 2.439 0 4.32.609 5.61 1.865zm-4.215 10.807c.453-.305.766-.8.975-1.408v-1.408h-2.23c-1.497 0-2.264.533-2.264 1.636 0 .495.175.914.523 1.18.348.304.836.457 1.428.457s1.08-.115 1.568-.457zM153.979 1.979v22.185h-4.947v-1.598c-.975 1.256-2.404 1.865-4.355 1.865-1.358 0-2.578-.343-3.692-1.028-1.115-.685-1.986-1.674-2.648-2.93-.662-1.256-.975-2.74-.975-4.414 0-1.675.313-3.159.975-4.414.662-1.256 1.533-2.246 2.648-2.93 1.114-.686 2.334-1.028 3.692-1.028 1.777 0 3.136.57 4.111 1.674V1.98h5.19zm-5.992 16.896c.592-.685.87-1.637.87-2.854 0-1.18-.278-2.131-.87-2.816-.558-.685-1.324-1.028-2.23-1.028-.905 0-1.672.343-2.23 1.028-.591.685-.87 1.598-.87 2.816 0 1.217.279 2.169.87 2.854.593.685 1.325 1.027 2.23 1.027.906 0 1.638-.342 2.23-1.027zM171.397 9.475c1.115 1.18 1.672 3.007 1.672 5.404v9.247h-5.155v-8.334c0-2.207-.802-3.31-2.439-3.31-.906 0-1.603.304-2.16.951-.522.647-.801 1.598-.801 2.854v7.84h-5.19V1.94h5.19v7.458c.557-.57 1.22-1.027 1.986-1.332.766-.304 1.602-.456 2.473-.456 1.846.076 3.31.685 4.424 1.864zM188.293 9.552c1.289 1.217 1.95 3.12 1.95 5.632v8.98h-4.841v-2.093c-.732 1.56-2.195 2.36-4.39 2.36-1.15 0-2.16-.229-2.996-.647-.836-.457-1.463-1.028-1.916-1.789-.418-.76-.627-1.598-.627-2.55 0-1.522.523-2.74 1.603-3.576 1.08-.838 2.752-1.256 4.981-1.256h2.961c-.104-1.713-1.15-2.588-3.135-2.588-.697 0-1.428.114-2.16.38-.731.267-1.358.61-1.846 1.028l-1.742-3.843c.836-.61 1.812-1.066 2.996-1.408 1.184-.343 2.369-.495 3.553-.495 2.439 0 4.32.609 5.61 1.865zm-4.215 10.807c.453-.305.766-.8.975-1.408v-1.408h-2.23c-1.497 0-2.264.533-2.264 1.636 0 .495.174.914.523 1.18.348.304.836.457 1.428.457s1.115-.115 1.568-.457zM207.628 9.475c1.114 1.18 1.672 3.007 1.672 5.404v9.247h-5.191v-8.334c0-2.207-.801-3.31-2.439-3.31-.905 0-1.602.304-2.16.951-.522.647-.8 1.598-.8 2.854v7.84h-5.191V7.914h4.946v1.75c.593-.646 1.29-1.14 2.09-1.521.802-.343 1.673-.533 2.613-.533 1.847.076 3.345.685 4.46 1.864z" transform="translate(67) translate(0 .124)"/>
            </g>
            <path fill="#1C3664" d="M24.173 7.743H28.705V24.505000000000003H24.173z" transform="translate(67)"/>
        </g>
        <text fill="#3C3C3C" font-family="Montserrat-SemiBold, Montserrat" font-size="11" font-weight="500" letter-spacing=".126">
            <tspan x="70" y="44">To Bring Life Changing Tution to All</tspan>
        </text>
    </g>
</svg>
