<svg xmlns="http://www.w3.org/2000/svg" xmlns:xlink="http://www.w3.org/1999/xlink" width="1366" height="768" viewBox="0 0 1366 768">
    <defs>
        <linearGradient id="9wipqkcw2b" x1="50%" x2="50%" y1="13.322%" y2="100%">
            <stop offset="0%" stop-color="#F0F9FF"/>
            <stop offset="100%" stop-color="#BCDAFC"/>
        </linearGradient>
        <linearGradient id="xhnyi1chld" x1="110.89%" x2="-21.419%" y1="52.388%" y2="46.703%">
            <stop offset="0%" stop-color="#1D2DED"/>
            <stop offset="100%" stop-color="#133B7F"/>
        </linearGradient>
        <path id="sswsxrj8oa" d="M0 0H1366V768H0z"/>
        <path id="mclzqbdv3f" d="M180-511h401c2.21 0 4 1.79 4 4V36c0 2.21-1.79 4-4 4H180c-2.21 0-4-1.79-4-4v-543c0-2.21 1.79-4 4-4z"/>
        <filter id="h5tadp153e" width="108.8%" height="106.5%" x="-4.4%" y="-1.8%" filterUnits="objectBoundingBox">
            <feMorphology in="SourceAlpha" operator="dilate" radius=".5" result="shadowSpreadOuter1"/>
            <feOffset dy="8" in="shadowSpreadOuter1" result="shadowOffsetOuter1"/>
            <feGaussianBlur in="shadowOffsetOuter1" result="shadowBlurOuter1" stdDeviation="4.5"/>
            <feComposite in="shadowBlurOuter1" in2="SourceAlpha" operator="out" result="shadowBlurOuter1"/>
            <feColorMatrix in="shadowBlurOuter1" values="0 0 0 0 0 0 0 0 0 0 0 0 0 0 0 0 0 0 0.321241259 0"/>
        </filter>
    </defs>
    <g fill="none" fill-rule="evenodd">
        <mask id="2jdswajctc" fill="#fff">
            <use xlink:href="#sswsxrj8oa"/>
        </mask>
        <use fill="url(#9wipqkcw2b)" xlink:href="#sswsxrj8oa"/>
        <g mask="url(#2jdswajctc)">
            <g transform="translate(-63 645)">
                <circle cx="133.5" cy="133.5" r="133.5" fill="#5D8CE8" opacity=".311"/>
                <path fill="url(#xhnyi1chld)" fill-rule="nonzero" d="M1015.403-62c1.777 1.79 3.928 3.39 5.238 5.463 15.713 26.183 40.593 36.92 69.027 41.724 11.972 2.072 24.037 2.354 36.103.753.748.094 1.497.283 2.245.188 19.548-1.883 38.442-6.875 57.055-12.809 2.993-1.036 5.892-2.354 8.792-3.579 8.043-2.637 16.18-5.086 24.131-7.911 23.477-8.194 47.047-16.671 71.833-19.873 12.066-1.601 47.104-9.08 100.173 8.665l-1.333-.442.232-.529c13.958 5.975 26.495 14.187 38.389 23.592l.963.765c22.955 18.409 40.288 41.35 52.937 67.972 2.249 4.814 3.842 9.818 5.903 14.821l-1.405.85c-2.062-2.549-4.04-5.147-6.372-7.458-55.233-54.765-97.932-59.796-106.645-60.47-.226.51-.347.778-.347.778s-56.62-5.313-173.409 43.757c-21.231 6.593-42.93 9.89-65.098 8.382-31.146-2.166-59.206-12.244-79.877-36.826-9.54-11.396-17.303-24.394-25.347-37.015-4.677-7.44-8.418-15.446-12.44-23.263-1.029-2.072-1.403-4.427-2.151-6.687l1.403-.848z" opacity=".146" transform="rotate(161 1250.546 -2.175)"/>
                <ellipse cx="1417.5" cy="-148" stroke="#E85D8F" stroke-width="12" opacity=".201" rx="40.5" ry="40"/>
                <circle cx="1360.5" cy="-599.5" r="133.5" fill="#80C6FF" opacity=".571"/>
                <circle cx="316.5" cy="-613.5" r="89.5" fill="#FFD22E" opacity=".501"/>
                <ellipse cx="174.5" cy="-518" stroke="#64B2FF" stroke-width="12" opacity=".301" rx="40.5" ry="40"/>
                <g>
                    <use fill="#000" filter="url(#h5tadp153e)" xlink:href="#mclzqbdv3f"/>
                    <use fill="#FFF" stroke="#DEDEDE" xlink:href="#mclzqbdv3f"/>
                </g>
            </g>
        </g>
    </g>
</svg>
