<svg xmlns="http://www.w3.org/2000/svg" width="53" height="93" viewBox="0 0 53 93">
    <g fill="none">
        <g>
            <path fill="#808A9D" d="M44.852 90.903H6.062c-3.297 0-5.969-2.623-5.969-5.858V5.95C.093 2.715 2.765.092 6.061.092h38.791c3.296 0 5.968 2.623 5.968 5.858v79.095c0 3.235-2.672 5.858-5.968 5.858z" transform="translate(1 1)"/>
            <path fill="#6B768D" d="M6.061 85.045V5.95c0-3.235 2.672-5.858 5.968-5.858H6.061C2.765.092.093 2.715.093 5.95v79.095c0 3.235 2.672 5.858 5.968 5.858h5.968c-3.296 0-5.968-2.623-5.968-5.858z" transform="translate(1 1)"/>
            <path fill="#EAEBEF" d="M0.093 10.345H50.82V79.18599999999999H0.093z" transform="translate(1 1)"/>
            <path fill="#D5D8DE" d="M0.093 10.345H6.061V79.18599999999999H0.093z" transform="translate(1 1)"/>
            <g transform="translate(1 1) translate(8.952 20.506)">
                <g>
                    <path fill="#ABB1BE" d="M19.489.092H13.52c-4.525 0-8.206 3.613-8.206 8.055v13.915c0 1.213 1.002 2.197 2.238 2.197s2.238-.984 2.238-2.197V8.147c0-2.019 1.673-3.661 3.73-3.661h5.968c2.056 0 3.73 1.642 3.73 3.661v13.915c0 1.213 1.002 2.197 2.238 2.197s2.238-.984 2.238-2.197V8.147c0-4.442-3.681-8.055-8.206-8.055z" transform="translate(0 4.394)"/>
                    <path fill="#F5E063" d="M32.916 45.497H.093V24.992c0-2.427 2.004-4.395 4.476-4.395h23.872c2.472 0 4.475 1.968 4.475 4.395v20.505z" transform="translate(0 4.394)"/>
                    <path fill="#F2D83D" d="M10.537 20.597H4.569c-2.472 0-4.476 1.968-4.476 4.395v20.505h5.968V24.992c0-2.427 2.004-4.395 4.476-4.395z" transform="translate(0 4.394)"/>
                    <path fill="#808A9D" d="M20.98 30.85c0-2.426-2.003-4.394-4.475-4.394-2.472 0-4.476 1.968-4.476 4.394 0 1.828 1.137 3.395 2.754 4.057l-1.262 4.732h5.968l-1.263-4.732c1.618-.662 2.755-2.229 2.755-4.057z" transform="translate(0 4.394)"/>
                </g>
                <ellipse cx="28.441" cy="8.88" fill="#FB675F" rx="8.952" ry="8.788"/>
                <path fill="#FA544B" d="M32.916 16.203c-4.944 0-8.951-3.934-8.951-8.788 0-3.048 1.581-5.733 3.982-7.31-4.714.252-8.458 4.084-8.458 8.775 0 4.853 4.008 8.788 8.952 8.788 1.838 0 3.547-.545 4.97-1.479-.164.01-.329.014-.495.014z"/>
            </g>
        </g>
        <g fill="#000">
            <path d="M45.636 0H7.283C3.267 0 0 3.225 0 7.189V85.81C0 89.775 3.267 93 7.283 93h38.353c4.016 0 7.283-3.225 7.283-7.189V59.058c0-.754-.619-1.365-1.383-1.365-.763 0-1.382.61-1.382 1.365v19.564H2.766v-65.7h47.388V52.87c0 .754.619 1.365 1.382 1.365.764 0 1.383-.611 1.383-1.365V7.189C52.92 3.225 49.652 0 45.636 0zm4.518 81.352v4.46c0 2.458-2.027 4.458-4.518 4.458H7.283c-2.49 0-4.517-2-4.517-4.459v-4.459h47.388zM2.766 10.192V7.189c0-2.459 2.026-4.46 4.517-4.46h38.353c2.491 0 4.518 2.001 4.518 4.46v3.003H2.766z"/>
            <path d="M27.935 5.824h-2.95c-.764 0-1.383.611-1.383 1.365s.619 1.365 1.383 1.365h2.95c.764 0 1.383-.611 1.383-1.365s-.62-1.365-1.383-1.365zM35.31 5.824h-1.475c-.764 0-1.383.611-1.383 1.365s.62 1.365 1.383 1.365h1.475c.764 0 1.383-.611 1.383-1.365s-.619-1.365-1.383-1.365zM19.084 5.824H17.61c-.764 0-1.383.611-1.383 1.365s.62 1.365 1.383 1.365h1.475c.764 0 1.383-.611 1.383-1.365s-.619-1.365-1.383-1.365zM23.51 87.176h5.9c.764 0 1.383-.611 1.383-1.365s-.62-1.365-1.383-1.365h-5.9c-.764 0-1.383.611-1.383 1.365s.619 1.365 1.382 1.365zM32.268 56.692c0-3.161-2.606-5.733-5.808-5.733-3.203 0-5.809 2.572-5.809 5.733 0 1.91.95 3.655 2.497 4.711l-.976 3.679c-.226.852.446 1.71 1.337 1.71h5.9c.892 0 1.565-.858 1.339-1.71l-.976-3.679c1.546-1.056 2.496-2.801 2.496-4.711zm-4.639 2.773c-.636.262-.98.947-.805 1.605l.794 2.993h-2.317l.794-2.993c.175-.658-.168-1.343-.805-1.605-1.138-.469-1.873-1.557-1.873-2.773 0-1.656 1.365-3.003 3.043-3.003 1.677 0 3.042 1.347 3.042 3.003 0 1.216-.735 2.304-1.873 2.773z"/>
            <path d="M48.494 30.484c0-5.57-4.59-10.1-10.234-10.1-3.49 0-6.578 1.735-8.425 4.377-.142-.006-.284-.01-.425-.01h-5.9c-5.237 0-9.497 4.205-9.497 9.373v11.047c-2.9.318-5.162 2.751-5.162 5.697V71.25c0 .754.619 1.365 1.383 1.365h32.452c.764 0 1.383-.61 1.383-1.365V50.868c0-2.946-2.263-5.379-5.163-5.697v-4.608c5.343-.33 9.588-4.723 9.588-10.079zM34.481 45.135v-5.267c.533.21 1.087.378 1.659.498v4.769h-1.66zm-6.358-13.286c.352 2.558 1.675 4.814 3.592 6.392v6.894h-10.51v-11.01c0-1.255 1.033-2.276 2.304-2.276h4.614zm10.137-8.735c4.118 0 7.468 3.306 7.468 7.37 0 4.065-3.35 7.371-7.468 7.371-4.117 0-7.467-3.306-7.467-7.37 0-4.065 3.35-7.371 7.467-7.371zM23.51 27.48h4.979c-.167.529-.289 1.077-.366 1.638h-4.614c-2.795 0-5.07 2.245-5.07 5.005v11.011h-1.66v-11.01c0-3.664 3.02-6.644 6.73-6.644zm17.793 23.387v19.018H11.616V50.868c0-1.656 1.365-3.003 3.043-3.003H38.26c1.678 0 3.043 1.347 3.043 3.003z"/>
            <path d="M38.26 31.85c.764 0 1.383-.612 1.383-1.366v-4.368c0-.753-.619-1.365-1.383-1.365-.763 0-1.382.612-1.382 1.365v4.368c0 .754.619 1.365 1.382 1.365z"/>
            <ellipse cx="38.26" cy="34.852" rx="1.383" ry="1.365"/>
        </g>
    </g>
</svg>
