<svg xmlns="http://www.w3.org/2000/svg" width="152" height="52" viewBox="0 0 152 52">
    <defs>
        <filter id="cw73yydzha">
            <feColorMatrix in="SourceGraphic" values="0 0 0 0 0.113725 0 0 0 0 0.250980 0 0 0 0 0.509804 0 0 0 1.000000 0"/>
        </filter>
    </defs>
    <g fill="none" fill-rule="evenodd">
        <g filter="url(#cw73yydzha)">
            <g fill="#A0A5BA" fill-rule="nonzero" transform="translate(0 16)">
                <path d="M12.23 5.883l3.526-2.684c.11-.084.131-.24.048-.35-.084-.11-.24-.132-.35-.048L12.038 5.4c-.386-.512-1.118-.527-1.532-.078-1.378 1.491-3.881.873-4.282.762C6.123 6.032 6.01 6 5.887 6h-3c-.125 0-.24.033-.344.087-.5.017-2.234.742-2.505 2.14-.187.963.308 1.926 1.472 2.864.204.164.482.24.627.222V20c0 .552.448 1 1 1 .553 0 1-.448 1-1v-7h.5v7c0 .552.448 1 1 1 .553 0 1-.448 1-1V8.21c3.569.536 5.706-1.366 5.593-2.327zM2.137 8.438v.465c-.194-.274-.164-.323 0-.465z"/>
                <path d="M8.5 0v5.765c.696-.095 1.246-.355 1.64-.785.505-.549 1.347-.628 1.926-.23l3.085-2.345c.13-.1.29-.155.455-.155.23 0 .455.11.595.295.25.33.185.8-.14 1.05l-3.325 2.53C12.599 7.625 10.13 8.65 8.5 8.78v2.72H24V0H8.5z"/>
                <circle cx="4.387" cy="3.75" r="1.75"/>
            </g>
        </g>
        <text fill="#1D4082" font-family="Montserrat-SemiBold, Montserrat" font-size="14" font-weight="500">
            <tspan x="50" y="14">My Classroom</tspan>
        </text>
    </g>
</svg>
