<svg xmlns="http://www.w3.org/2000/svg" width="84" height="84" viewBox="0 0 84 84">
    <g fill="none" fill-rule="evenodd" transform="translate(2 2)">
        <circle cx="40" cy="40" r="40" fill="#FFF" stroke="#C4182C" stroke-width="3"/>
        <g fill="#3A61A9" fill-rule="nonzero">
            <path d="M32.07 35.896h-4.313v-3.409H16.765v3.409h-4.382c-1.53 0-2.713 1.252-2.713 2.713 0 1.53 1.252 2.713 2.713 2.713H32c1.53 0 2.713-1.252 2.713-2.713.07-1.53-1.113-2.713-2.643-2.713zM41.113.417H3.409C1.53.417 0 1.947 0 3.827v23.86c0 1.878 1.53 3.409 3.409 3.409h37.774c1.878 0 3.408-1.53 3.408-3.409V3.827c-.07-1.88-1.6-3.41-3.478-3.41zm2.017 24.626H16.14L16 20.8c0-.974.765-1.74 1.74-1.74.973 0 1.947-.347 2.782-.973l5.913-4.522c.278-.208.348-.626.139-.974l-.348-.487 6.4-4.243c.348-.209.417-.626.209-.974-.07-.14-.209-.209-.348-.278h7.235c.348 0 .695-.279.695-.696 0-.417-.347-.696-.695-.696H20.939c-.417 0-.696.279-.696.696 0 .417.279.696.696.696H32c-.07 0-.07 0-.14.07l-6.469 4.243-.348-.487c-.208-.278-.626-.418-.973-.209l-7.374 4.8h-5.009c-.278 0-.557.209-.626.487l-.904 2.504h-.279l-.904-2.504c-.07-.278-.348-.487-.626-.487-2.365 0-4.244 1.878-4.244 4.244v5.773H1.391V3.826c0-1.113.905-2.017 2.018-2.017h37.774c1.113 0 2.017.904 2.017 2.017v21.217h-.07z" transform="translate(17.391 19.478)"/>
            <path d="M39.722 9.809h-8.835c-.417 0-.696.278-.696.695 0 .418.279.696.696.696h8.835c.417 0 .695-.278.695-.696 0-.417-.278-.695-.695-.695zM39.722 14.33H27.478c-.417 0-.695.279-.695.696 0 .417.278.696.695.696h12.313c.418 0 .696-.279.696-.696-.07-.417-.348-.696-.765-.696zM39.722 18.783h-17.67c-.417 0-.695.278-.695.695 0 .418.278.696.695.696h17.67c.417 0 .695-.278.695-.696 0-.348-.278-.695-.695-.695zM10.087 6.47c-2.017 0-3.617 1.6-3.617 3.617s1.6 3.617 3.617 3.617 3.617-1.6 3.617-3.617-1.6-3.617-3.617-3.617z" transform="translate(17.391 19.478)"/>
        </g>
    </g>
</svg>
