<svg xmlns="http://www.w3.org/2000/svg" width="84" height="84" viewBox="0 0 84 84">
    <g fill="none" fill-rule="evenodd" transform="translate(2 2)">
        <circle cx="40" cy="40" r="40" fill="#FFF" stroke="#C4182C" stroke-width="3"/>
        <g fill="#3A61A9" fill-rule="nonzero">
            <path d="M18.175 14.44V6.491c0-.588-.476-1.065-1.062-1.065-.588 0-1.065.477-1.065 1.065v7.947c-1.238.438-2.125 1.615-2.125 3.004 0 .452.094.882.265 1.27l-5.134 5.134c-.457.457-.457 1.198 0 1.653.23.23.528.343.827.343.298 0 .598-.114.827-.343l5.131-5.131c.391.168.82.264 1.273.264 1.762 0 3.188-1.428 3.188-3.189.002-1.39-.888-2.567-2.125-3.005zM25.016 28.606H28.416999999999998V30.946H25.016zM29.766 28.606H33.167V30.946H29.766zM34.514 28.606H37.915000000000006V30.946H34.514zM25.016 32.649H28.416999999999998V34.986000000000004H25.016zM29.766 32.649H33.167V34.986000000000004H29.766zM34.514 32.649H37.915000000000006V34.986000000000004H34.514z" transform="translate(19.478 20.174)"/>
            <path d="M2.757 17.443c0-7.915 6.44-14.356 14.356-14.356 7.915 0 14.353 6.44 14.353 14.356 0 1.571-.257 3.084-.726 4.502h2.224c.407-1.433.63-2.94.63-4.502 0-9.089-7.394-16.48-16.48-16.48C8.024.964.632 8.355.632 17.444c0 9.087 7.392 16.48 16.48 16.48 1.028 0 2.035-.1 3.011-.283v-2.166c-.971.21-1.978.321-3.011.321-7.914.001-14.355-6.437-14.355-14.352z" transform="translate(19.478 20.174)"/>
            <path d="M39.83 23.646h-.78v-.568c0-.588-.474-1.063-1.062-1.063-.588 0-1.063.475-1.063 1.063v.568H26.01v-.568c0-.588-.477-1.063-1.065-1.063-.586 0-1.063.475-1.063 1.063v.568h-.78c-.705 0-1.275.57-1.275 1.275v12.05c0 .704.57 1.275 1.275 1.275h16.73c.704 0 1.277-.57 1.277-1.275V24.92c-.001-.705-.574-1.275-1.277-1.275zm-1.842 1.028c.518 0 .938.42.938.939 0 .518-.42.938-.938.938-.519 0-.939-.42-.939-.938 0-.519.42-.939.939-.939zm-13.044 0c.518 0 .94.42.94.939 0 .518-.422.938-.94.938-.519 0-.939-.42-.939-.938 0-.519.42-.939.939-.939zm14.32 11.448H23.669v-8.649h15.595v8.65z" transform="translate(19.478 20.174)"/>
        </g>
    </g>
</svg>
