<svg xmlns="http://www.w3.org/2000/svg" width="1787" height="1319" fill="none" viewBox="0 0 1787 1319">
    <path fill="url(#paint0_linear)" d="M-11.646 51.115H1791.644V1168.085H-11.646z" opacity=".8"/>
    <path fill="#fff" d="M-82.972 397.674s8.19-63.266 340.704-26.21 599.508 242.219 1014.738 26.21c188.64-98.133 333.34-132.471 435.08-140.725 79.21-6.426 166.91-86.468 155.19-165.073l-.65-4.406c-7.45-49.948-50.96-86.508-101.45-85.227L-109.999 49.71M1862.97 1084.89s-8.19 37.25-340.7 15.43c-332.52-21.81-599.511-142.593-1014.744-15.43-236.557 72.45-404.003 85.83-504.308 83.94-51.028-.96-97.739 49.56-85.213 99.04 7.588 29.97 34.77 50.8 65.682 50.34L1890 1289.74"/>
    <defs>
        <linearGradient id="paint0_linear" x1="1053.5" x2="1224.83" y1="-234.829" y2="1713.51" gradientUnits="userSpaceOnUse">
            <stop offset=".063" stop-color="#F53B0A"/>
            <stop offset="1" stop-color="#000AFF"/>
        </linearGradient>
    </defs>
</svg>
