<svg xmlns="http://www.w3.org/2000/svg" width="81" height="78" viewBox="0 0 81 78">
    <g fill="none" fill-rule="evenodd">
        <g stroke="#717896" stroke-linecap="round" stroke-linejoin="round" stroke-width=".9">
            <path d="M.549 1.872L77.733 2.059M20.993 8.059L62.02 8.246M10.118 8.059L14.993 8.246" transform="translate(1.366 1.107) translate(0 66)"/>
        </g>
        <g fill="#555" fill-rule="nonzero">
            <path stroke="#555" stroke-width=".5" d="M14.333 19.22h.734c.843 5.385 5.482 9.354 10.933 9.354 5.45 0 10.09-3.969 10.933-9.354h.734c1.44 0 2.61-1.166 2.613-2.607V14c0-.736-.597-1.333-1.333-1.333h-1.86V7.333c.005-1.897-.745-3.72-2.084-5.064C33.663.925 31.844.17 29.947.167h-7.894C20.156.168 18.338.925 17 2.27c-1.338 1.344-2.086 3.166-2.079 5.063v5.334h-1.867c-.736 0-1.333.597-1.333 1.333v2.613c.004 1.441 1.173 2.607 2.613 2.607zM26 27.253c-5.381-.01-9.74-4.372-9.747-9.753v-4.567c.247-.526 1.674-3.1 5.58-3.1 2.72.022 5.391-.71 7.72-2.113 1.705 1.825 3.835 3.2 6.2 4v5.767c-.003 5.387-4.366 9.755-9.753 9.766zM38.947 14v2.613c-.004.705-.576 1.274-1.28 1.274h-.58V14h1.86zM16.28 7.333c0-3.204 2.596-5.803 5.8-5.806h7.867c3.205.003 5.803 2.6 5.806 5.806v3c-2.149-.826-4.06-2.17-5.566-3.913-.227-.284-.639-.334-.927-.113-2.196 1.467-4.786 2.232-7.427 2.193-2.08-.087-4.103.699-5.58 2.167l.027-3.334zM13.08 14h1.867v3.887h-.614c-.704 0-1.276-.57-1.28-1.274L13.08 14z" transform="translate(1.366 1.107) translate(12.634 .893)"/>
            <path d="M24.972 20.013c.14.53.42.959 1.043.959.624 0 .916-.417 1.056-.972h1.909c.203 1.426-1.145 2.89-2.736 2.992-1.743.126-3.206-1.212-3.244-2.98h1.972zM21.481 17c-.828-.013-1.493-.703-1.48-1.531.012-.804.69-1.456 1.48-1.469.829 0 1.506.678 1.519 1.506 0 .829-.703 1.506-1.519 1.494zM32 15.518c0 .816-.703 1.506-1.531 1.481-.804-.012-1.456-.677-1.469-1.48-.012-.829.678-1.519 1.494-1.519.828.013 1.506.69 1.506 1.518z" transform="translate(1.366 1.107) translate(12.634 .893)"/>
            <path stroke="#555" stroke-width=".5" d="M1 57.653h16.473c.89.004 1.61.724 1.614 1.614 0 .368.298.666.666.666h12.5c.369 0 .667-.298.667-.666 0-.889.718-1.61 1.607-1.614H51c.368 0 .667-.298.667-.666V54.32c0-.368-.299-.667-.667-.667h-1.447c.01-.108.01-.218 0-.326v-2.174c-.003-.912-.74-1.652-1.653-1.66h-.433v-5.74c-.011-6.78-5.486-12.285-12.267-12.333h-4c-.198 0-.386.088-.513.24l-4.667 5.633-4.667-5.633c-.127-.152-.315-.24-.513-.24h-4.067c-6.763.073-12.212 5.57-12.226 12.333v5.74H4.12c-.913.008-1.65.748-1.653 1.66v2.18c-.01.109-.01.218 0 .327H1c-.368 0-.667.298-.667.667v2.666c.004.366.301.66.667.66zm30.52-24.9h2.887l-1.914 8.7-5.48-3.293 4.507-5.407zm-6.533 5.407l-5.48 3.293-1.914-8.7h2.887l4.507 5.407zM5.833 43.753c.016-5.836 4.58-10.648 10.407-10.973l2.16 9.887c.045.21.189.387.387.473.085.034.175.052.266.053.12 0 .237-.032.34-.093L26 39.113l6.607 3.96c.103.061.22.094.34.094.091-.002.181-.02.266-.054.192-.08.335-.245.387-.446l2.16-9.86c5.817.324 10.377 5.12 10.407 10.946v5.74l-15.92-.06h0c-1.299-.004-2.545.512-3.46 1.434-.305.295-.57.629-.787.993-.213-.364-.473-.698-.773-.993-.915-.922-2.162-1.438-3.46-1.434h0l-15.92.06-.014-5.74zm-2.08 9.58v-2.18c.004-.179.148-.323.327-.326l17.673-.06h0c.95-.006 1.86.368 2.533 1.038.672.67 1.05 1.58 1.047 2.528 0 .369.299.667.667.667.368 0 .667-.298.667-.667-.002-.946.373-1.854 1.042-2.524.67-.669 1.578-1.044 2.524-1.042h0l17.68.06c.18.003.323.147.327.326v2.18c0 .18-.146.327-.327.327H32.247c-1.26.001-2.359.858-2.667 2.08h-7.16c-.308-1.222-1.407-2.079-2.667-2.08H4.08c-.18 0-.327-.146-.327-.327zM1.667 55h18.086c.375 0 .735.149 1 .414s.414.624.414 1c0 .368.298.666.666.666h8.334c.368 0 .666-.298.666-.667 0-.375.15-.734.414-.999.265-.265.625-.414 1-.414h18.086v1.333H34.527c-1.369.004-2.555.948-2.867 2.28H20.327c-.315-1.333-1.504-2.276-2.874-2.28H1.667V55z" transform="translate(1.366 1.107) translate(12.634 .893)"/>
            <path stroke="#555" stroke-width=".5" d="M35.72 46H41.272999999999996V47.333H35.72z" transform="translate(1.366 1.107) translate(12.634 .893)"/>
        </g>
    </g>
</svg>
