<svg xmlns="http://www.w3.org/2000/svg" width="1778" height="1965" fill="none" viewBox="0 0 1778 1965">
    <path fill="url(#paint0_linear)" d="M0 0s442.914 53.108 818 53.108C1193.09 53.108 1778 0 1778 0v1965s-584.91-53.11-960-53.11C442.914 1911.89 0 1965 0 1965V0z" opacity=".9"/>
    <circle cx="378.24" cy="844.636" r="3.524" fill="#87F1FF" transform="rotate(-180 378.24 844.636)"/>
    <circle cx="326.561" cy="844.636" r="3.524" fill="#87F1FF" transform="rotate(-180 326.561 844.636)"/>
    <circle cx="274.882" cy="844.636" r="3.524" fill="#87F1FF" transform="rotate(-180 274.882 844.636)"/>
    <circle cx="223.202" cy="844.636" r="3.524" fill="#87F1FF" transform="rotate(-180 223.202 844.636)"/>
    <circle cx="171.523" cy="844.636" r="3.524" fill="#87F1FF" transform="rotate(-180 171.523 844.636)"/>
    <circle cx="378.24" cy="792.957" r="3.524" fill="#87F1FF" transform="rotate(-180 378.24 792.957)"/>
    <circle cx="326.561" cy="792.957" r="3.524" fill="#87F1FF" transform="rotate(-180 326.561 792.957)"/>
    <circle cx="274.882" cy="792.957" r="3.524" fill="#87F1FF" transform="rotate(-180 274.882 792.957)"/>
    <circle cx="223.202" cy="792.957" r="3.524" fill="#87F1FF" transform="rotate(-180 223.202 792.957)"/>
    <circle cx="171.523" cy="792.957" r="3.524" fill="#87F1FF" transform="rotate(-180 171.523 792.957)"/>
    <circle cx="378.24" cy="741.278" r="3.524" fill="#87F1FF" transform="rotate(-180 378.24 741.278)"/>
    <circle cx="326.561" cy="741.278" r="3.524" fill="#87F1FF" transform="rotate(-180 326.561 741.278)"/>
    <circle cx="274.882" cy="741.278" r="3.524" fill="#87F1FF" transform="rotate(-180 274.882 741.278)"/>
    <circle cx="223.202" cy="741.278" r="3.524" fill="#87F1FF" transform="rotate(-180 223.202 741.278)"/>
    <circle cx="171.523" cy="741.278" r="3.524" fill="#87F1FF" transform="rotate(-180 171.523 741.278)"/>
    <circle cx="378.24" cy="689.599" r="3.524" fill="#87F1FF" transform="rotate(-180 378.24 689.599)"/>
    <circle cx="326.561" cy="689.599" r="3.524" fill="#87F1FF" transform="rotate(-180 326.561 689.599)"/>
    <circle cx="274.882" cy="689.599" r="3.524" fill="#87F1FF" transform="rotate(-180 274.882 689.599)"/>
    <circle cx="223.202" cy="689.599" r="3.524" fill="#87F1FF" transform="rotate(-180 223.202 689.599)"/>
    <circle cx="171.523" cy="689.599" r="3.524" fill="#87F1FF" transform="rotate(-180 171.523 689.599)"/>
    <circle cx="378.24" cy="637.92" r="3.524" fill="#87F1FF" transform="rotate(-180 378.24 637.92)"/>
    <circle cx="326.561" cy="637.92" r="3.524" fill="#87F1FF" transform="rotate(-180 326.561 637.92)"/>
    <circle cx="274.882" cy="637.92" r="3.524" fill="#87F1FF" transform="rotate(-180 274.882 637.92)"/>
    <circle cx="223.202" cy="637.92" r="3.524" fill="#87F1FF" transform="rotate(-180 223.202 637.92)"/>
    <circle cx="171.523" cy="637.92" r="3.524" fill="#87F1FF" transform="rotate(-180 171.523 637.92)"/>
    <circle cx="378.24" cy="586.24" r="3.524" fill="#87F1FF" transform="rotate(-180 378.24 586.24)"/>
    <circle cx="326.561" cy="586.24" r="3.524" fill="#87F1FF" transform="rotate(-180 326.561 586.24)"/>
    <circle cx="274.882" cy="586.24" r="3.524" fill="#87F1FF" transform="rotate(-180 274.882 586.24)"/>
    <circle cx="223.202" cy="586.24" r="3.524" fill="#87F1FF" transform="rotate(-180 223.202 586.24)"/>
    <circle cx="171.523" cy="586.24" r="3.524" fill="#87F1FF" transform="rotate(-180 171.523 586.24)"/>
    <circle cx="378.24" cy="534.561" r="3.524" fill="#87F1FF" transform="rotate(-180 378.24 534.561)"/>
    <circle cx="326.561" cy="534.561" r="3.524" fill="#87F1FF" transform="rotate(-180 326.561 534.561)"/>
    <circle cx="274.882" cy="534.561" r="3.524" fill="#87F1FF" transform="rotate(-180 274.882 534.561)"/>
    <circle cx="223.202" cy="534.561" r="3.524" fill="#87F1FF" transform="rotate(-180 223.202 534.561)"/>
    <circle cx="171.523" cy="534.561" r="3.524" fill="#87F1FF" transform="rotate(-180 171.523 534.561)"/>
    <circle cx="378.24" cy="482.882" r="3.524" fill="#87F1FF" transform="rotate(-180 378.24 482.882)"/>
    <circle cx="326.561" cy="482.882" r="3.524" fill="#87F1FF" transform="rotate(-180 326.561 482.882)"/>
    <circle cx="274.882" cy="482.882" r="3.524" fill="#87F1FF" transform="rotate(-180 274.882 482.882)"/>
    <circle cx="223.202" cy="482.882" r="3.524" fill="#87F1FF" transform="rotate(-180 223.202 482.882)"/>
    <circle cx="171.523" cy="482.882" r="3.524" fill="#87F1FF" transform="rotate(-180 171.523 482.882)"/>
    <circle cx="378.24" cy="431.203" r="3.524" fill="#87F1FF" transform="rotate(-180 378.24 431.203)"/>
    <circle cx="326.561" cy="431.203" r="3.524" fill="#87F1FF" transform="rotate(-180 326.561 431.203)"/>
    <circle cx="274.882" cy="431.203" r="3.524" fill="#87F1FF" transform="rotate(-180 274.882 431.203)"/>
    <circle cx="223.202" cy="431.203" r="3.524" fill="#87F1FF" transform="rotate(-180 223.202 431.203)"/>
    <circle cx="171.523" cy="431.203" r="3.524" fill="#87F1FF" transform="rotate(-180 171.523 431.203)"/>
    <circle cx="378.24" cy="379.524" r="3.524" fill="#87F1FF" transform="rotate(-180 378.24 379.524)"/>
    <circle cx="326.561" cy="379.524" r="3.524" fill="#87F1FF" transform="rotate(-180 326.561 379.524)"/>
    <circle cx="274.882" cy="379.524" r="3.524" fill="#87F1FF" transform="rotate(-180 274.882 379.524)"/>
    <circle cx="223.202" cy="379.524" r="3.524" fill="#87F1FF" transform="rotate(-180 223.202 379.524)"/>
    <circle cx="171.523" cy="379.524" r="3.524" fill="#87F1FF" transform="rotate(-180 171.523 379.524)"/>
    <circle cx="378.24" cy="1885.64" r="3.524" fill="#76E5FD" transform="rotate(-180 378.24 1885.64)"/>
    <circle cx="326.561" cy="1885.64" r="3.524" fill="#76E5FD" transform="rotate(-180 326.561 1885.64)"/>
    <circle cx="274.882" cy="1885.64" r="3.524" fill="#76E5FD" transform="rotate(-180 274.882 1885.64)"/>
    <circle cx="223.202" cy="1885.64" r="3.524" fill="#76E5FD" transform="rotate(-180 223.202 1885.64)"/>
    <circle cx="171.523" cy="1885.64" r="3.524" fill="#76E5FD" transform="rotate(-180 171.523 1885.64)"/>
    <circle cx="378.24" cy="1833.96" r="3.524" fill="#76E5FD" transform="rotate(-180 378.24 1833.96)"/>
    <circle cx="326.561" cy="1833.96" r="3.524" fill="#76E5FD" transform="rotate(-180 326.561 1833.96)"/>
    <circle cx="274.882" cy="1833.96" r="3.524" fill="#76E5FD" transform="rotate(-180 274.882 1833.96)"/>
    <circle cx="223.202" cy="1833.96" r="3.524" fill="#76E5FD" transform="rotate(-180 223.202 1833.96)"/>
    <circle cx="171.523" cy="1833.96" r="3.524" fill="#76E5FD" transform="rotate(-180 171.523 1833.96)"/>
    <circle cx="378.24" cy="1782.28" r="3.524" fill="#76E5FD" transform="rotate(-180 378.24 1782.28)"/>
    <circle cx="326.561" cy="1782.28" r="3.524" fill="#76E5FD" transform="rotate(-180 326.561 1782.28)"/>
    <circle cx="274.882" cy="1782.28" r="3.524" fill="#76E5FD" transform="rotate(-180 274.882 1782.28)"/>
    <circle cx="223.202" cy="1782.28" r="3.524" fill="#76E5FD" transform="rotate(-180 223.202 1782.28)"/>
    <circle cx="171.523" cy="1782.28" r="3.524" fill="#76E5FD" transform="rotate(-180 171.523 1782.28)"/>
    <circle cx="378.24" cy="1730.6" r="3.524" fill="#76E5FD" transform="rotate(-180 378.24 1730.6)"/>
    <circle cx="326.561" cy="1730.6" r="3.524" fill="#76E5FD" transform="rotate(-180 326.561 1730.6)"/>
    <circle cx="274.882" cy="1730.6" r="3.524" fill="#76E5FD" transform="rotate(-180 274.882 1730.6)"/>
    <circle cx="223.202" cy="1730.6" r="3.524" fill="#76E5FD" transform="rotate(-180 223.202 1730.6)"/>
    <circle cx="171.523" cy="1730.6" r="3.524" fill="#76E5FD" transform="rotate(-180 171.523 1730.6)"/>
    <circle cx="378.24" cy="1678.92" r="3.524" fill="#76E5FD" transform="rotate(-180 378.24 1678.92)"/>
    <circle cx="326.561" cy="1678.92" r="3.524" fill="#76E5FD" transform="rotate(-180 326.561 1678.92)"/>
    <circle cx="274.882" cy="1678.92" r="3.524" fill="#76E5FD" transform="rotate(-180 274.882 1678.92)"/>
    <circle cx="223.202" cy="1678.92" r="3.524" fill="#76E5FD" transform="rotate(-180 223.202 1678.92)"/>
    <circle cx="171.523" cy="1678.92" r="3.524" fill="#76E5FD" transform="rotate(-180 171.523 1678.92)"/>
    <circle cx="378.24" cy="1627.24" r="3.524" fill="#76E5FD" transform="rotate(-180 378.24 1627.24)"/>
    <circle cx="326.561" cy="1627.24" r="3.524" fill="#76E5FD" transform="rotate(-180 326.561 1627.24)"/>
    <circle cx="274.882" cy="1627.24" r="3.524" fill="#76E5FD" transform="rotate(-180 274.882 1627.24)"/>
    <circle cx="223.202" cy="1627.24" r="3.524" fill="#76E5FD" transform="rotate(-180 223.202 1627.24)"/>
    <circle cx="171.523" cy="1627.24" r="3.524" fill="#76E5FD" transform="rotate(-180 171.523 1627.24)"/>
    <circle cx="378.24" cy="1575.56" r="3.524" fill="#76E5FD" transform="rotate(-180 378.24 1575.56)"/>
    <circle cx="326.561" cy="1575.56" r="3.524" fill="#76E5FD" transform="rotate(-180 326.561 1575.56)"/>
    <circle cx="274.882" cy="1575.56" r="3.524" fill="#76E5FD" transform="rotate(-180 274.882 1575.56)"/>
    <circle cx="223.202" cy="1575.56" r="3.524" fill="#76E5FD" transform="rotate(-180 223.202 1575.56)"/>
    <circle cx="171.523" cy="1575.56" r="3.524" fill="#76E5FD" transform="rotate(-180 171.523 1575.56)"/>
    <circle cx="378.24" cy="1523.88" r="3.524" fill="#76E5FD" transform="rotate(-180 378.24 1523.88)"/>
    <circle cx="326.561" cy="1523.88" r="3.524" fill="#76E5FD" transform="rotate(-180 326.561 1523.88)"/>
    <circle cx="274.882" cy="1523.88" r="3.524" fill="#76E5FD" transform="rotate(-180 274.882 1523.88)"/>
    <circle cx="223.202" cy="1523.88" r="3.524" fill="#76E5FD" transform="rotate(-180 223.202 1523.88)"/>
    <circle cx="171.523" cy="1523.88" r="3.524" fill="#76E5FD" transform="rotate(-180 171.523 1523.88)"/>
    <circle cx="378.24" cy="1472.2" r="3.524" fill="#76E5FD" transform="rotate(-180 378.24 1472.2)"/>
    <circle cx="326.561" cy="1472.2" r="3.524" fill="#76E5FD" transform="rotate(-180 326.561 1472.2)"/>
    <circle cx="274.882" cy="1472.2" r="3.524" fill="#76E5FD" transform="rotate(-180 274.882 1472.2)"/>
    <circle cx="223.202" cy="1472.2" r="3.524" fill="#76E5FD" transform="rotate(-180 223.202 1472.2)"/>
    <circle cx="171.523" cy="1472.2" r="3.524" fill="#76E5FD" transform="rotate(-180 171.523 1472.2)"/>
    <circle cx="378.24" cy="1420.52" r="3.524" fill="#76E5FD" transform="rotate(-180 378.24 1420.52)"/>
    <circle cx="326.561" cy="1420.52" r="3.524" fill="#76E5FD" transform="rotate(-180 326.561 1420.52)"/>
    <circle cx="274.882" cy="1420.52" r="3.524" fill="#76E5FD" transform="rotate(-180 274.882 1420.52)"/>
    <circle cx="223.202" cy="1420.52" r="3.524" fill="#76E5FD" transform="rotate(-180 223.202 1420.52)"/>
    <circle cx="171.523" cy="1420.52" r="3.524" fill="#76E5FD" transform="rotate(-180 171.523 1420.52)"/>
    <circle cx="1206.52" cy="962.24" r="3.524" fill="#86D3FF" transform="rotate(-90 1206.52 962.24)"/>
    <circle cx="1206.52" cy="910.561" r="3.524" fill="#86D3FF" transform="rotate(-90 1206.52 910.561)"/>
    <circle cx="1206.52" cy="858.882" r="3.524" fill="#86D3FF" transform="rotate(-90 1206.52 858.882)"/>
    <circle cx="1206.52" cy="807.203" r="3.524" fill="#86D3FF" transform="rotate(-90 1206.52 807.203)"/>
    <circle cx="1206.52" cy="755.524" r="3.524" fill="#86D3FF" transform="rotate(-90 1206.52 755.524)"/>
    <circle cx="1258.2" cy="962.241" r="3.524" fill="#86D3FF" transform="rotate(-90 1258.2 962.241)"/>
    <circle cx="1258.2" cy="910.561" r="3.524" fill="#86D3FF" transform="rotate(-90 1258.2 910.561)"/>
    <circle cx="1258.2" cy="858.882" r="3.524" fill="#86D3FF" transform="rotate(-90 1258.2 858.882)"/>
    <circle cx="1258.2" cy="807.203" r="3.524" fill="#86D3FF" transform="rotate(-90 1258.2 807.203)"/>
    <circle cx="1258.2" cy="755.524" r="3.524" fill="#86D3FF" transform="rotate(-90 1258.2 755.524)"/>
    <circle cx="1309.88" cy="962.241" r="3.524" fill="#86D3FF" transform="rotate(-90 1309.88 962.241)"/>
    <circle cx="1309.88" cy="910.561" r="3.524" fill="#86D3FF" transform="rotate(-90 1309.88 910.561)"/>
    <circle cx="1309.88" cy="858.882" r="3.524" fill="#86D3FF" transform="rotate(-90 1309.88 858.882)"/>
    <circle cx="1309.88" cy="807.203" r="3.524" fill="#86D3FF" transform="rotate(-90 1309.88 807.203)"/>
    <circle cx="1309.88" cy="755.524" r="3.524" fill="#86D3FF" transform="rotate(-90 1309.88 755.524)"/>
    <circle cx="1361.56" cy="962.241" r="3.524" fill="#86D3FF" transform="rotate(-90 1361.56 962.241)"/>
    <circle cx="1361.56" cy="910.561" r="3.524" fill="#86D3FF" transform="rotate(-90 1361.56 910.561)"/>
    <circle cx="1361.56" cy="858.882" r="3.524" fill="#86D3FF" transform="rotate(-90 1361.56 858.882)"/>
    <circle cx="1361.56" cy="807.203" r="3.524" fill="#86D3FF" transform="rotate(-90 1361.56 807.203)"/>
    <circle cx="1361.56" cy="755.524" r="3.524" fill="#86D3FF" transform="rotate(-90 1361.56 755.524)"/>
    <circle cx="1413.24" cy="962.241" r="3.524" fill="#86D3FF" transform="rotate(-90 1413.24 962.241)"/>
    <circle cx="1413.24" cy="910.561" r="3.524" fill="#86D3FF" transform="rotate(-90 1413.24 910.561)"/>
    <circle cx="1413.24" cy="858.882" r="3.524" fill="#86D3FF" transform="rotate(-90 1413.24 858.882)"/>
    <circle cx="1413.24" cy="807.203" r="3.524" fill="#86D3FF" transform="rotate(-90 1413.24 807.203)"/>
    <circle cx="1413.24" cy="755.524" r="3.524" fill="#86D3FF" transform="rotate(-90 1413.24 755.524)"/>
    <circle cx="1464.92" cy="962.241" r="3.524" fill="#86D3FF" transform="rotate(-90 1464.92 962.241)"/>
    <circle cx="1464.92" cy="910.561" r="3.524" fill="#86D3FF" transform="rotate(-90 1464.92 910.561)"/>
    <circle cx="1464.92" cy="858.882" r="3.524" fill="#86D3FF" transform="rotate(-90 1464.92 858.882)"/>
    <circle cx="1464.92" cy="807.203" r="3.524" fill="#86D3FF" transform="rotate(-90 1464.92 807.203)"/>
    <circle cx="1464.92" cy="755.524" r="3.524" fill="#86D3FF" transform="rotate(-90 1464.92 755.524)"/>
    <circle cx="1516.6" cy="962.241" r="3.524" fill="#86D3FF" transform="rotate(-90 1516.6 962.241)"/>
    <circle cx="1516.6" cy="910.561" r="3.524" fill="#86D3FF" transform="rotate(-90 1516.6 910.561)"/>
    <circle cx="1516.6" cy="858.882" r="3.524" fill="#86D3FF" transform="rotate(-90 1516.6 858.882)"/>
    <circle cx="1516.6" cy="807.203" r="3.524" fill="#86D3FF" transform="rotate(-90 1516.6 807.203)"/>
    <circle cx="1516.6" cy="755.524" r="3.524" fill="#86D3FF" transform="rotate(-90 1516.6 755.524)"/>
    <circle cx="1568.28" cy="962.241" r="3.524" fill="#86D3FF" transform="rotate(-90 1568.28 962.241)"/>
    <circle cx="1568.28" cy="910.561" r="3.524" fill="#86D3FF" transform="rotate(-90 1568.28 910.561)"/>
    <circle cx="1568.28" cy="858.882" r="3.524" fill="#86D3FF" transform="rotate(-90 1568.28 858.882)"/>
    <circle cx="1568.28" cy="807.203" r="3.524" fill="#86D3FF" transform="rotate(-90 1568.28 807.203)"/>
    <circle cx="1568.28" cy="755.524" r="3.524" fill="#86D3FF" transform="rotate(-90 1568.28 755.524)"/>
    <circle cx="1619.96" cy="962.241" r="3.524" fill="#86D3FF" transform="rotate(-90 1619.96 962.241)"/>
    <circle cx="1619.96" cy="910.561" r="3.524" fill="#86D3FF" transform="rotate(-90 1619.96 910.561)"/>
    <circle cx="1619.96" cy="858.882" r="3.524" fill="#86D3FF" transform="rotate(-90 1619.96 858.882)"/>
    <circle cx="1619.96" cy="807.203" r="3.524" fill="#86D3FF" transform="rotate(-90 1619.96 807.203)"/>
    <circle cx="1619.96" cy="755.524" r="3.524" fill="#86D3FF" transform="rotate(-90 1619.96 755.524)"/>
    <circle cx="1671.64" cy="962.241" r="3.524" fill="#86D3FF" transform="rotate(-90 1671.64 962.241)"/>
    <circle cx="1671.64" cy="910.561" r="3.524" fill="#86D3FF" transform="rotate(-90 1671.64 910.561)"/>
    <circle cx="1671.64" cy="858.882" r="3.524" fill="#86D3FF" transform="rotate(-90 1671.64 858.882)"/>
    <circle cx="1671.64" cy="807.203" r="3.524" fill="#86D3FF" transform="rotate(-90 1671.64 807.203)"/>
    <circle cx="1671.64" cy="755.524" r="3.524" fill="#86D3FF" transform="rotate(-90 1671.64 755.524)"/>
    <circle cx="355.5" cy="372.5" r="198" stroke="#FFBA49" stroke-width="5"/>
    <circle cx="355.5" cy="1573.5" r="198" stroke="#FFBA49" stroke-width="5"/>
    <circle cx="1490" cy="667" r="128.5" stroke="#FFBA49" stroke-width="5"/>
    <circle cx="167.5" cy="159.5" r="30" stroke="#FFBA49" stroke-width="5"/>
    <circle cx="1186.5" cy="546.5" r="30" stroke="#FFBA49" stroke-width="5"/>
    <circle cx="696.5" cy="1298.5" r="30" stroke="#FFBA49" stroke-width="5"/>
    <defs>
        <linearGradient id="paint0_linear" x1="1090.71" x2="1575.33" y1="-503.04" y2="2881.64" gradientUnits="userSpaceOnUse">
            <stop offset=".057" stop-color="#F53B0A"/>
            <stop offset=".568" stop-color="#93276C"/>
            <stop offset="1" stop-color="#000AFF"/>
        </linearGradient>
    </defs>
</svg>
