<svg xmlns="http://www.w3.org/2000/svg" width="60" height="43" viewBox="0 0 60 43">
    <g fill="#1D4082">
        <path d="M51.25 14.332L51.25 18.173 58.506 14.332zM8.75 18.174L8.75 14.332 1.494 14.332 5.755 16.588zM50.5 18.57V.66h-41v17.912L30 29.424 50.5 18.57zm-25.716 3.425l-.762-.535 1.436-3.964 1.316.856c.389.253 1.445.84 2.831.84 1.025 0 1.687-.453 1.687-1.155 0-.462-.155-1.017-2.005-1.759-2.245-.868-4.826-2.264-4.826-5.357 0-2.281 1.404-4.122 3.686-4.866V3.358h4.021V5.83c.925.151 1.768.445 2.568.893l.921.517-1.503 3.924-1.258-.714c-.423-.24-1.213-.688-2.481-.688-1.19 0-1.367.557-1.367.889 0 .318 0 .68 2.292 1.644 3.152 1.27 4.562 2.982 4.564 5.548 0 2.363-1.514 4.335-3.883 5.092v2.786h-4.02v-2.534c-1.245-.19-2.404-.617-3.217-1.192z"/>
        <path d="M55.339 16.851L51.051 19.12 30.001 30.265 8.948 19.12 4.662 16.851 0.375 14.581 0.375 42.341 59.625 42.341 59.625 14.581z"/>
    </g>
</svg>
