<svg xmlns="http://www.w3.org/2000/svg" width="45" height="43" viewBox="0 0 45 43">
    <g fill="#1D4082">
        <path d="M44.715 26.987l-3.05-3.343-3.382 3.015c-.38.34-.412.92-.068 1.297.344.378.932.407 1.314.067l1.09-.97c-1.243 8.517-9.121 14.624-17.851 13.707-.51-.055-.968.311-1.023.816-.054.505.316.957.826 1.01.65.07 1.295.102 1.934.102 8.948 0 16.69-6.54 17.961-15.422l.869.951c.183.202.437.304.69.304.223 0 .445-.078.622-.237.382-.34.412-.92.068-1.297zM23.661 21.546v.919h19.525v-.92c0-4.454-3.072-8.214-7.233-9.318 1.86-.92 3.142-2.822 3.142-5.014 0-3.091-2.545-5.605-5.672-5.605s-5.671 2.514-5.671 5.605c0 2.192 1.28 4.094 3.14 5.014-4.16 1.105-7.23 4.864-7.23 9.319zM25.622 3.772L22.646.365c-.336-.384-.923-.428-1.311-.096-.389.332-.432.913-.097 1.297l.8.915C12.228 1.764 3.566 8.953 2.63 18.674c-.048.505.326.953.838 1.002.03.003.06.004.09.004.473 0 .878-.357.924-.832.846-8.798 8.744-15.286 17.638-14.517l-1.16.99c-.39.332-.432.912-.097 1.296.185.21.444.319.704.319.216 0 .433-.074.607-.223l3.448-2.941zM12.338 32.717c1.86-.92 3.141-2.823 3.141-5.015 0-3.091-2.544-5.605-5.671-5.605-3.128 0-5.672 2.514-5.672 5.605 0 2.192 1.28 4.094 3.141 5.015C3.117 33.82.045 37.58.045 42.035v.919H19.57v-.919c0-4.455-3.072-8.215-7.232-9.318z"/>
    </g>
</svg>
