<svg xmlns="http://www.w3.org/2000/svg" width="51" height="45" viewBox="0 0 51 45">
    <g fill="#1D4082">
    <defs>
        <filter id="5rqnekshfa">
            <feColorMatrix in="SourceGraphic" values="0 0 0 0 0.113725 0 0 0 0 0.250980 0 0 0 0 0.509804 0 0 0 1.000000 0"/>
        </filter>
    </defs>
    <g fill="none" fill-rule="evenodd" filter="url(#5rqnekshfa)" transform="translate(-81 -35)">
        <g fill="#1D4082"  transform="translate(81 35)">
            <path d="M25.833 12.606l7.448-5.751c.232-.18.277-.515.101-.75-.177-.236-.508-.283-.74-.103l-7.212 5.57c-.816-1.097-2.363-1.13-3.237-.169-2.911 3.197-8.197 1.873-9.043 1.634-.216-.111-.456-.18-.715-.18H6.1c-.264 0-.509.072-.727.187-1.057.035-4.719 1.59-5.292 4.584-.395 2.064.65 4.129 3.11 6.139.43.351 1.018.513 1.324.474v3.616h.001v15c0 1.184.946 2.143 2.112 2.143 1.167 0 2.113-.96 2.113-2.143v-15h1.056v15c0 1.184.945 2.143 2.112 2.143 1.166 0 2.112-.96 2.112-2.143V17.592c7.537 1.15 12.053-2.926 11.813-4.986zM4.514 18.081v.998c-.41-.588-.346-.693 0-.998z"/>
            <path d="M18 0v12.354c1.468-.204 2.63-.761 3.464-1.683 1.065-1.176 2.843-1.345 4.066-.492l6.517-5.025c.274-.215.612-.333.96-.333.487 0 .962.236 1.258.633.528.707.39 1.714-.296 2.25l-7.024 5.421c-.288 3.214-5.502 5.41-8.945 5.69v5.828h32.74V0H18z"/>
            <ellipse cx="9.267" cy="8.036" rx="3.696" ry="3.75"/>
        </g>
    </g>
    </g>
</svg>
