<svg xmlns="http://www.w3.org/2000/svg" width="24" height="24" fill="none" viewBox="0 0 24 24">
    <path fill="#1D4082" d="M24 22.366V3.382v-.024c-.03-.698-.565-1.247-1.25-1.262-.168-.003-.333 0-.5 0h-2.164V.598c0-.314-.266-.612-.579-.597h-2.855c-.312 0-.578.274-.578.597v1.498H7.926V.598C7.91.275 7.67 0 7.347 0H4.492c-.312 0-.578.274-.578.597v1.495c-.886-.003-1.77-.015-2.656.003C.642 2.108.101 2.559.018 3.2.005 3.29 0 3.376 0 3.466v19.163c0 .11.006.214.023.325.101.609.642 1.033 1.227 1.045.127.003.251 0 .378 0h21.116c.573-.012 1.1-.415 1.22-1.003.044-.21.035-.421.035-.63zM5.07 1.194H6.77v2.61H5.07v-2.61zm13.127 11.188l-.362.367-2.43 2.477c.012.084.027.164.038.248.188 1.239.376 2.48.561 3.72.03.184-.008.348-.156.47-.142.117-.327.12-.483.037-.147-.081-.298-.162-.445-.245-.972-.529-1.947-1.063-2.919-1.588l-.231.122-3.142 1.71c-.159.087-.338.075-.483-.035-.15-.117-.182-.29-.156-.472l.078-.525.52-3.442-.207-.212c-.862-.877-1.724-1.755-2.583-2.632-.214-.218-.14-.693.19-.75.165-.026.333-.053.498-.083 1.11-.185 2.221-.37 3.332-.552.05-.099.099-.2.145-.302.552-1.134 1.105-2.268 1.654-3.402.047-.099.133-.165.232-.195h.003c.003 0 .005 0 .005-.002.018-.006.032-.01.053-.012.017-.003.037-.006.057-.006H12.022c.02 0 .037.003.057.006.018.003.035.009.052.012l.006.002h.003l.026.01c.087.035.162.098.205.185.078.158.156.319.232.477l1.57 3.227.324.053 3.503.582c.336.057.41.535.197.75zm.732-8.579H17.23V1.194h1.698v2.61z"/>
</svg>
