<svg xmlns="http://www.w3.org/2000/svg" width="206" height="36" viewBox="0 0 206 36">
    <defs>
        <linearGradient id="y1mkwt8yca" x1="110.89%" x2="-21.419%" y1="83.186%" y2="4.185%">
            <stop offset="0%" stop-color="#FFF"/>
            <stop offset="100%" stop-color="#BDBDBD"/>
        </linearGradient>
        <linearGradient id="9ui3nn6mcb" x1="65.659%" x2="34.236%" y1="57.75%" y2="30.878%">
            <stop offset="0%" stop-color="#FFF"/>
            <stop offset="100%" stop-color="#C2C2C2"/>
        </linearGradient>
        <linearGradient id="qzowk47ikc" x1="94.37%" x2="-9.61%" y1="86.887%" y2="19.633%">
            <stop offset="0%" stop-color="#FFF"/>
            <stop offset="100%" stop-color="#9F9F9F"/>
        </linearGradient>
        <linearGradient id="e2ao6vwtmd" x1="110.89%" x2="-21.419%" y1="55.083%" y2="42.982%">
            <stop offset="0%" stop-color="#FFF"/>
            <stop offset="100%" stop-color="#BDBDBD"/>
        </linearGradient>
        <linearGradient id="j3boy55tif" x1=".014%" x2="100.108%" y1="50.836%" y2="50.836%">
            <stop offset="0%" stop-color="#ED1D32"/>
            <stop offset="100%" stop-color="#7F132A"/>
        </linearGradient>
        <filter id="pqotgbjlae">
            <feColorMatrix in="SourceGraphic" values="0 0 0 0 1.000000 0 0 0 0 1.000000 0 0 0 0 1.000000 0 0 0 1.000000 0"/>
        </filter>
    </defs>
    <g fill="none" fill-rule="evenodd">
        <g fill-rule="nonzero">
            <path fill="#A9A9A9" d="M12.26 13.488l-1.423.062C9.944 11.33 8.61 7.98 7.717 5.763l-1.25-3.094c-.034-.088-.069-.185-.112-.318l1.864 1.06.113.319c.416 1.034.832 2.06 1.248 3.093.902 2.228 1.795 4.446 2.68 6.665"/>
            <path fill="url(#y1mkwt8yca)" d="M10.204 8.706c-1.17-2.492-2.774-4.64-4.898-6.364C4.179 1.432 2.991.636 1.665.062L.026 3.88c.165.027.33.053.494.089 3.78.742 6.97 2.536 9.511 5.506.2.23.399.46.59.698l.13-.08c-.191-.468-.338-.936-.547-1.387z" transform="translate(33.206 10.164)"/>
            <g>
                <path fill="#A8A8A8" d="M16.715 23.758l-1.864-1.06c.105-.248.183-.433.26-.628l3.72-9.068c.017-.045.035-.089.043-.133l1.864 1.06c-.017.045-.026.09-.043.133l-3.72 9.069c-.069.194-.155.38-.26.627M20.747 13.93l-1.864-1.061c.824-1.997 1.647-4.004 2.47-6.001l1.865 1.06c-.824 2.007-1.647 4.004-2.471 6.002" transform="translate(6.329)"/>
                <g fill="#A8A8A8">
                    <path d="M1.89 7.928L.026 6.868c.139-.3.277-.601.434-.884l1.864 1.06c-.157.292-.304.584-.434.884" transform="translate(6.329) translate(21.328)"/>
                    <path d="M2.315 7.053L.45 5.993c.32-.593.667-1.158 1.066-1.67l1.864 1.06c-.39.512-.745 1.07-1.066 1.67M3.381 5.374l-1.864-1.06c.321-.425.66-.814 1.032-1.185l1.864 1.06c-.364.372-.711.77-1.032 1.185" transform="translate(6.329) translate(21.328)"/>
                    <path d="M4.413 4.198l-1.864-1.06c.355-.354.737-.69 1.136-.99l1.864 1.06c-.4.3-.78.637-1.136.99M5.557 3.208l-1.864-1.06c.451-.336.92-.645 1.43-.92L6.989 2.29c-.512.274-.988.575-1.43.92M6.98 2.28L5.114 1.22l.009-.01C5.653.92 6.199.69 6.745.505l1.864 1.06c-.555.186-1.092.416-1.621.708 0 .008 0 .008-.009.008" transform="translate(6.329) translate(21.328)"/>
                    <path d="M8.618 1.573L6.754.513c.737-.239 1.5-.39 2.289-.46l1.864 1.06c-.79.063-1.552.222-2.29.46" transform="translate(6.329) translate(21.328)"/>
                </g>
                <path fill="#A9A9A9" d="M14.002 33.34l-1.864-1.061c-.052-.027-.096-.08-.13-.168-1.83-4.552-3.659-9.095-5.497-13.638-.017-.044-.026-.089-.026-.097l1.864 1.06c.009.018.009.062.026.097 1.83 4.543 3.667 9.086 5.497 13.638.043.089.086.142.13.168" transform="translate(6.329)"/>
                <g fill="#A8A8A8">
                    <path d="M1.933 2.9L.07 1.837c.989-.265 1.968-.486 2.94-.795.095-.027.19-.062.277-.088l1.864 1.06c-.095.027-.19.062-.278.089-.962.309-1.95.539-2.939.795" transform="translate(6.329) translate(6.416 16.528)"/>
                    <path d="M5.159 2.024L3.295.964C4.17.68 5.037.335 5.948 0l1.864 1.06c-.91.328-1.778.672-2.653.964" transform="translate(6.329) translate(6.416 16.528)"/>
                </g>
                <g>
                    <path fill="url(#9ui3nn6mcb)" d="M26.417 1.22c-2.306 1.255-3.997 3.155-5.106 5.656-.824 1.998-1.648 4.004-2.471 6.002-.018.044-.026.088-.044.132l-3.72 9.069c-.077.194-.155.38-.26.627-.849-2.112-1.672-4.154-2.487-6.169-1.015.362-1.969.743-2.94 1.052-.97.3-1.95.53-2.939.795.009.018.009.062.026.098 1.83 4.543 3.668 9.086 5.497 13.638.078.203.2.212.373.203l2.34-.186c.755-.062 1.518-.115 2.28-.159.252-.018.356-.124.452-.362 2.115-5.17 4.23-10.341 6.355-15.512.59-1.432 1.188-2.855 1.777-4.287.529-1.281 1.05-2.554 1.578-3.836.026-.08.043-.168.07-.238.71-1.742 1.43-3.492 2.14-5.233.33-.804.651-1.6.998-2.44-1.387.098-2.688.47-3.919 1.15z" transform="translate(6.329) translate(1.907 1.06)"/>
                    <path fill="url(#qzowk47ikc)" d="M9.892 10.51c-.268-.673-.555-1.344-.806-2.025-1.066-2.846-2.922-4.79-5.67-5.719C2.332 2.404 1.196 2.28 0 2.36c.043.124.078.22.113.318L1.36 5.772c.893 2.218 1.786 4.445 2.68 6.664.051 0 .103.009.164 0h.035c1.682-.3 3.303-.875 4.915-1.538.234-.115.486-.265.737-.389z" transform="translate(6.329) translate(1.907 1.06)"/>
                </g>
                <g>
                    <path fill="#888" d="M1.899 1.123L.035.062C1.24-.018 2.367.097 3.45.468c.442.15.867.327 1.265.53L6.58 2.06c-.398-.203-.823-.38-1.265-.53-1.075-.371-2.211-.495-3.416-.406" transform="translate(6.329) translate(0 2.298)"/>
                    <path fill="#00346E" d="M6.59 2.06L4.724.998c.121.062.234.124.347.185l1.864 1.061c-.113-.07-.234-.133-.347-.186" transform="translate(6.329) translate(0 2.298)"/>
                </g>
            </g>
            <path fill="url(#e2ao6vwtmd)" d="M18.926 11.278c-.737.265-1.49.495-2.237.743-.268.114-.537.238-.814.335-1.726.557-3.477 1.026-5.29 1.202-.068.01-.138-.008-.207-.017-1.119.15-2.237.124-3.347-.07-2.635-.452-4.942-1.46-6.398-3.916-.121-.195-.32-.345-.486-.513l-.13.08c.07.212.104.433.2.627.373.734.72 1.485 1.153 2.183.745 1.185 1.465 2.404 2.35 3.474 1.915 2.307 4.516 3.252 7.403 3.456 2.055.141 4.067-.168 6.035-.787 2.106-.654 6.788-2.121 6.788-2.121s1.916-4.702 2.775-6.691c-1.128.08-.018 0-1.136.15-2.298.3-4.483 1.096-6.659 1.865z"/>
        </g>
        <g>
            <g filter="url(#pqotgbjlae)" transform="translate(50)">
                <g fill-rule="nonzero">
                    <path fill="#1C3664" d="M16.2 2.426L10.093 18.123 6.133 18.123 0.052 2.426 4.399 2.426 8.255 12.643 12.189 2.426z" transform="translate(0 .093)"/>
                    <path fill="url(#j3boy55tif)" d="M17.365 3.967c-.44-.428-.647-.97-.647-1.627 0-.656.207-1.17.647-1.626.44-.429 1.009-.657 1.708-.657.698 0 1.268.2 1.708.628.44.4.647.942.647 1.57 0 .685-.207 1.227-.647 1.684-.44.428-1.01.656-1.708.656-.7.029-1.268-.171-1.708-.628z" transform="translate(0 .093)"/>
                    <path fill="#1C3664" d="M35.221 1.484v16.64h-3.675v-1.2c-.724.942-1.785 1.399-3.235 1.399-1.009 0-1.915-.257-2.743-.77-.828-.514-1.475-1.256-1.967-2.198-.491-.942-.724-2.055-.724-3.31 0-1.257.233-2.37.724-3.312.492-.941 1.14-1.683 1.967-2.197.828-.514 1.734-.77 2.743-.77 1.32 0 2.33.427 3.054 1.255V1.484h3.856zM30.77 14.156c.44-.514.647-1.227.647-2.14 0-.885-.207-1.599-.647-2.112-.414-.514-.984-.771-1.656-.771-.673 0-1.243.257-1.657.77-.44.514-.647 1.2-.647 2.113s.207 1.626.647 2.14c.44.514.984.77 1.657.77.672 0 1.216-.256 1.656-.77zM48.16 7.107c.829.884 1.243 2.254 1.243 4.052v6.936h-3.856v-6.25c0-1.656-.596-2.484-1.812-2.484-.673 0-1.19.229-1.604.714-.389.485-.596 1.199-.596 2.14v5.88H37.68V1.455h3.855V7.05c.415-.429.906-.771 1.476-1 .569-.228 1.19-.342 1.837-.342 1.372.057 2.484.514 3.312 1.399zM63.222 5.965l-4.736 12.643c-.543 1.485-1.242 2.54-2.044 3.14-.803.6-1.786.913-2.925.913-.595 0-1.164-.114-1.76-.314-.595-.2-1.06-.456-1.423-.799l1.346-2.968c.207.228.466.4.776.514.31.114.621.2.932.2.362 0 .673-.086.906-.257.233-.172.44-.429.595-.771l-4.71-12.301h3.96l2.69 7.42 2.718-7.42h3.675zM72.72 7.164c.957.913 1.449 2.34 1.449 4.224v6.735H70.57v-1.57c-.543 1.17-1.63 1.77-3.26 1.77-.854 0-1.605-.171-2.226-.485-.62-.343-1.087-.77-1.423-1.342-.31-.57-.466-1.198-.466-1.912 0-1.141.388-2.055 1.19-2.683.803-.627 2.045-.941 3.701-.941h2.2c-.078-1.285-.854-1.941-2.33-1.941-.517 0-1.06.085-1.604.285-.543.2-1.01.457-1.371.77l-1.294-2.882c.62-.456 1.345-.799 2.225-1.056.88-.257 1.76-.37 2.64-.37 1.811 0 3.209.456 4.166 1.398zm-3.158 8.105c.337-.228.57-.6.725-1.056v-1.056H68.63c-1.113 0-1.683.4-1.683 1.227 0 .371.13.685.389.885.258.229.62.343 1.06.343.44 0 .829-.086 1.165-.343zM78.439 17.952c-1.087-.314-1.967-.742-2.64-1.256l1.32-3.282c.647.457 1.371.828 2.225 1.113.828.286 1.657.428 2.485.428 1.552 0 2.329-.428 2.329-1.284 0-.457-.233-.77-.673-.999-.44-.228-1.139-.457-2.122-.685-1.061-.257-1.967-.514-2.691-.828-.725-.285-1.346-.77-1.838-1.398-.517-.628-.776-1.513-.776-2.597 0-.942.233-1.827.698-2.598.466-.77 1.19-1.37 2.123-1.826.931-.457 2.096-.685 3.467-.685.932 0 1.864.114 2.77.342.905.229 1.707.571 2.406 1.028L86.28 6.707c-1.346-.8-2.666-1.199-3.934-1.199-.802 0-1.371.143-1.76.4-.362.257-.543.6-.543 1.027 0 .428.207.742.647.942.44.2 1.139.428 2.096.657 1.087.256 1.993.513 2.692.827.698.314 1.32.742 1.837 1.399.518.628.776 1.484.776 2.597 0 .942-.233 1.798-.698 2.569-.466.77-1.19 1.37-2.122 1.826-.958.457-2.097.685-3.442.685-1.19 0-2.303-.171-3.39-.485zM98.624 7.164c.958.913 1.45 2.34 1.45 4.224v6.735h-3.598v-1.57c-.543 1.17-1.63 1.77-3.26 1.77-.855 0-1.605-.171-2.226-.485-.621-.343-1.087-.77-1.424-1.342-.31-.57-.465-1.198-.465-1.912 0-1.141.388-2.055 1.19-2.683.802-.627 2.045-.941 3.7-.941h2.2c-.077-1.285-.854-1.941-2.329-1.941-.517 0-1.06.085-1.604.285-.544.2-1.01.457-1.372.77l-1.294-2.882c.621-.456 1.346-.799 2.226-1.056.88-.257 1.76-.37 2.64-.37 1.811 0 3.209.456 4.166 1.398zm-3.131 8.105c.336-.228.57-.6.724-1.056v-1.056h-1.656c-1.113 0-1.682.4-1.682 1.227 0 .371.13.685.388.885.259.229.621.343 1.061.343.44 0 .802-.086 1.165-.343zM114.384 1.484v16.64h-3.675v-1.2c-.724.942-1.785 1.399-3.234 1.399-1.01 0-1.915-.257-2.744-.77-.828-.514-1.475-1.256-1.966-2.198-.492-.942-.725-2.055-.725-3.31 0-1.257.233-2.37.725-3.312.491-.941 1.138-1.683 1.966-2.197.829-.514 1.734-.77 2.744-.77 1.32 0 2.329.427 3.053 1.255V1.484h3.856zm-4.45 12.672c.439-.514.646-1.227.646-2.14 0-.885-.207-1.599-.647-2.112-.414-.514-.983-.771-1.656-.771-.673 0-1.242.257-1.656.77-.44.514-.647 1.2-.647 2.113s.207 1.626.647 2.14c.44.514.983.77 1.656.77.673 0 1.216-.256 1.656-.77zM127.324 7.107c.828.884 1.242 2.254 1.242 4.052v6.936h-3.83v-6.25c0-1.656-.595-2.484-1.812-2.484-.673 0-1.19.229-1.604.714-.388.485-.595 1.199-.595 2.14v5.88h-3.856V1.455h3.856V7.05c.414-.429.905-.771 1.475-1 .569-.228 1.19-.342 1.837-.342 1.372.057 2.459.514 3.287 1.399zM139.875 7.164c.957.913 1.45 2.34 1.45 4.224v6.735h-3.598v-1.57c-.544 1.17-1.63 1.77-3.26 1.77-.855 0-1.605-.171-2.226-.485-.621-.343-1.087-.77-1.424-1.342-.31-.57-.466-1.198-.466-1.912 0-1.141.389-2.055 1.19-2.683.803-.627 2.045-.941 3.702-.941h2.2c-.078-1.285-.855-1.941-2.33-1.941-.517 0-1.06.085-1.604.285-.544.2-1.01.457-1.372.77l-1.294-2.882c.621-.456 1.346-.799 2.226-1.056.88-.257 1.76-.37 2.64-.37 1.81 0 3.208.456 4.166 1.398zm-3.131 8.105c.336-.228.569-.6.724-1.056v-1.056h-1.656c-1.113 0-1.682.4-1.682 1.227 0 .371.13.685.388.885.259.229.621.343 1.061.343.44 0 .828-.086 1.165-.343zM154.238 7.107c.828.884 1.242 2.254 1.242 4.052v6.936h-3.856v-6.25c0-1.656-.595-2.484-1.812-2.484-.673 0-1.19.229-1.604.714-.388.485-.595 1.199-.595 2.14v5.88h-3.856V5.936h3.674V7.25c.44-.485.958-.856 1.553-1.141.595-.257 1.242-.4 1.941-.4 1.372.057 2.484.514 3.313 1.399z" transform="translate(0 .093)"/>
                </g>
            </g>
            <path fill="#FFF" fill-rule="nonzero" d="M17.957 5.807H21.324V18.378H17.957z" transform="translate(50)"/>
        </g>
        <text fill="#FFF" font-family="Montserrat-SemiBold, Montserrat" font-size="8" font-weight="500" letter-spacing=".091">
            <tspan x="52" y="34">To Bring Life Changing Tution to All</tspan>
        </text>
    </g>
</svg>
