<svg xmlns="http://www.w3.org/2000/svg" xmlns:xlink="http://www.w3.org/1999/xlink" width="1366" height="768" viewBox="0 0 1366 768">
    <defs>
        <linearGradient id="5yj7kv20yb" x1="50%" x2="50%" y1="13.322%" y2="100%">
            <stop offset="0%" stop-color="#FFF5F0"/>
            <stop offset="100%" stop-color="#FCCFBC"/>
        </linearGradient>
        <linearGradient id="k1qxgbq8vd" x1="110.89%" x2="-21.419%" y1="52.388%" y2="46.703%">
            <stop offset="0%" stop-color="#ED1D32"/>
            <stop offset="100%" stop-color="#7F132A"/>
        </linearGradient>
        <path id="1kj69pskza" d="M0 0H1366V768H0z"/>
    </defs>
    <g fill="none" fill-rule="evenodd">
        <mask id="vi8wig6zrc" fill="#fff">
            <use xlink:href="#1kj69pskza"/>
        </mask>
        <use fill="url(#5yj7kv20yb)" xlink:href="#1kj69pskza"/>
        <circle cx="70.5" cy="778.5" r="133.5" fill="#E85D8F" mask="url(#vi8wig6zrc)" opacity=".311"/>
        <ellipse cx="1355.5" cy="496" stroke="#E85D8F" stroke-width="12" mask="url(#vi8wig6zrc)" opacity=".201" rx="40.5" ry="40"/>
        <circle cx="1297.5" cy="45.5" r="133.5" fill="#80C6FF" mask="url(#vi8wig6zrc)" opacity=".571"/>
        <circle cx="253.5" cy="31.5" r="89.5" fill="#FFD22E" mask="url(#vi8wig6zrc)" opacity=".501"/>
        <ellipse cx="113.5" cy="130" stroke="#64B2FF" stroke-width="12" mask="url(#vi8wig6zrc)" opacity=".301" rx="40.5" ry="40"/>
        <path fill="url(#k1qxgbq8vd)" fill-rule="nonzero" d="M952.403 583c1.777 1.79 3.928 3.39 5.238 5.463 15.713 26.183 40.593 36.92 69.027 41.724 11.972 2.072 24.037 2.354 36.103.753.748.094 1.497.283 2.245.188 19.548-1.883 38.442-6.875 57.055-12.809 2.993-1.036 5.892-2.354 8.792-3.579 8.043-2.637 16.18-5.086 24.131-7.911 23.477-8.194 47.047-16.671 71.833-19.873 12.066-1.601 47.104-9.08 100.173 8.665l-1.333-.442.232-.529c13.958 5.975 26.495 14.187 38.389 23.592l.963.765c22.955 18.409 40.288 41.35 52.937 67.972 2.249 4.814 3.842 9.818 5.903 14.821l-1.405.85c-2.062-2.549-4.04-5.147-6.372-7.458-55.233-54.765-97.932-59.796-106.645-60.47-.226.51-.347.778-.347.778s-56.62-5.313-173.409 43.757c-21.231 6.593-42.93 9.89-65.098 8.382-31.146-2.166-59.206-12.244-79.877-36.826-9.54-11.396-17.303-24.394-25.347-37.015-4.677-7.44-8.418-15.446-12.44-23.263-1.029-2.072-1.403-4.427-2.151-6.687l1.403-.848z" mask="url(#vi8wig6zrc)" opacity=".146" transform="rotate(161 1187.546 642.825)"/>
    </g>
</svg>
