<svg xmlns="http://www.w3.org/2000/svg" width="79" height="233" viewBox="0 0 79 233">
    <defs>
        <linearGradient id="wccm53wkia" x1="110.89%" x2="-21.419%" y1="52.402%" y2="46.684%">
            <stop offset="0%" stop-color="#ED1D32"/>
            <stop offset="100%" stop-color="#7F132A"/>
        </linearGradient>
    </defs>
    <path fill="url(#wccm53wkia)" d="M221.482 39.808c1.13 1.142 2.497 2.164 3.33 3.486 9.987 16.707 25.802 23.558 43.875 26.623 7.61 1.323 15.28 1.503 22.95.481.475.06.95.18 1.426.12 12.426-1.201 24.435-4.387 36.266-8.173 1.903-.661 3.746-1.502 5.589-2.284 5.113-1.682 10.285-3.245 15.339-5.048 14.922-5.229 29.904-10.638 45.66-12.68 7.669-1.023 29.94-5.794 63.673 5.528l-.798-.265.19-.43c8.83 3.784 16.768 8.975 24.298 14.92l.806.64c14.644 11.762 25.701 26.418 33.77 43.427 1.435 3.076 2.45 6.273 3.766 9.47-.3.18-.598.361-.897.542-1.315-1.628-2.577-3.288-4.064-4.765-35.301-35.054-62.577-38.215-68.063-38.636l-.244.544s-35.99-3.39-110.226 27.921c-13.496 4.207-27.289 6.31-41.379 5.349-19.798-1.382-37.634-7.813-50.773-23.499-6.064-7.272-10.998-15.565-16.111-23.619-2.973-4.748-5.351-9.856-7.907-14.844-.654-1.322-.892-2.825-1.368-4.267l.892-.541z" opacity=".145" transform="rotate(81 206.106 -115.204)"/>
</svg>
