<svg xmlns="http://www.w3.org/2000/svg" width="146" height="182" fill="none" viewBox="0 0 146 182">
    <path fill="#1D4082" d="M92.39 143.325c-.629 0-1.14-.51-1.14-1.138v-45.5c0-.627.511-1.137 1.14-1.137.63 0 1.141.51 1.141 1.138v45.499c0 .628-.51 1.138-1.14 1.138zM87.828 97.825h-6.844c-.63 0-1.14-.51-1.14-1.138 0-.627.51-1.137 1.14-1.137h6.844c.63 0 1.14.51 1.14 1.138 0 .627-.51 1.137-1.14 1.137zM74.141 97.825H71.86c-.568 0-1.05-.416-1.13-.976l-2.28-15.925c-.049-.328.05-.657.266-.905.217-.248.532-.394.863-.394h6.843c.331 0 .646.143.863.391.216.248.315.58.267.906L75.27 96.847c-.08.562-.56.978-1.129.978zM72.85 95.55h.303l1.955-13.65h-4.215l1.957 13.65z"/>
    <path fill="#1D4082" d="M78.704 88.725c-.048 0-.1-.002-.15-.01-.432-.056-.794-.354-.931-.766l-2.282-6.825c-.162-.487.023-1.021.45-1.306l6.844-4.55c.35-.232.8-.254 1.172-.056.367.195.6.58.6 1v4.55c0 .226-.066.444-.192.63l-4.562 6.826c-.215.318-.57.507-.95.507zm-.924-7.498l1.27 3.794 3.076-4.602v-2.082l-4.346 2.89zM67.297 88.725c-.379 0-.735-.189-.95-.507l-4.562-6.825c-.125-.187-.191-.405-.191-.63v-4.55c0-.421.232-.806.602-1.004.372-.198.819-.175 1.173.057l6.843 4.55c.43.284.614.82.45 1.306l-2.282 6.825c-.139.412-.5.71-.93.767-.053.009-.105.011-.153.011zm-3.422-8.306l3.077 4.602 1.271-3.794-4.348-2.89v2.082z"/>
    <path fill="#C4182C" d="M93.868 59.19c-.278 0-.556-.1-.778-.304-.46-.428-.486-1.147-.057-1.608 4.734-5.067 7.341-11.673 7.341-18.603 0-6.927-2.607-13.536-7.34-18.603-.43-.46-.404-1.18.056-1.608.461-.428 1.182-.403 1.613.057 5.129 5.492 7.953 12.649 7.953 20.154 0 7.508-2.825 14.665-7.95 20.152-.226.241-.532.364-.838.364z"/>
    <path fill="#C4182C" d="M86.635 56.613c-.333 0-.661-.143-.887-.42-.397-.49-.322-1.206.169-1.602 4.838-3.91 7.614-9.712 7.614-15.916 0-6.204-2.776-12.005-7.614-15.916-.49-.396-.566-1.112-.17-1.602.398-.486 1.12-.56 1.605-.168 5.376 4.348 8.46 10.793 8.46 17.686 0 6.893-3.084 13.338-8.46 17.684-.21.17-.464.254-.717.254zM78.712 56.875h-2.3c-1.881 0-3.412-1.526-3.412-3.403V23.878c0-1.877 1.53-3.403 3.413-3.403h2.3c1.881 0 3.412 1.526 3.412 3.403v29.596c0 1.875-1.53 3.401-3.413 3.401zm-2.3-34.125c-.622 0-1.13.505-1.13 1.128v29.596c0 .62.508 1.126 1.13 1.126h2.3c.623 0 1.132-.505 1.132-1.128V23.878c0-.623-.509-1.128-1.132-1.128h-2.3z"/>
    <path fill="#C4182C" d="M74.14 52.74c-.1 0-.2-.015-.3-.042l-18.25-4.964c-.496-.134-.84-.582-.84-1.096V30.713c0-.515.344-.963.84-1.097l18.25-4.964c.349-.091.711-.02.994.193.283.216.447.55.447.904v25.85c0 .355-.164.69-.447.904-.2.154-.447.236-.693.236zm-17.109-6.971L73 50.11V27.24l-15.969 4.343v14.187z"/>
    <path fill="#C4182C" d="M55.89 47.775h-4.564c-4.403 0-7.982-3.57-7.982-7.96v-2.282c0-4.389 3.579-7.958 7.982-7.958h4.565c.63 0 1.14.51 1.14 1.137v15.926c0 .627-.51 1.137-1.14 1.137zM51.327 31.85c-3.144 0-5.701 2.55-5.701 5.685v2.282c0 3.133 2.557 5.683 5.7 5.683h3.425V31.85h-3.424zM80.984 45.5c-.21 0-.417-.057-.6-.17-.335-.208-.54-.574-.54-.968V32.987c0-.393.205-.76.54-.966.334-.207.758-.228 1.11-.05l4.562 2.275c.387.193.632.587.632 1.017v6.825c0 .43-.245.823-.63 1.016l-4.563 2.275c-.162.08-.337.121-.51.121zm1.141-10.672v7.694l2.281-1.137v-5.42l-2.281-1.137z"/>
    <path fill="#C4182C" d="M73 75.075c-20.125 0-36.5-16.33-36.5-36.4s16.375-36.4 36.5-36.4 36.5 16.33 36.5 36.4-16.375 36.4-36.5 36.4zM73 4.55c-18.868 0-34.219 15.308-34.219 34.125S54.131 72.8 73 72.8c18.868 0 34.219-15.308 34.219-34.125C107.219 19.859 91.869 4.55 73 4.55z"/>
    <path fill="#1D4082" d="M103.797 143.325H42.203c-.63 0-1.14-.51-1.14-1.138V94.408c0-8.151 6.65-14.783 14.823-14.783h6.848c.63 0 1.141.51 1.141 1.138 0 .627-.511 1.137-1.14 1.137h-6.849c-6.914 0-12.542 5.61-12.542 12.508v46.642h59.312V94.408c0-6.898-5.628-12.508-12.542-12.508h-6.848c-.63 0-1.141-.51-1.141-1.138 0-.627.511-1.137 1.14-1.137h6.849c8.174 0 14.824 6.632 14.824 14.783v47.779c0 .628-.512 1.138-1.141 1.138z"/>
    <path fill="#1D4082" d="M53.61 102.375c-.63 0-1.141-.51-1.141-1.138v-4.55c0-.627.51-1.137 1.14-1.137.63 0 1.141.51 1.141 1.138v4.549c0 .628-.511 1.138-1.14 1.138zM53.61 120.575c-.63 0-1.141-.51-1.141-1.138v-11.375c0-.627.51-1.137 1.14-1.137.63 0 1.141.51 1.141 1.137v11.375c0 .628-.511 1.138-1.14 1.138zM53.61 143.325c-.63 0-1.141-.51-1.141-1.138v-11.375c0-.627.51-1.137 1.14-1.137.63 0 1.141.51 1.141 1.137v11.375c0 .628-.511 1.138-1.14 1.138z"/>
</svg>
