<svg xmlns="http://www.w3.org/2000/svg" width="1366" height="768" fill="none" viewBox="0 0 1366 768">
    <path fill="url(#paint0_linear)" d="M0 0H1366V768H0z"/>
    <mask id="uluq4zld3a" width="1366" height="768" x="0" y="0" maskUnits="userSpaceOnUse">
        <path fill="#fff" d="M0 0H1366V768H0z"/>
    </mask>
    <g mask="url(#uluq4zld3a)">
        <circle cx="70.5" cy="778.5" r="133.5" fill="#5D8CE8" opacity=".311"/>
        <ellipse cx="1354.5" cy="497" stroke="#E85D8F" stroke-width="12" opacity=".201" rx="40.5" ry="40"/>
        <circle cx="1297.5" cy="45.5" r="133.5" fill="#80C6FF" opacity=".571"/>
        <circle cx="253.5" cy="31.5" r="89.5" fill="#FFD22E" opacity=".501"/>
        <ellipse cx="111.5" cy="127" stroke="#64B2FF" stroke-width="12" opacity=".301" rx="40.5" ry="40"/>
        <path fill="url(#paint1_linear)" fill-rule="evenodd" d="M1243.5 656.005c-4.53 3.375-9.06 6.751-13.46 10.257l-2.46 1.941c-18.71 14.76-37.53 29.605-58.99 40.236-.88.44-1.88.964-3.02 1.557-12.87 6.691-42.53 22.119-93.11 22.847-.02.192-.03.384-.05.576-15.55-1.135-30.45-4.99-45.13-10.218-27.702-9.933-51.56-25.98-72.187-47.034-2.246-2.323-4.285-4.791-6.343-7.281-1.326-1.606-2.661-3.22-4.063-4.812l1.052-1.26c.48.3.958.603 1.436.905 2.289 1.448 4.571 2.892 7.016 4.072 70.049 33.795 112.059 24.656 120.519 22.456.05-.556.08-.849.08-.849s55.26-13.41 149.71-97.83c17.93-13.146 37.38-23.327 58.83-29.12 30.15-8.092 59.96-7.698 87.51 8.815 10.74 6.467 20.65 14.422 30.51 22.341 1.84 1.473 3.67 2.944 5.51 4.405 5.23 4.215 10.06 8.921 14.87 13.622 1.49 1.446 2.97 2.893 4.46 4.324 1.07 1.05 1.91 2.301 2.77 3.566.46.692.93 1.387 1.44 2.057l-1.05 1.258c-.67-.334-1.38-.64-2.08-.947-1.65-.719-3.31-1.439-4.65-2.513-23.38-19.641-50.4-21.693-78.85-16.978-11.99 1.939-23.49 5.6-34.38 11.042-.18.039-.37.072-.56.105-.56.099-1.11.198-1.62.448-17.87 8.145-34.11 19.016-49.78 30.686-1.93 1.513-3.75 3.167-5.56 4.812-.53.48-1.06.96-1.59 1.435-2.25 1.704-4.51 3.391-6.78 5.079z" clip-rule="evenodd" opacity=".146"/>
    </g>
    <defs>
        <linearGradient id="paint0_linear" x1="90.986" x2="90.986" y1="102.309" y2="768" gradientUnits="userSpaceOnUse">
            <stop stop-color="#F0F9FF"/>
            <stop offset="1" stop-color="#BCDAFC"/>
        </linearGradient>
        <linearGradient id="paint1_linear" x1="727.626" x2="931.791" y1="837.66" y2="1084.17" gradientUnits="userSpaceOnUse">
            <stop stop-color="#1D2DED"/>
            <stop offset="1" stop-color="#133B7F"/>
        </linearGradient>
    </defs>
</svg>
