<svg xmlns="http://www.w3.org/2000/svg" width="750" height="500" fill="none" viewBox="0 0 750 500">
    <path fill="#AEC7FF" d="M276.5 164.5c8.6 0 16.2-5.9 21-13.1 4.8-7.1 7.4-15.5 10.9-23.3 7.7-17.5 19.8-33.1 35-44.8 9.7-7.5 21.3-13.6 33.5-13.2 10.9.4 20.8 5.8 31 9.6 15.3 5.7 32.4 7.9 48 3.1 14-4.3 25.7-13.8 38.4-21 14.3-8.1 30.4-13.5 46.9-13.6 16.5-.1 33.2 5.4 45.2 16.7 10.8 10.2 17 24.2 27.1 35.1 20.4 22.1 54.9 29.5 70.7 55.2 10.8 17.6 10.1 40.5 2.5 59.6-7.6 19.2-21.4 35.2-36 49.8-9.4 9.4-19.9 18.8-32.9 22-13.3 3.3-27.2-.4-40.4-3.8-19-4.9-39-9.3-58.2-5-13.9 3.1-26.3 10.4-39.4 16.1-22.3 9.6-47.4 14.3-71.2 9.1-23.8-5.1-45.9-21-54.9-43.6-4.1-10.2-5.3-21.5-9.7-31.5-21-47.4-36.2-53.8-63.3-46.6" opacity=".35"/>
    <path fill="#FF647A" d="M160.701 349.8s4.9-55.8-10.3-79.9c-13.9-22.1-35.4-30.8-78.9-44.2-6.2-1.9-13-3.3-17.9-8.7 4.5 12 6.9 24.4 9.3 36.6 18.9 99.3 97.8 96.2 97.8 96.2z"/>
    <path fill="#FF4C58" d="M113.101 324.3c3.7.3 7.5.8 11.2 1.5 3.8.6 7.5 1.4 11.3 2.4 3.8 1 7.5 2.1 11.3 3.6 3.7 1.5 7.5 3.1 11.1 5.3l-1.1.8c-.7-5.7-1.5-11.5-2.3-17.3-.8-5.8-1.7-11.5-2.7-17.3-1-5.8-2-11.5-3.1-17.3-1.1-5.8-2.4-11.5-3.9-17.3l1.4 4.3c.5 1.4.8 2.9 1.2 4.3.4 1.4.8 2.9 1.2 4.3.4 1.4.8 2.9 1.1 4.3 1.4 5.8 2.6 11.6 3.7 17.4 1.1 5.8 2 11.6 2.9 17.4.9 5.8 1.6 11.6 2.3 17.4l.2 1.6-1.3-.8c-3.5-2.1-7.1-3.8-10.8-5.3-3.7-1.5-7.4-2.8-11.1-3.9-3.7-1.1-7.5-2.1-11.2-2.9-3.9-1.1-7.6-1.8-11.4-2.5z"/>
    <path fill="#FF4C58" d="M101.001 306.7c3.8-.1 7.7 0 11.5.2 3.9.2 7.8.6 11.7 1.3 3.9.6 7.8 1.4 11.8 2.6 3.9 1.2 7.9 2.5 11.7 4.5l-1.1.9c-.7-3.9-1.5-7.8-2.3-11.7l-2.5-11.7c-.8-3.9-1.7-7.8-2.6-11.7-.8-3.9-1.8-7.8-2.7-11.7 1.3 3.9 2.4 7.8 3.5 11.7 1.1 3.9 2.1 7.8 3.1 11.7 1 3.9 1.9 7.8 2.8 11.7.9 3.9 1.7 7.8 2.4 11.8l.3 1.6-1.4-.7c-3.7-1.8-7.5-3.3-11.4-4.4-3.8-1.2-7.7-2.1-11.6-2.8-3.9-.8-7.8-1.4-11.6-1.8-3.9-.8-7.8-1.2-11.6-1.5z"/>
    <path fill="#FF4C58" d="M86.001 290.6c4-.4 8.2-.5 12.3-.6 4.1 0 8.3.2 12.5.6 4.2.4 8.4 1 12.6 1.7 4.2.8 8.6 2 12.8 4.2l-.8 1.6c-3.3-3.5-5.5-7.8-7.3-12-1.8-4.2-3.5-8.5-5-12.8-1.6-4.3-3-8.6-4.3-12.9-1.3-4.3-2.7-8.6-4.2-12.9 1.9 4.2 3.4 8.5 5 12.7 1.5 4.3 3.1 8.5 4.8 12.7 1.7 4.2 3.4 8.4 5.3 12.6 1.8 4.1 3.9 8.1 6.9 11.2l3.8 4-4.6-2.4c-3.9-2.1-8.1-3.3-12.2-4.1-4.2-.9-8.4-1.5-12.5-2-4.2-.5-8.3-.9-12.5-1.2-4.3-.2-8.4-.3-12.6-.4z"/>
    <path fill="#FF4C58" d="M88.7 276.2c2.6-.1 5.3-.1 7.9 0 2.7.1 5.3.3 8 .6s5.4.6 8 1.1c2.7.4 5.4 1 8.1 1.6l-.6 1.6c-1.2-1.4-2.3-2.9-3.3-4.4l-3-4.5c-2-3-3.8-6.1-5.7-9.2-1.9-3.1-3.7-6.2-5.4-9.3-1.7-3.2-3.5-6.3-5.1-9.5l11.7 18.1c1.9 3 3.9 6 5.9 9 2 3 4 6 6.2 8.6l1.7 2.1-2.3-.6c-2.7-.6-5.3-1.2-8-1.7s-5.3-1-8-1.4c-2.7-.4-5.3-.8-8-1.1-2.7-.4-5.4-.7-8.1-1z"/>
    <path fill="#FF4C58" d="M72.3 261.4c2.3-.5 4.6-.7 7-.7 2.4 0 4.8.1 7.2.3 2.4.2 4.9.6 7.3 1.1 2.4.4 4.9 1 7.301 1.6l-.6 1.6c-2.1-2.2-4.1-4.4-6.2-6.6-2-2.3-4.1-4.6-5.9-7.1-1.9-2.5-3.6-5-5.3-7.6-1.6-2.6-3.2-5.3-4.6-8 1.8 2.5 3.5 5 5.3 7.5 1.8 2.5 3.6 4.9 5.6 7.2 1.9 2.3 3.9 4.6 6 6.7l6.2 6.6 2.2 2.3-2.8-.7c-2.4-.6-4.8-1.2-7.3-1.7-2.4-.5-4.8-1-7.2-1.4-2.4-.4-4.8-.7-7.2-.9-2.2-.2-4.6-.2-7-.2z"/>
    <path fill="#FF4C58" d="M64.1 245.6c.9-.6 2-.9 3.1-1.1 1.1-.2 2.3-.2 3.4-.1 1.2.1 2.3.4 3.5.7.6.2 1.2.4 1.8.5l1.8.7-.4 1.8-1.6-.9c-.5-.2-1.1-.5-1.6-.7-1.1-.4-2.2-.8-3.3-1.1-1.1-.3-2.2-.4-3.4-.4-1.2.1-2.3.2-3.3.6z"/>
    <path fill="#FF4C58" d="M160.5 349.9c-1.1-3.1-2.1-6.2-3.3-9.2-1.2-3-2.5-6-3.8-9-2.7-5.9-5.7-11.6-9.1-17.1-3.4-5.5-6.9-10.9-10.7-16.2-3.7-5.2-7.8-10.1-12.3-14.6-8.9-9.1-19-16.7-29.2-23.9-5.1-3.7-10.3-7.4-15-11.9-2.4-2.2-4.6-4.7-6.6-7.3-2-2.7-3.7-5.6-5-8.6-.1-.1 0-.3.1-.3s.2 0 .3.2c2.8 5.9 7.2 10.9 12 15s10 7.5 15.2 10.9c10.4 6.8 20.8 14.1 30.4 23.1 4.8 4.5 9.4 9.4 13.4 14.8 4 5.3 7.7 11 11 16.9 6.5 11.8 11.2 24.6 13.1 37.3 0 .1-.1.2-.2.2-.2-.1-.3-.2-.3-.3z"/>
    <path fill="#443DC4" d="M216.001 368.3s-46.7-30.7-53.8-58c-6.5-25 3-47.8 25.5-91.5 3.2-6.3 7.3-12.6 6.8-19.9 5.9 11.1 13.5 20.8 21.2 30.3 62.3 76.8.3 139.1.3 139.1z"/>
    <path fill="#5F52DC" d="M232.301 313.7c-2.6 3.2-5 6.6-7.4 10-2.4 3.4-4.6 7-6.7 10.7-2.1 3.7-4.1 7.4-5.8 11.4-1.7 3.9-3.2 8-4.3 12.3l1.5-.5c-3.9-4.1-7.8-8.4-11.6-12.6-3.8-4.3-7.6-8.5-11.3-12.9-3.7-4.4-7.4-8.8-11-13.3-3.6-4.5-7.1-9.1-10.4-13.9l2.3 3.8c.8 1.3 1.6 2.5 2.4 3.7l2.4 3.6c.8 1.2 1.6 2.4 2.5 3.6 3.4 4.7 7 9.3 10.6 13.8 3.7 4.5 7.4 8.8 11.2 13.1 3.8 4.3 7.7 8.5 11.6 12.6l1.1 1.1.4-1.6c1-4.1 2.4-8.2 4-12.1 1.6-3.9 3.4-7.7 5.4-11.4 1.9-3.7 4.1-7.3 6.2-10.9l6.9-10.5z"/>
    <path fill="#5F52DC" d="M227.901 292.9c-3 3-5.8 6.2-8.5 9.5s-5.4 6.7-7.8 10.3c-2.5 3.6-4.8 7.3-6.9 11.2-2.1 3.9-4 8-5.4 12.3l1.5-.3c-2.5-3-4.9-6.1-7.3-9.2l-7.2-9.3c-2.4-3.1-4.7-6.2-7.1-9.4-2.4-3.1-4.7-6.3-7-9.5 2 3.4 4.2 6.8 6.3 10.1 2.2 3.3 4.4 6.6 6.7 9.8 2.3 3.2 4.6 6.4 7 9.5 2.4 3.2 4.8 6.2 7.2 9.3l1 1.2.5-1.6c1.4-4.2 3.2-8.2 5.2-12 2-3.9 4.2-7.6 6.6-11.2 2.3-3.6 4.8-7.1 7.4-10.6 2.5-3.3 5.1-6.7 7.8-10.1z"/>
    <path fill="#5F52DC" d="M226.701 270.8c-3.4 3-6.6 6.3-9.7 9.6-3.1 3.4-6.1 6.9-9 10.5-2.9 3.7-5.6 7.4-8.2 11.3-2.6 4-4.9 8.2-6.4 13l1.8.3c-.2-4.8-1.9-9.3-3.7-13.4-1.9-4.1-3.9-8.1-6-12-2.1-3.9-4.4-7.8-6.7-11.5-2.3-3.8-4.6-7.5-6.7-11.4 1.8 4.1 3.9 8 6 12 2.1 3.9 4.2 7.8 6.2 11.8 2 4 3.9 8 5.7 12.1 1.8 4 3.3 8.3 3.4 12.6l.2 5.6 1.6-5.3c1.4-4.5 3.6-8.6 6.1-12.5 2.5-3.9 5.2-7.7 7.9-11.4s5.6-7.4 8.5-10.9c2.9-3.6 6-7 9-10.4z"/>
    <path fill="#5F52DC" d="M213.601 264.1c-2.1 2-4 4.2-6 6.4-1.9 2.2-3.8 4.5-5.6 6.8-1.8 2.3-3.5 4.8-5.2 7.2-1.7 2.5-3.3 5-4.9 7.5l1.7.5c-.2-1.9-.5-3.6-.9-5.4-.4-1.8-.8-3.5-1.2-5.2-.9-3.5-1.8-6.9-2.8-10.3-1-3.4-2-6.8-3.1-10.2-1.1-3.4-2.2-6.7-3.5-10.1l5.2 20.7c.9 3.5 1.7 6.9 2.5 10.4.8 3.4 1.6 7 2 10.3l.3 2.7 1.3-2.2c1.5-2.6 3.1-5.1 4.7-7.6s3.3-4.9 4.9-7.4c1.7-2.4 3.4-4.8 5.2-7.2 1.8-2.2 3.6-4.6 5.4-6.9z"/>
    <path fill="#5F52DC" d="M214.601 241.6c-2.1 1.5-4 3.4-5.9 5.2-1.8 1.9-3.6 4-5.2 6.1-1.7 2.1-3.2 4.4-4.7 6.6-1.5 2.3-2.9 4.6-4.3 6.9l1.7.6c-.1-3-.3-6.1-.4-9.2-.2-3.1-.5-6.1-1-9.2-.5-3.1-1.1-6.1-1.9-9-.8-2.9-1.7-5.9-2.7-8.7.6 3 1.3 6 1.8 9 .6 3 1 6 1.4 9 .3 3 .5 6 .7 9.1l.4 9.1.1 3.2 1.5-2.7 4.2-6.9c1.4-2.3 2.9-4.5 4.4-6.7 1.5-2.2 3.1-4.4 4.7-6.4 1.6-2.2 3.3-4.1 5.2-6z"/>
    <path fill="#5F52DC" d="M208.601 225.1c-1.1.4-2.2 1.1-3.1 1.8-1 .8-1.8 1.7-2.6 2.7-.8 1-1.5 2.1-2.2 3.3l-.9 1.8-.8 1.8 1.7.8.5-1.8c.2-.6.4-1.2.7-1.8.5-1.2 1-2.3 1.7-3.4.6-1.1 1.4-2.1 2.2-3 .8-.9 1.7-1.7 2.8-2.2z"/>
    <path fill="#5F52DC" d="M216.201 368.1c-1.6-2.8-3.1-5.6-4.6-8.4-1.5-2.8-2.8-5.7-4.1-8.6-2.5-5.9-4.6-11.9-6.4-18-1.7-6.2-3.1-12.4-4.4-18.7-1.2-6.2-1.9-12.6-2-19-.2-12.9 1.5-25.8 3.6-38.5 1-6.4 2.1-12.9 2.2-19.6.1-3.3-.1-6.7-.6-9.9-.6-3.3-1.5-6.5-2.9-9.4-.1-.1-.2-.2-.3-.1-.1.1-.1.2-.1.3 2.4 6 3 12.6 2.5 19-.4 6.4-1.7 12.8-3.1 19.1-2.6 12.7-4.9 25.7-5.1 39.1-.1 6.7.2 13.4 1.2 20.1 1.1 6.6 2.6 13.1 4.7 19.4 4.2 12.6 10.5 24.4 18.9 33.8.1.1.2.1.3 0 .2-.4.2-.5.2-.6z"/>
    <path fill="#FFBD52" d="M206.2 387.6s-53.4 23.9-83.8 22.7c-4.2-.2-8.5-.5-12.5-2.1-5.2-2-9.7-7.3-7.9-11.8 1.7-4.5 8.1-5.7 11.6-9.1-6.9 1.1-14 2.1-21.2 1-7.1-1-14.3-4.3-18.4-9.9-.7-1-1.3-2-1.4-3.2-.3-3 3.3-5 6.6-5.4 3.3-.4 6.9 0 9.9-1.1-8.8-.3-17.4-3.9-24.4-9.2-7-5.2-12.5-11.9-17.2-18.8-4.2-6.2-8.4-13.2-15.6-16.4 13.7-.1 26.5-5.2 40.2-5.3 14.5-.1 29.4 5.8 39.7 15.8-2.1-4.2-4.2-9.5-1.1-12.9 2.9-3.3 8.8-2.7 13.4-1 12.8 4.5 22.6 14.4 30.8 24.5-1.4-4.3-2.3-9.7 1.5-12.1 3.5-2.2 8.6-.3 12.3 2.2 9.9 6.5 37.5 52.1 37.5 52.1z"/>
    <path fill="#FF952A" d="M162.3 345.1c1.8 4 3.7 8 5.8 12 2.1 4 4.3 7.8 6.8 11.7 2.5 3.8 5.1 7.6 8 11.1 2.9 3.6 6 7 9.6 10.2l.3-1.6c-6 1.7-12.1 3.3-18.2 4.8s-12.2 3.1-18.3 4.4c-6.1 1.4-12.3 2.8-18.5 3.9-6.2 1.2-12.5 2.2-18.8 3l4.8-.3c1.6-.1 3.2-.3 4.8-.5 1.6-.1 3.2-.3 4.8-.5 1.6-.2 3.2-.4 4.7-.6 6.3-.9 12.6-2.1 18.8-3.3 6.2-1.3 12.4-2.7 18.5-4.2s12.2-3.1 18.2-4.9l1.6-.5-1.3-1.1c-3.4-3-6.6-6.3-9.5-9.8-2.9-3.5-5.6-7.1-8.2-10.8-2.6-3.7-5-7.5-7.3-11.3-2.3-3.9-4.5-7.8-6.6-11.7z"/>
    <path fill="#FF952A" d="M139.9 339.1c1.4 4.3 3 8.6 4.7 12.8 1.7 4.2 3.7 8.4 5.8 12.6 2.1 4.1 4.5 8.2 7.1 12.1 2.7 3.9 5.6 7.7 9 11.2l.5-1.6c-4.2.9-8.4 1.6-12.6 2.4l-12.7 2.3c-4.2.7-8.5 1.5-12.7 2.1-4.2.7-8.5 1.3-12.8 2 4.4-.3 8.7-.7 13-1.1 4.3-.5 8.6-1 12.9-1.6 4.3-.6 8.6-1.2 12.8-2 4.3-.7 8.5-1.5 12.7-2.3l1.7-.3-1.2-1.3c-3.3-3.4-6.2-7.1-8.8-10.9-2.7-3.8-5.1-7.8-7.3-11.8-2.3-4-4.4-8.1-6.4-12.3-2-3.9-3.8-8.1-5.7-12.3z"/>
    <path fill="#FF952A" d="M118.101 329.2c1.2 4.7 2.6 9.4 4.2 14s3.4 9.2 5.5 13.8c2 4.5 4.2 9 6.6 13.4 2.5 4.4 5.3 8.8 9.2 12.5l1.3-1.5c-4.8-2.2-9.9-2.8-14.8-3.1-4.9-.2-9.8-.3-14.7-.2-4.9.1-9.8.3-14.6.7-4.8.4-9.7.7-14.5.8 4.9.4 9.8.2 14.7.2 4.9-.1 9.7-.1 14.6-.1 4.9.1 9.7.2 14.6.5 4.8.3 9.7.9 13.9 2.9l5.5 2.6-4.2-4.1c-3.6-3.5-6.4-7.7-8.9-12s-4.7-8.8-6.9-13.2c-2.2-4.5-4.2-9-6.1-13.5-2.1-4.5-3.7-9.1-5.4-13.7z"/>
    <path fill="#FF952A" d="M104.8 338.4c.9 3 2 5.9 3.1 8.9 1.1 2.9 2.3 5.8 3.7 8.7 1.3 2.9 2.7 5.7 4.2 8.6 1.5 2.8 3.1 5.6 4.7 8.4l1.4-1.3c-1.9-.8-3.8-1.3-5.7-1.8l-5.7-1.5c-3.8-.9-7.6-1.7-11.4-2.5l-11.4-2.1c-3.8-.6-7.7-1.2-11.5-1.6l22.6 5.3c3.8.9 7.5 1.8 11.3 2.7 3.7.9 7.5 1.9 11 3.2l2.8 1-1.4-2.4c-1.7-2.7-3.2-5.5-4.8-8.2-1.6-2.8-3.1-5.6-4.5-8.4-1.5-2.8-2.9-5.6-4.2-8.5-1.6-2.7-2.9-5.6-4.2-8.5z"/>
    <path fill="#FF952A" d="M83.6 326.4c.4 2.8 1.1 5.5 2 8.2.9 2.7 1.9 5.4 3.1 8 1.2 2.6 2.5 5.2 3.9 7.7s2.9 5 4.4 7.5l1.4-1.3c-3-1.4-6-2.8-9-4.1-3.1-1.3-6.2-2.6-9.4-3.6-3.2-1.1-6.4-1.9-9.7-2.6-3.3-.7-6.5-1.3-9.8-1.8l9.6 2.7c3.2.9 6.3 2 9.4 3.1 3.1 1.2 6.1 2.5 9.1 3.8l9 4.2 3.2 1.5L99 357c-1.5-2.5-3-4.9-4.5-7.4s-2.9-5-4.2-7.5c-1.3-2.5-2.6-5.1-3.7-7.7-1.2-2.7-2.2-5.3-3-8z"/>
    <path fill="#FF952A" d="M64.6 324c-.2 1.3-.1 2.6.1 3.9.3 1.3.7 2.6 1.3 3.9.6 1.3 1.3 2.5 2 3.7.4.6.8 1.2 1.2 1.7l1.4 1.7 1.7-1.3-1.5-1.4c-.5-.5-.9-1-1.4-1.5-.9-1-1.7-2.1-2.4-3.3-.7-1.1-1.3-2.3-1.7-3.6-.4-1.3-.7-2.5-.7-3.8z"/>
    <path fill="#FF952A" d="M206.201 387.4c-3.5.1-7 .2-10.5.2s-7-.2-10.4-.4c-6.9-.5-13.8-1.4-20.6-2.8-6.8-1.4-13.6-3.1-20.3-5.1-6.6-1.9-13.1-4.4-19.4-7.5-12.5-6.1-24-14.1-35.2-22.5-5.6-4.2-11.4-8.4-17.7-11.8-3.2-1.7-6.5-3.2-9.9-4.3-3.4-1.1-7-1.8-10.6-1.9-.2 0-.3.1-.3.2s.1.2.3.3c7 .6 13.7 3.4 19.6 7 6 3.6 11.4 8 16.8 12.4 10.8 8.8 22.2 17.3 34.9 24.2 6.3 3.4 13 6.5 20 8.7 6.9 2.2 14 3.9 21.1 5 14.3 2.3 29 2 42.3-1.3.1 0 .2-.2.2-.3-.1-.1-.2-.1-.3-.1zM226.401 124.1s1.4 6.4-5.9 14.3c0 0 15.3-4.4 19.8-14.3h-13.9z"/>
    <path fill="#FF952A" d="M248.701 128.1h-34.1c-3.3 0-6-2.7-6-6V101c0-3.3 2.7-6 6-6h34.1c3.3 0 6 2.7 6 6v21.1c0 3.3-2.7 6-6 6z"/>
    <path fill="#FFFFF6" d="M223.301 111.6c0 1.7-1.4 3.1-3.1 3.1-1.7 0-3.1-1.4-3.1-3.1 0-1.7 1.4-3.1 3.1-3.1 1.7 0 3.1 1.4 3.1 3.1zM234.801 111.6c0 1.7-1.4 3.1-3.1 3.1-1.7 0-3.1-1.4-3.1-3.1 0-1.7 1.4-3.1 3.1-3.1 1.7 0 3.1 1.4 3.1 3.1zM246.301 111.6c0 1.7-1.4 3.1-3.1 3.1-1.7 0-3.1-1.4-3.1-3.1 0-1.7 1.4-3.1 3.1-3.1 1.7 0 3.1 1.4 3.1 3.1z"/>
    <path fill="#FF647A" d="M181.5 114.5c7.898 0 14.3-6.402 14.3-14.3 0-7.898-6.402-14.3-14.3-14.3-7.897 0-14.3 6.402-14.3 14.3 0 7.898 6.403 14.3 14.3 14.3z"/>
    <path fill="#fff" d="M174.4 98.7c0-.3 0-.6.1-.9.4-1.9 2.1-3.3 4-3.3 1.1 0 2.2.9 2.9 1.6.7-.7 1.8-1.6 2.9-1.6 2 0 3.6 1.4 4 3.3.1.3.1.6.1.9v.4c0 4.4-7 8-7 8s-7-3.6-7-8v-.2-.2z"/>
    <path fill="#FF647A" d="M184.3 112.3l10.3 6.5-4.1-12.9-6.2 6.4z"/>
    <path fill="#5F52DC" d="M179.3 167.8c10.769 0 19.5-8.73 19.5-19.5s-8.731-19.5-19.5-19.5c-10.77 0-19.5 8.73-19.5 19.5s8.73 19.5 19.5 19.5z"/>
    <path fill="#5F52DC" d="M183.1 164.9l14.2 8.8-5.7-17.7-8.5 8.9z"/>
    <path fill="#fff" d="M187.7 145.7c0-1.2-.9-2.1-2.1-2.1h-3.4c0-1-.1-2.5-.2-3.6 0-.7-.4-1.1-.7-1.3-.8-.6-2-.3-2.2-.2-.3.1-.6.4-.5.8.2 2.2-1.2 4.8-2.7 6 0 0-.2.1-.3.1v-.4c0-.4-.3-.7-.7-.7H171c-.4 0-.7.3-.7.7v10.2c0 .4.3.7.7.7h3.9c.4 0 .7-.3.7-.7v-.4h9.3c.9 0 1.6-.6 1.7-1.5.1-.8-.6-1.1-.7-1.3.5-.4 1.6-.6 1.6-1.3 0-.7-.7-.8-.7-1 .5-.4 1.1-1 1.1-1.7 0-.4-.4-.8-.7-1.2.1-.3.5-.7.5-1.1z"/>
    <path fill="#AEC7FF" d="M105.5 207.7l48.4-14.8 85.8 169.8-48.4 14.8-85.8-169.8z"/>
    <path fill="#CFE0FF" d="M163.4 211.8l-22.5 66 16.3 32.2 21.5-68-15.3-30.2zM196.8 277.8L177 349.1l14.3 28.3 8.3-2.5 14.9-62.1-17.7-35z"/>
    <path fill="#26269E" d="M249.3 375.8l-96.7-191.3c-3.8-7.5-9.9-12.7-13.5-11.6l-40.2 12.3c-3.7 1.1-3.6 8.1.2 15.7l96.7 191.3c3.8 7.5 9.9 12.7 13.5 11.6l40.2-12.3c3.7-1.2 3.6-8.2-.2-15.7zm-131.1-184l12.4-3.8c.2-.1.6.2.8.7.2.4.2.9 0 .9l-12.4 3.8c-.2.1-.6-.2-.8-.7-.2-.4-.2-.8 0-.9zM226.6 392c-2.3.7-6-2.5-8.4-7.2-2.4-4.7-2.4-9-.2-9.7 2.3-.7 6.1 2.5 8.4 7.2 2.4 4.7 2.5 9 .2 9.7zm-35.3-14.6l-72.2-142.7-13.7-27.1 48.4-14.8 4.2 8.2 9.5 18.8 72.2 142.7-48.4 14.9z"/>
    <path fill="#EAEAEA" d="M218.1 375.1c2.3-.7 6.1 2.5 8.4 7.2 2.4 4.7 2.4 9 .1 9.7-2.3.7-6-2.5-8.4-7.2-2.4-4.6-2.4-9-.1-9.7zm7.7 15.3c1.8-.6 1.8-4.1-.1-7.8-1.9-3.8-5-6.4-6.8-5.8-1.8.6-1.8 4.1.1 7.8 1.9 3.7 4.9 6.3 6.8 5.8z"/>
    <path fill="#26269E" d="M218.9 376.7c1.8-.6 4.9 2 6.8 5.8 1.9 3.8 2 7.3.1 7.8-1.8.6-4.9-2-6.8-5.8-1.9-3.7-2-7.2-.1-7.8z"/>
    <path fill="#1E1982" d="M209.3 403.7c-1 .3-2.3.1-3.6-.5-.5-.2-1-.5-1.6-.9-.4-.3-.9-.6-1.3-1s-.9-.7-1.3-1.2c-.4-.4-.9-.9-1.3-1.4-.5-.5-.9-1.1-1.4-1.7-.6-.8-1.1-1.6-1.7-2.4-.5-.8-1-1.7-1.5-2.6L99.1 200.9c-.9-1.7-1.5-3.3-2-4.9-.3-.9-.5-1.7-.6-2.6-.1-.6-.2-1.2-.2-1.8 0-.5-.1-1 0-1.5 0-.5.1-.9.1-1.3l.3-1.2c.2-.4.4-.8.6-1.1.3-.4.6-.7 1-.9l-8.6 4.8c-.4.2-.7.5-1 .9-.2.3-.5.7-.6 1.1l-.3 1.2c-.1.4-.1.9-.1 1.3v1.5c0 .6.1 1.2.2 1.8.2.8.4 1.7.6 2.6.5 1.6 1.1 3.2 2 4.9L187.2 397c.5.9 1 1.8 1.5 2.6.5.9 1.1 1.7 1.7 2.4.4.6.9 1.1 1.4 1.7.4.5.8.9 1.3 1.4.4.4.9.8 1.3 1.2.5.4.9.7 1.3 1 .5.4 1 .6 1.6.9 1.3.6 2.6.8 3.6.5l40.2-12.3 8.6-4.8-40.4 12.1z"/>
    <path fill="#5F52DC" d="M270.772 168.969l-21.352 7.999 6.244 16.669 21.352-7.998-6.244-16.67z"/>
    <path fill="#5F52DC" d="M295.5 190l-22.7-3-6.2-16.5 15.2-17 13.7 36.5zM261.572 175.928l-13.579 5.086 3.964 10.583 13.579-5.087-3.964-10.582zM268.356 188.905l-6.181 2.315 6.104 16.295 6.181-2.315-6.104-16.295z"/>
    <path fill="#3E37C4" d="M295.5 191.4c-.6 0-1.1-.3-1.3-.9L280.5 154c-.3-.7.1-1.5.8-1.8.7-.3 1.5.1 1.8.8l13.7 36.5c.3.7-.1 1.5-.8 1.8-.2.1-.3.1-.5.1zM272.8 188.4c-.6 0-1.1-.3-1.3-.9l-6.2-16.5c-.3-.7.1-1.5.8-1.8.7-.3 1.5.1 1.8.8l6.2 16.5c.3.7-.1 1.5-.8 1.8-.2.1-.3.1-.5.1z"/>
    <path fill="#FFBE88" d="M274.799 254.4l-34.3 1.6 5.4-12.6s5.8-1.7 30.7 5l-1.8 6z"/>
    <path fill="#FFBE88" d="M223.699 234.7l16.9 21.5 5.2-12.7-9.8-14.5c-4.3 1.3-8.5 3.1-12.3 5.7z"/>
    <path fill="#FF770C" d="M243.399 234.2l-13.8-21.3c-2.8-6.5-11.9-7.5-16-1.7-2 2.8-2.1 7.4-.3 10.4l12.3 26.6c3.4-5 13.2-12.1 17.8-14z"/>
    <path fill="#FF314F" d="M160.2 370.7l50.1-103.5-21.6-9.2c-26.1 38.7-41.9 109.8-41.9 109.8l13.4 2.9z"/>
    <path fill="#FFBE88" d="M229.9 201.5c-3.8-2.5-7.1-5.6-9.5-9.8-1.6 3.1-3.7 7.7-5.7 13.6 1.2-.3 2.6.1 3.7.6 4.8 1.6 7.7 7.2 12.6 8.3-.3-.3-3.4-7.5-3.4-7.5l2.3-5.2z"/>
    <path fill="#EF9D59" d="M229.9 201.5l3.3-7.6-10.4-6.4s-.9 1.5-2.3 4.2c2.3 4.2 5.6 7.3 9.4 9.8z"/>
    <path fill="#FFBE88" d="M219.4 167.5c4.7-3.3 13.1-3.7 17.4.6 1.4 1.4 1.6 4.5 2 6.7.1.4.6 3.1.6 3.1l4.4 6-2.4 2.5 1 8.2s-13.1 1.3-17.8-2c-4.7-3.2-10.3-10.8-8.5-20.5.4-2 1.7-3.5 3.3-4.6z"/>
    <path fill="#FF4C58" d="M151.5 365.6l56.7-100-19.6-11c-27.9 27.4-50.3 107.2-50.3 107.2l13.2 3.8z"/>
    <path fill="#FF952A" d="M231 214.2c-3.7-3.1-7.6-10.1-11.1-13.6-.8-.9-1.9-.7-3.1-1-13.5 7.9-13.9 13.5-20.9 43.5-.4 1.6-1.7 6.9-7.4 11.5l19.4 17.3 5.1-9.3c.1-.1 23.9-28.8 18-48.4z"/>
    <path fill="#FF952A" d="M203.5 267.7l4.6 4.1 5.1-9.3s23.7-28.6 17.9-48.2c-4.6 19.8-12 39.6-27.6 53.4z" opacity=".2"/>
    <path fill="#FFBE88" d="M264.499 204.9l-7.6 33.5-7.2-14.2s-3.6-.3 9.6-22.5l5.2 3.2z"/>
    <path fill="#FFBE88" d="M262.8 205.6l9.3-3.5c1.8-.7 2.7-2.6 2.2-4.5l-1.7-5.5-3.5-1.6s-2.2 3.5-4.2 3.3c0 0-1.9.5-1.9-1.6s-1.1-3.6-2.6-1.5-1.7 7.2-1 10.9l3.4 4zM231.3 228.8l25.6 9.6-7.6-15.9-10.5-4.9c-3 3.3-5.6 7.1-7.5 11.2z"/>
    <path fill="#FFBD52" d="M241.9 216.5l-20.7-10.3c-5.2-3.8-12.7-.3-13 6.1-.2 3.2 1.9 6.8 4.7 8.3l22 15.2c.3-5.5 4.4-15.6 7-19.3z"/>
    <path fill="#1E1982" d="M215 170.3s-2.5-5.7 7.3-6.9c12.8-1.6 25.1-8.3 15.9 10.6 0 0 0-1.7-.6-4.1 0 0-3.6 6.1-9.6 5.6 0 0 4.3-4 4-6.2 0 0-3.8 5.3-9.1 5.9l.8 8.2-.7 3.6-4 7.8s-8.5-1-4.8-2.1c3.6-1.1 1.2-4.5.6-6-.7-1.7-2.7-4.2-3.1-6.6-2.2-10.4 3.3-9.8 3.3-9.8z"/>
    <path fill="#FFBE88" d="M224.3 183s-1.1-5.9-3.4-5.2c-2.3.7-2.8 3.7-1.9 7.5.9 3.8 4.1 2.5 4.1 2.5l2.7-.7-1.5-4.1z"/>
    <path fill="#FFBD52" d="M208.8 209.7s-2.6 5.9 3 10.2c1.9 1.5 5.6 3.9 9.4 6.4 6.6 4.5 13.8 9.5 13.8 9.5s.1-3.3 1.7-7.8c-.1.1-27.2-9-27.9-18.3z" opacity=".2"/>
    <path fill="#5F52DC" d="M386.3 273.2c-2.2 1.5-3.6 2.5-6.3 3.3-9.1 3-17.5-3.5-26.7-6.2h-4.5c-16.1 13.8-29.6 37.3-29.6 37.3l53.2 30.5 3.8-2.8c-17.6-33.3-33.9-31.6-33.9-31.6 8.2-1.3 26.9-16.8 26.9-16.8 17.2 42 28.9 99.5 28.9 99.5l3.5.5c2-68.6-6.7-99.2-15.3-113.7z"/>
    <path fill="#5F52DC" d="M369.3 286.9l-35.4 15.7 41.3 33.6 1.2-.9s-14-30.3-33.9-31.6c-.1 0 7.8-1 26.8-16.8zM386.3 273.2s4 5.4 7.8 19.1c5 17.8 9.8 49 7.5 94.5l-6.4-57c-1.7-15.1-5.3-29.9-10.8-44.1l-4-10.4 5.9-2.1z" opacity=".3"/>
    <path fill="#FF4B5F" d="M372.4 338.2s-14.8 19.2-13.6 21.8c1.2 2.6 22.8-15.3 22.8-15.3s3.3-4.4-5.4-9.3l-3.8 2.8zM398.1 386.4s-1.2 4.3-3.3 7.7c-2.1 3.4-5.9 6.5 1.4 10.9 0 0 7.9 0 8.8-4.7.9-4.7-3.5-13.5-3.5-13.5l-3.4-.4z"/>
    <path fill="#1E1982" d="M336.1 193.7c-1.1 1.1-2 2.7-1.9 4.4.2 2.4 2.5 3.7 3.6 5.7.3.5.5 1.1.5 1.8-.1 1.1-.9 1.9-1.8 2.3-.9.4-1.8.4-2.8.6-3.7.7-7.1 3.9-8.2 8-.5 1.7-.6 3.5 0 5.1.9 2.3 3.1 3.6 5.3 4.1 2.2.5 4.5.5 6.7 1.2s4.3 2.3 4.8 4.7c.3 1.5 0 3.2.1 4.7.3 3.4 2.9 6 5.7 7.2 2.3 1 4.8 1.3 7.3.6 2.4-.7 4.6-2.5 5.7-5.1 1.1-2.6 1.1-5.7 2.7-8 1.4-1.9 3.6-2.7 5.7-3 2.1-.3 4.3-.1 6.4-.6 3.8-.9 7.5-4.5 7.6-8.9.1-4.2-2.9-7.5-6-9.7-2.4-1.9-5.3-3.9-5.7-7.2-.4-3.4 2.1-6.7 1.8-10.1-.3-2.9-2.5-4.9-4.6-6.6-3.4-2.6-7-4.9-10.8-6.8-2.1-1.1-5.1-2.3-7.4-.6-1.5 1.1-1.8 3.2-2.4 4.9-2.4 6.4-8 7-12.3 11.3z"/>
    <path fill="#FF647A" d="M344.6 219.4l-21.9 31.7 3 8.1s18.8-21.5 20.8-25.8c2-4.4 3.3-6.7 1.7-11.5-1.5-4.9-3.6-2.5-3.6-2.5z"/>
    <path fill="#FF647A" d="M295.901 250.8l29.8 8.3-3-8.1s-2-3.2-27.2-3.5l.4 3.3z"/>
    <path fill="#FFBE88" d="M299.001 249.2c-.2-.2-.8 0-1.6.4l.4.5c-1.1 3.6-3.4 8.2-5.6 9.5-2.2 1.3-2.5-.6-1.5-2.5.9-1.9-.9-2.2-.9-2.2-1-.7-4.9 1.2-7.3 2.8-.6.4-1.4-.2-1.1-.9l1.8-4.5 2.3-2.2v-.1c-3.3.2-6.6 1.4-9.3-1.1l-2.6 4 5.5 7.5 11.7.7 8.4-6.7c.1 0 1.7-3.3-.2-5.2z"/>
    <path fill="#FFA15A" d="M285.501 251.7c.1.4.9 3.8 1.6 3.5.6-.2 7.2-4.3 10.3-5.7l-1.7-2-8.1.4-2.1 2.1c-.5.8 0 1.7 0 1.7z"/>
    <path fill="#FFA15A" d="M287.101 255.2c-.7.2-1.5-3.2-1.6-3.5 0 0-.5-.9 0-1.6l-2.3 2.2-1.8 4.5c-.3.7.5 1.3 1.1.9.7-.5 2.2.4 2.9-.2 1.3-1 1.1-2.1 1.9-2.4-.1 0-.2.1-.2.1z"/>
    <path fill="#FFBE88" d="M297.4 249.6c-2.9 1.2-8.5 4.7-10 5.5 1.1-.4 2-.6 2.4-.3 0 0 1.8.4.9 2.2-.9 1.9-.7 3.7 1.5 2.5 2.2-1.3 4.5-5.8 5.6-9.5l-.4-.4z"/>
    <path fill="#FF3968" d="M341.601 240.2c-1-1.2-1.7-2.6-2.1-4.1-.4-1.5-.4-3-.1-4.5.2-1.5.7-2.9 1.3-4.3.6-1.4 2.9-6.4 3.7-7.7l-2.2 3.2c-.9 1.3-16.6 36.3-16.6 36.3l1.4-1.7 7.5-8.7 7.1-8.5z" opacity=".3"/>
    <path fill="#FFBE88" d="M285.5 250c.2-.2.5-.4 1-.6 2-.5 3.2-2 .8-2.9-2.4-.9-7.4.3-10.8 1.9l-.3.4c2.7 2.6 6 1.4 9.3 1.2z"/>
    <path fill="#FF647A" d="M363.6 216.4c-3.1.6-18.7.7-19.3 3.5 0 0-4 8.2-5 14.1-.4 2.3.5 4.6 2.2 6.1l4.8 4.3s7 5.2-.5 22.4c-.7 1.7.9 2.6 2.9 3.5l7.2 3.4c9.2 2.8 15 5.8 24.2 3.1 1.8-.5 4.7-2.3 6.8-4 1.5-1.2 2.2-3.3 1.7-5.2-1.1-4.2-12.9-13.7-13.1-20.5-.5-19.7-3.4-29.6-11.9-30.7z"/>
    <path fill="#FF3968" d="M388.5 267.6c-1.1-4.2-12.9-13.7-13.1-20.5-.4-19.8-3.3-29.7-11.8-30.7-.6.1 4.4 5.7 4.4 9.7 0 15.7-3.4 31.3 13.2 39.6 2.8 1.8.7 3.7-1.5 4.6-17 5.1-26.1-.9-30.9 0 1.1.2 10.2 6.1 23.4 7.5 2.4.3 5-.2 7.8-1.1 1.8-.5 4.7-2.3 6.8-4 1.6-1.1 2.2-3.2 1.7-5.1z" opacity=".3"/>
    <path fill="#FF8C3E" d="M361.1 206.7l-10.5-.9s.9 4 .5 7.6c.5.2.9.5 1.3.8 2.9.6 5.9.4 8.3-.7-.3-1.7-.4-4 .4-6.8z"/>
    <path fill="#FFA15A" d="M352.4 214.1c-.3-.3-.8-.6-1.3-.8-.2 1.7-.6 3.3-1.6 4.4-3 3.5-4.2 8.6 1.7 8.8 5.8.2 9.6-2.6 10.7-10 0 0-.8-1.1-1.2-3.2-2.4 1.3-5.4 1.4-8.3.8zM369.3 193.2c-1.3 9.7-9.7 18.3-14.6 17.7-4.7-.6-10.8-11.2-9.6-20.8 1.3-9.7 7.3-13.7 14-12.8 6.6.7 11.4 6.2 10.2 15.9z"/>
    <path fill="#1E1982" d="M354.9 172.1c-2.2-.4-4.5-.5-6.6.2-2.1.7-3.9 2.5-4.3 4.6-.3 2 .6 4.1.1 6.1-.6 2.4-3 3.9-5.1 5.2-2.1 1.4-4.3 3.3-4.1 5.8.1 1.7 1.4 3.1 2.9 3.8 1.5.8 3.2 1 4.8 1.3-1.5-.2-3-1.2-3.5-2.6-.6-1.4-.2-3.2 1-4.2 1.8-1.5 4.4-.6 6.8-.7 3.8-.1 7.4-3.3 7.9-7.1.1-.5.1-.9.4-1.3.8-1.2 2.7-.4 4.2-.1 1.6.3 3.4-.4 4.3-1.8 3.3-5-5.2-8.5-8.8-9.2z"/>
    <path fill="#1E1982" d="M361.2 182.1c-.2 1.6.2 3.4 1.4 4.6.7.7 1.7 1.2 2.5 1.8.8.6 1.6 1.5 1.7 2.5.1 1.7-1.6 2.9-2.6 4.3-1.5 1.9-1.8 4.6-.8 6.8.6 1.4 1.8 2.6 2 4.1.4 2-1.2 4.2-3.3 4.5 2.1.2 4.1-1.2 5.7-2.6 1.6-1.4 3.3-2.9 3.8-5 .6-2.4-.6-5-.2-7.5.3-2.3 1.9-4.3 2.3-6.6.4-2-.2-4.1-1.2-5.9-1-1.8-2.5-3.2-4.1-4.6-3.7-3.3-6.7-.7-7.2 3.6z"/>
    <path fill="#FFA15A" d="M381.901 205.1l1.3-8-5.4-10.3-4.2-1.8c-.6-.4-2.7.5-2.4 1.2 1.1 2.6 3.3 8.3 4.1 11.2 0 0 .4 2.9-1.2 1.6-1.7-1.3-7.2.8-6.2 3.2.7 1.5 3-.6 5.3-.1 2.2.5 1.4 4.7 6 4.7l2.7-1.7z"/>
    <path fill="#FF647A" d="M381.9 205.1l-2.9 1.5c6.4 10.2 9.5 15.2 10.9 17.5l-22.899-7.1s-7.6-2.9-4.8 4c1.9 4.7 4.299 6 8.699 7.8 3.1 1.3 18.6 4.4 27.4 6.1 3.4.7 6.601-1.6 7.301-4.9.4-2.2-.4-4.4-2-5.8L381.9 205.1z"/>
    <path fill="#FF3968" d="M379 206.6l1.1-.6 17.7 19.9-7.8-1.8-11-17.5z" opacity=".3"/>
    <path fill="#FF952A" d="M643.201 155.5s1.3 5.6-5.2 12.5c0 0 13.4-3.9 17.3-12.5h-12.1z"/>
    <path fill="#FF952A" d="M662.101 158.9h-28.5c-3.3 0-6-2.7-6-6v-17c0-3.3 2.7-6 6-6h28.5c3.3 0 6 2.7 6 6v17c0 3.4-2.7 6-6 6z"/>
    <path fill="#FFFFF6" d="M640.501 144.5c0 1.5-1.2 2.7-2.7 2.7-1.5 0-2.7-1.2-2.7-2.7 0-1.5 1.2-2.7 2.7-2.7 1.5 0 2.7 1.2 2.7 2.7zM650.6 144.5c0 1.5-1.2 2.7-2.7 2.7-1.5 0-2.7-1.2-2.7-2.7 0-1.5 1.2-2.7 2.7-2.7 1.5 0 2.7 1.2 2.7 2.7zM660.701 144.5c0 1.5-1.2 2.7-2.7 2.7-1.5 0-2.7-1.2-2.7-2.7 0-1.5 1.2-2.7 2.7-2.7 1.5 0 2.7 1.2 2.7 2.7z"/>
    <path fill="#FFBE88" d="M602.301 255.3c-.3 2.2-20 126.7-20 126.7l4.6.1s27.5-67.5 29.1-104.5c.4-9.9 3.1-20.2-1-21.3-3.4-.9-12.7-1-12.7-1z"/>
    <path fill="#1E1982" d="M566.501 394.6c-3.6 2.2-6.8 3.9-6.9 4.7-.3 1.4 5.5 1.5 12.6 1.2l11.2-6.5.1-1.6-.1 1.6.1-.1-.1.1-.3 6c1.7-.1 2.7-.2 2.7-.2s4.7-8.6 1.4-17.1c-.5.1-1 .3-1.4.6-5.6 4.6-11.5 12.8-19.3 11.3z"/>
    <path fill="#FFBE88" d="M582.301 382s-3.8 3.8-11 9.3c-1.5 1.2-3.2 2.3-4.9 3.3 7.8 1.5 13.7-6.7 19.4-11.2.5-.3.9-.5 1.4-.6-.1-.3-.2-.6-.4-.9l-4.5.1z"/>
    <path fill="#1E1982" d="M619 383.1s-1.9 14.3 1.7 17.3c3.6 3 8.6 2.9 8.6 2.9s2-2.1 2.2-3.8c.2-1.7-.9-6.3-7.5-16.5h-5v.1z"/>
    <path fill="#FFBE88" d="M604.9 255.3c0 .2 8.3 1.7 8.4 3.9.9 21 5.7 123.4 5.7 123.4l5 .6s18.3-77.2 8.2-113c-2.6-9-10.4-14.6-10.4-14.6l-5.9-.1-11-.2z"/>
    <path fill="#FFBE88" d="M619.001 382.6s-1 14.1 4.4 14.6 6.2-.8 5.7-3-5.1-11.1-5.1-11.1l-5-.5z"/>
    <path fill="#1E1982" d="M632.201 270.2c-2.6-9-10.4-14.6-10.4-14.6l-5.9-.1-11.1-.1s.1 0 .1.1c-1.6-.1-2.8-.1-2.8-.1-.2 1.1-5.1 33.1-10 64.9h29.4s4.1-12.1 5.6-21.5c.4 9.5.5 11.1 1 21.5h5.9c1.8-18.3 2-36.9-1.8-50.1z"/>
    <path fill="#1E1982" d="M632.201 270.2c-2.6-9-10.4-14.6-10.4-14.6l-5.9-.1h-1.4c15.2 18.8 17.7 41.5 16.4 64.8h3.2c1.7-18.3 1.9-36.9-1.9-50.1z" opacity=".3"/>
    <path fill="#5F52DC" d="M621.901 168.6s4-.9 6.9 6.5c1.5 4 5 15.8 5 26.2.1 30.8-28.5 19.1-32.2 12.6-3.6-6.5-11.4-10.2 11.7-43.3"/>
    <path fill="#FF3E56" d="M603 211.7l-21.8 33.2 3.3 9.1s21.2-24.2 23.5-29.2c2.3-4.9 3.7-7.5 1.9-13-1.6-5.5-6.9-.1-6.9-.1z"/>
    <path fill="#FF3E56" d="M569.501 222.5l15 31.5 4.7-8.5s1.2-4.1-17.3-25.8l-2.4 2.8z"/>
    <path fill="#FFBE88" d="M569.501 222.5l-3.9 1.7c-2.4 1-5 1.4-7.5 1.1l-7.6-.9-4.7-2.9c-.7-.4-.4-1.6.4-1.6 3.2-.1 13.4 0 13.9-1.3 0 0 .9-.5-1.2-1.6s-3.1-3-.3-3.3c2.7-.3 7.6 2.1 11.1 4.6.1.1 2.1 1.2 2.2 1.3l-2.4 2.9z"/>
    <path fill="#FF647A" d="M623.901 206c-3.2 0-6.2-1.2-12.3-.8-3 .2-8 1.5-9.1 4.1l-6.5 11.9c-1.1 1.7-1.7 6.3-.4 7.8 1.8 2 4.1 3.7 4.5 5.2l2.2 21.1 19.5.2c0 .1 16.1-39 2.1-49.5z"/>
    <path fill="#FF3968" d="M623.901 206c-1.6 0-3.2-.3-5.1-.6 1.1 1 2 2 2.7 3.2 9 14.4.4 32.3-7.7 46.9l8 .1s16.1-39.1 2.1-49.6z" opacity=".2"/>
    <path fill="#FFA15A" d="M619.1 197.5c-.2-2.4-.2-5.2.2-8.5l-8 6s.4 2.8-.3 5.1c3 1.2 5.6-.7 8.1-2.6z"/>
    <path fill="#FFBE88" d="M610.9 200.2c-.4 1.1-1 2.2-2.1 2.7-1.8.9-1.6 3.6-3 4.5l-.9 7.2v3.8l9.6-8.2 7.3-3.3s-2.2-2.9-2.8-9.3c-2.4 1.8-5 3.7-8.1 2.6zM625.101 184.2c0 13.6-18 13.9-18 13.9s-4.4-5-4.4-12.5 0-18.2 5.2-18.2c11.3.1 17.2.1 17.2 16.8z"/>
    <path fill="#5F52DC" d="M621.801 168.6s-14-9.4-19-2c-5 7.3-2 11.6-2 11.6l1.6-.6s-.3-4.3 1.2-6c0 0-1.7 4.9-.6 6 0 0 10.6-1.4 12.8.1 2.2 1.5 2.6 5.4 2.6 5.4l.6 12s8.7-3.3 8.7-17.1c-.1-10.5-5.9-9.4-5.9-9.4z"/>
    <path fill="#FFBE88" d="M618.301 183s.7-5.6 4.2-2.9c3.5 2.8.3 8.8-1.8 9.1-2.1.4-3.2-3.3-3.2-3.3"/>
    <path fill="#fff" d="M620 201.2s1.2 2 4.1 4.4l-9.6 5.2 1 2.2-10.6 5.3s12.8-16.3 15.1-17.1z"/>
    <path fill="#fff" d="M608.801 202.8s-4.2 7.3-3.9 15.5c0 0-1.3-4.5-1.2-8.3l1.2-1.4-.6-1.2c0-.1 2.8-3.2 4.5-4.6z"/>
    <path fill="#FF4B5F" d="M620.901 210.4l-21.8 33.2 3.3 9.1s21.2-24.2 23.5-29.2c2.3-4.9 3.7-7.5 1.9-13-1.6-5.5-6.9-.1-6.9-.1z"/>
    <path fill="#FF4B5F" d="M568.701 243.2l33.8 9.5-3.3-9.1s-2.4-3.4-30.9-4l.4 3.6z"/>
    <path fill="#5F52DC" d="M414.1 158.6s-1.3 5.6 5.2 12.5c0 0-13.4-3.9-17.3-12.5h12.1z"/>
    <path fill="#5F52DC" d="M395.2 162.1h28.5c3.3 0 6-2.7 6-6v-17c0-3.3-2.7-6-6-6h-28.5c-3.3 0-6 2.7-6 6v17c0 3.3 2.7 6 6 6z"/>
    <path fill="#FFFFF6" d="M416.801 147.6c0 1.5 1.2 2.7 2.7 2.7 1.5 0 2.7-1.2 2.7-2.7 0-1.5-1.2-2.7-2.7-2.7-1.5 0-2.7 1.2-2.7 2.7zM406.7 147.6c0 1.5 1.2 2.7 2.7 2.7 1.5 0 2.7-1.2 2.7-2.7 0-1.5-1.2-2.7-2.7-2.7-1.5 0-2.7 1.2-2.7 2.7zM396.601 147.6c0 1.5 1.2 2.7 2.7 2.7 1.5 0 2.7-1.2 2.7-2.7 0-1.5-1.2-2.7-2.7-2.7-1.5 0-2.7 1.2-2.7 2.7z"/>
    <path fill="#FF647A" d="M444.5 182.5c6.131 0 11.1-4.97 11.1-11.1s-4.969-11.1-11.1-11.1c-6.13 0-11.1 4.97-11.1 11.1s4.97 11.1 11.1 11.1z"/>
    <path fill="#fff" d="M449.9 170.3c0-.2 0-.5-.1-.7-.3-1.4-1.6-2.5-3.1-2.5-.9 0-1.7.7-2.3 1.3-.6-.6-1.4-1.3-2.3-1.3-1.5 0-2.8 1.1-3.1 2.5 0 .2-.1.4-.1.7v.4c0 3.5 5.5 6.3 5.5 6.3s5.5-2.8 5.5-6.3v-.2-.2z"/>
    <path fill="#FF647A" d="M442.3 180.9l-8.1 5 3.2-10.1 4.9 5.1z"/>
    <path fill="#0E0E63" d="M549.701 236.9c-19-5.9-20-3.7-20-3.7l-8.2 8.5 28.6 4.5c0-2.2-.3-7-.4-9.3z"/>
    <path fill="#FFA15A" d="M551.8 238.7c-.7-.2-1.5-.5-2.1-.7.1 2.3.4 4.6.4 6.8l6.7.7-5-6.8z"/>
    <path fill="#FFBE88" d="M558.501 233.2h-.4c-1.2.1-1.7.4-1.8.9.8-.4 1.5-.7 2.2-.9z"/>
    <path fill="#FFA15A" d="M559.801 233.4c-.2-.2-.7-.3-1.3-.2.4 0 .9.1 1.3.2zM558.801 239.2s.6-.6.5-1.3c0 0-.7-.4-.7-1.1-.1-.1-.2-.2-.4-.2-1.2-.7-2-1.6-1.9-2.3-1.8 1.2-3.8 3.3-5.1 5.2v1.1c3.2 0 7.1-.2 7.6-1.4z"/>
    <path fill="#FFA15A" d="M558.301 236.5c.1.1.2.2.4.2 0-.3.1-.6.5-1 .9-.9 1.3-1.9.7-2.3-.5-.1-.9-.1-1.3-.2h-.1c-.6.1-1.3.5-2.1.9-.1.8.7 1.7 1.9 2.4z"/>
    <path fill="#FFBE88" d="M568.601 239.6c-2.7-2.3-6-5.6-8.8-6.2.6.4.2 1.5-.7 2.3-.4.4-.5.7-.5 1 .5.4.7.7.7 1.1.1.7-.5 1.3-.5 1.3-.5 1.2-4.5 1.4-7.6 1.3h-.9c-.9 0-1.2 1.1-.5 1.6l1.3.9 3.2 2.2 5 1.4 1.6.4 7.7-3.8v-3.5z"/>
    <path fill="#0E0E63" d="M507.501 225l13.9 16.6 9.2-8.9-13.3-16.1c-3.3 1.9-7.1 5.6-9.8 8.4z"/>
    <path fill="#0E0E63" d="M519.801 220l-11.5-15.3c-4.3-4.7-9.9-4.8-12.5-.1-1.3 2.3-1.1 5.8.5 7.9l15.7 17.5c2.2-3.9 4.5-8.1 7.8-10z"/>
    <path fill="#FFBE88" d="M512 384.4l3.5 13.4 10.2-3.2-4.3-18.9-9.4 8.7z"/>
    <path fill="#5F52DC" d="M525.5 393.6l20.9 7.1c1.2.4 2 1.4 2 2.6 0 1.5-1.4 2.8-3.2 2.8h-29.3s-2.9-5.6-.3-8.5l9.9-4z"/>
    <path fill="#FFBD52" d="M525.4 388.3L508.5 269h-18.3c-8.3 11.8 21.9 120.5 21.9 120.5l13.3-1.2z"/>
    <path fill="#FFBD52" d="M497.1 286.9l-4.2 22.6s12.2 57 19.1 80l5.2-.5-20.1-102.1z" opacity=".3"/>
    <path fill="#FFBE88" d="M445.2 372.6l-8.7 10.7 8.6 6.5 12.7-14.7-12.6-2.5z"/>
    <path fill="#FFBD52" d="M439.601 378.1l12 5.9 32.7-37.9 2.2-2.6c-5.1-3.1-13-4-17.6-7.8-15.6 22-29.3 42.4-29.3 42.4z"/>
    <path fill="#5F52DC" d="M448.5 386.7s2.1 8.5 14 11.9c5.5 1.6.4 6.4.4 6.4h-15.8l-13.7-12.3s.6-12.3 5.8-12.3c0-.1 4.6 4.2 9.3 6.3z"/>
    <path fill="#FFBD52" d="M478 269c-4.3 6.2-7.8 39.1-10.1 69 5.9.9 12.7 5.4 18.7 5.5l13.1-70.1L478 269z"/>
    <path fill="#FFBD52" d="M447.2 381.8l35.1-39.9 9.7-27.3-5.4 28.9-34.9 40.5-4.5-2.2z" opacity=".3"/>
    <path fill="#1E1982" d="M502.4 200.9c-9.5-2.8-11.6-4.8-17.7-3.3-2.7.7-11 4.3-13 5.7-2.7 1.8-4.6 5.2-4.6 8.5.1 20.1 13.9 37.8 13.3 45.8L478 269l31.4 6.3s5.5-68.7-7-74.4z"/>
    <path fill="#1E1982" d="M486.9 245.5c-6-12.9-18.4-26.5-14.9-42.4-.2.1-.3.2-.4.2-2.7 1.8-4.6 5.2-4.6 8.5.1 20.1 13.9 37.8 13.3 45.8L478 269l8.5 1.7c2.8-8.2 4.1-16.6.4-25.2z" opacity=".3"/>
    <path fill="#FFA15A" d="M442.1 221.2c-1.1-1.2-2.2-2.4-3.4-3.8l-8.8-1.6 6.7 10.9c2.6-.3 3.9-3.3 5.5-5.5z"/>
    <path fill="#FFA15A" d="M427.6 218.9l-9.3-5.4c-.7-.4-1.1-1.3-.9-2.1l.7-2.9c.3-1.1 1.5-1.7 2.6-1.3l8.3 3.6s3.4-.5 5.4 0c0 0 .9-2.4 1.7-4.4.7-2 2-1.8 2.7.8.7 2.5 1.3 8.1-.7 11.4l-4.2 3.7-1.4-2.7-4.9-.7z"/>
    <path fill="#FFBE88" d="M469.2 228.1l-19.4 20-3.8-11 12.5-16.7c3.5 1.6 7.7 5.1 10.7 7.7z"/>
    <path fill="#0E0E63" d="M450.5 230.9l16.1-23.8c4-5.2 9.7-5.9 12.8-1.2 1.5 2.3.6 10.7-.8 13L449.7 248c-2.6-3.9 4.4-15.5.8-17.1z"/>
    <path fill="#0E0E63" d="M443 220c-1.6 2.2-5.4 5.9-8.1 6.3l14.7 21.7 4.4-11.8s1.4-2.4-11-16.2z"/>
    <path fill="#FFA15A" d="M493.201 195.7c-4.6.5-9.1-.5-12-4-.2 5.4-.9 7.4-.9 7.4l15.4.8c-1.4-.8-2.2-2.4-2.5-4.2z"/>
    <path fill="#FFA15A" d="M494.401 198.7s4 2.7.8 3.4c-3.2.8-11.8 2.6-14.9-3l6.6-5.5 5.2 3.3 2.3 1.8z"/>
    <path fill="#FF8C3E" d="M493.201 195.7c-.7-3.7.3-8.1.3-8.1l-12.4-4.8c.2 3.7.2 6.6.1 8.9 2.9 3.5 7.4 4.5 12 4z"/>
    <path fill="#FFA15A" d="M476.7 178.9c0 13.8 18 12.4 18 12.4s4.7-3.3 4.7-10.9c0-7.6 0-18.5-5.3-18.5-11.4 0-17.4.1-17.4 17z"/>
    <path fill="#FF3E56" d="M476.301 176.5c-.3-1 1.5 1.7 2.5 1.3 1-.4 1.6-1.5 1.8-2.5.2-1.1-.1-2.2-.3-3.2.3.4 1 .5 1.4.2.5-.3.8-.7 1-1.2.7-1.5.9-3.3.6-4.9 1.3 1.3 3.2 2 5 1.6 1.8-.4 3.4-1.7 4-3.4 1.3 1.6 3.4 2.3 5.5 2.4 1.4 0 2.8-.2 3.9-1s1.8-2.2 1.6-3.5c-.1-.7-.5-1.3-1-1.9-2-2.5-5.2-4.8-8.3-3.8.1-1.9-1-2.8-2.4-4.1-1.4-1.3-3.6-1.7-5.2-.7-1.7 1.1-2.2 1.6-3.3 3.3-1.2-1.2-7.4-2.1-8.9-1.4-1.5.7-2.7 2.3-2.4 4 .3 1.8.6 2.4 1.1 4.2-2.1-.4-3.1 1-4.4 2.8-1.3 1.7-1.2 4.5.5 5.9.7.6 1.6.9 2.4 1.3.2.1.5.2.6.5.1.3-.1.5-.3.8-1.5 2.2-2.3 4.8-2.4 7.4 0 .4 0 .9.2 1.3.4.8 1.3 1.1 2.2 1.2.9 0 1.7-.2 2.6-.1.3 0 .6.1.8.2.5.3.5 1 .4 1.6-.1 1.2-.2 2.4-.3 3.7-.1.7-.1 1.4.2 2 .4 1 1.6 1.5 2.6 1.8 1.5.4 2.1 1.1 3.1-.1 0 0 .9-1.3.1-3.9-.8-2.9-3.4-7.2-4.9-11.8z"/>
    <path fill="#FFA15A" d="M480.101 178.5s-.7-6.7-3.2-5.1c-2.5 1.6-2.4 9.7 3.7 9.4 6-.2 5-1.7 5-1.7l-5.5-2.6z"/>
    <path fill="#1E1982" d="M423.4 193.2l-2.1 28.7 13.2 1.3 1.6-27.7-12.7-2.3z"/>
    <path fill="#AEC7FF" d="M425.2 195.1l-1.7 25.3 9.8.9 1.5-24.5-9.6-1.7z"/>
    <path fill="#CFE0FF" d="M424.4 206.8l10-10h.4l-.3 4.6-10.3 10.3.2-4.9zM424 213.5l10.4-10.4-.1.5-.2 4.5-10.4 10.4.3-5z"/>
</svg>
