<svg xmlns="http://www.w3.org/2000/svg" width="15" height="16" viewBox="0 0 15 16">
    <path fill="#585858" d="M7.753 0c2.245 0 4.183 1.53 4.645 3.667.462 2.137-.678 4.297-2.733 5.177 2.931.844 5.088 3.585 5.088 6.825V16h-14v-.331c0-3.24 2.155-5.98 5.087-6.825-2.055-.88-3.195-3.04-2.733-5.177C3.569 1.53 5.507 0 7.753 0zm0 9.236c-3.382 0-6.142 2.708-6.311 6.102l12.623.001c-.17-3.395-2.93-6.103-6.312-6.103zm0-8.574c-2.246 0-4.067 1.771-4.067 3.956.002 2.184 1.822 3.954 4.067 3.957 2.247 0 4.068-1.772 4.068-3.957 0-2.185-1.82-3.956-4.068-3.956z"/>
</svg>
