<svg xmlns="http://www.w3.org/2000/svg" xmlns:xlink="http://www.w3.org/1999/xlink" width="78" height="80" viewBox="0 0 78 80">
    <defs>
        <linearGradient id="ps575jjzvc" x1="110.89%" x2="-21.419%" y1="85.609%" y2=".839%">
            <stop offset="0%" stop-color="#ED1D32"/>
            <stop offset="100%" stop-color="#7F132A"/>
        </linearGradient>
        <linearGradient id="gkv9w1zwsd" x1="64.719%" x2="35.309%" y1="57.866%" y2="30.878%">
            <stop offset="0%" stop-color="#3C66B0"/>
            <stop offset="100%" stop-color="#1A2557"/>
        </linearGradient>
        <linearGradient id="xld1e67bje" x1="91.351%" x2="-5.554%" y1="86.887%" y2="19.633%">
            <stop offset="0%" stop-color="#3C66B0"/>
            <stop offset="100%" stop-color="#1A2557"/>
        </linearGradient>
        <linearGradient id="t7dkhrricf" x1="-.007%" x2="99.994%" y1="49.919%" y2="49.919%">
            <stop offset="0%" stop-color="#ED1D32"/>
            <stop offset="100%" stop-color="#7F132A"/>
        </linearGradient>
        <filter id="3ffc5fi8ga" width="217.4%" height="212.5%" x="-58.7%" y="-43.8%" filterUnits="objectBoundingBox">
            <feMorphology in="SourceAlpha" radius="2" result="shadowSpreadOuter1"/>
            <feOffset dy="6" in="shadowSpreadOuter1" result="shadowOffsetOuter1"/>
            <feGaussianBlur in="shadowOffsetOuter1" result="shadowBlurOuter1" stdDeviation="10"/>
            <feColorMatrix in="shadowBlurOuter1" values="0 0 0 0 0.533333333 0 0 0 0 0.533333333 0 0 0 0 0.533333333 0 0 0 0.364319274 0"/>
        </filter>
        <rect id="w3nj0bldub" width="46" height="48" x="0" y="0" rx="23"/>
    </defs>
    <g fill="none" fill-rule="evenodd" transform="translate(16 10)">
        <use fill="#000" filter="url(#3ffc5fi8ga)" xlink:href="#w3nj0bldub"/>
        <use fill="#C3E8FF" xlink:href="#w3nj0bldub"/>
        <g fill-rule="nonzero">
            <path fill="#002B61" d="M10.156 11.575l-1.178.053c-.74-1.904-1.846-4.779-2.586-6.683-.344-.887-.689-1.767-1.034-2.654-.029-.076-.057-.16-.093-.273l1.544.91.093.273c.345.887.69 1.767 1.035 2.655.747 1.911 1.487 3.815 2.22 5.719" transform="translate(4 10)"/>
            <path fill="url(#ps575jjzvc)" d="M8.454 7.471C7.484 5.332 6.155 3.49 4.396 2.01 3.462 1.229 2.478.546 1.379.053L.022 3.33c.136.023.272.045.409.076 3.132.637 5.775 2.177 7.88 4.725.164.197.33.395.488.6l.107-.069c-.158-.402-.28-.804-.452-1.19z" transform="translate(4 10) translate(27.51 8.723)"/>
            <g>
                <path fill="#002B61" d="M13.848 20.388l-1.544-.91c.086-.212.15-.371.215-.538l3.082-7.782c.014-.038.028-.076.035-.114l1.545.91c-.015.038-.022.076-.036.114l-3.082 7.782c-.057.167-.129.326-.215.538M17.188 11.954l-1.544-.91c.682-1.714 1.364-3.436 2.047-5.15l1.544.91c-.682 1.722-1.365 3.436-2.047 5.15" transform="translate(4 10) translate(5.243)"/>
                <g>
                    <path fill="#002B61" d="M1.566 6.804l-1.544-.91c.114-.258.23-.516.359-.759l1.544.91c-.13.25-.251.5-.36.759" transform="translate(4 10) translate(5.243) translate(17.67)"/>
                    <path fill="#002D64" d="M1.918 6.053l-1.545-.91c.266-.509.554-.994.884-1.434l1.544.91c-.323.44-.618.918-.883 1.434" transform="translate(4 10) translate(5.243) translate(17.67)"/>
                    <path fill="#002F66" d="M2.801 4.612l-1.544-.91c.266-.365.546-.698.855-1.017l1.544.91c-.302.319-.589.66-.855 1.017" transform="translate(4 10) translate(5.243) translate(17.67)"/>
                    <path fill="#003169" d="M3.656 3.603l-1.544-.91c.294-.304.61-.592.94-.85l1.545.91c-.33.258-.647.546-.941.85" transform="translate(4 10) translate(5.243) translate(17.67)"/>
                    <path fill="#00336B" d="M4.604 2.753l-1.544-.91c.373-.288.761-.554 1.185-.789l1.544.91c-.424.236-.819.494-1.185.79" transform="translate(4 10) translate(5.243) translate(17.67)"/>
                    <path fill="#00346E" d="M5.782 1.957l-1.544-.91.007-.008c.438-.25.89-.447 1.343-.607l1.544.91c-.46.16-.905.357-1.343.607 0 .008 0 .008-.007.008" transform="translate(4 10) translate(5.243) translate(17.67)"/>
                    <path fill="#003671" d="M7.14 1.35L5.594.44C6.205.235 6.838.106 7.491.046l1.545.91c-.654.053-1.286.19-1.897.394" transform="translate(4 10) translate(5.243) translate(17.67)"/>
                </g>
                <path fill="#002B61" d="M11.6 28.61l-1.544-.91c-.044-.022-.08-.068-.108-.144-1.516-3.906-3.031-7.805-4.554-11.703-.014-.038-.021-.076-.021-.084l1.544.91c.007.016.007.053.021.084 1.516 3.899 3.039 7.797 4.554 11.703.036.076.072.122.108.145" transform="translate(4 10) translate(5.243)"/>
                <g>
                    <path fill="#003671" d="M1.602 2.488l-1.545-.91c.82-.228 1.63-.417 2.435-.683.08-.023.158-.053.23-.076l1.544.91c-.079.023-.158.053-.23.076-.797.266-1.615.463-2.434.683" transform="translate(4 10) translate(5.243) translate(5.315 14.184)"/>
                    <path fill="#00346E" d="M4.274 1.737L2.729.827C3.455.584 4.173.288 4.927 0l1.544.91c-.754.28-1.472.577-2.197.827" transform="translate(4 10) translate(5.243) translate(5.315 14.184)"/>
                </g>
                <g>
                    <path fill="url(#gkv9w1zwsd)" d="M21.885 1.047c-1.91 1.077-3.31 2.708-4.23 4.854-.683 1.714-1.365 3.436-2.047 5.15-.015.038-.022.076-.036.114l-3.082 7.782c-.064.167-.129.326-.215.539-.704-1.813-1.386-3.565-2.061-5.294-.84.31-1.63.637-2.435.902-.805.258-1.616.455-2.435.683.007.015.007.053.021.083 1.516 3.899 3.039 7.798 4.554 11.704.065.174.165.182.309.174l1.94-.159c.624-.053 1.256-.099 1.888-.137.209-.015.295-.106.374-.31 1.752-4.438 3.505-8.875 5.265-13.312.488-1.229.984-2.45 1.472-3.679.438-1.1.87-2.192 1.307-3.292.022-.068.036-.144.058-.205.589-1.494 1.185-2.996 1.774-4.49.273-.69.538-1.373.826-2.093-1.15.083-2.227.402-3.247.986z" transform="translate(4 10) translate(5.243) translate(1.58 .91)"/>
                    <path fill="url(#xld1e67bje)" d="M8.195 9.019c-.222-.577-.46-1.153-.668-1.737-.883-2.443-2.42-4.111-4.697-4.908C1.932 2.064.99 1.957 0 2.025l.093.273c.345.888.69 1.768 1.035 2.655l2.22 5.72c.042 0 .085.007.136 0h.028c1.394-.259 2.737-.752 4.073-1.32.194-.1.402-.228.61-.334z" transform="translate(4 10) translate(5.243) translate(1.58 .91)"/>
                </g>
                <g>
                    <path fill="#003671" d="M1.573.963L.029.053c.998-.068 1.932.03 2.83.349.366.129.718.28 1.048.455l1.545.91c-.33-.174-.683-.326-1.05-.455-.89-.318-1.83-.425-2.829-.349" transform="translate(4 10) translate(5.243) translate(0 1.972)"/>
                    <path fill="#00346E" d="M5.459 1.767L3.914.857c.101.053.194.106.288.16l1.544.91c-.093-.061-.194-.114-.287-.16" transform="translate(4 10) translate(5.243) translate(0 1.972)"/>
                </g>
            </g>
            <path fill="url(#t7dkhrricf)" d="M15.68 9.678c-.611.228-1.236.425-1.854.638-.222.098-.445.204-.675.288-1.43.478-2.88.88-4.381 1.031-.058.008-.115-.007-.172-.015-.927.13-1.854.106-2.773-.06-2.183-.387-4.094-1.252-5.3-3.36-.101-.167-.266-.296-.403-.44l-.108.068c.058.182.087.371.166.538.308.63.596 1.275.955 1.874.618 1.016 1.214 2.063 1.946 2.98 1.588 1.98 3.742 2.792 6.134 2.966 1.702.122 3.369-.144 5-.675 1.745-.561 5.623-1.82 5.623-1.82s1.588-4.035 2.299-5.742c-.934.068-.015 0-.941.129-1.904.258-3.714.94-5.516 1.6z" transform="translate(4 10)"/>
        </g>
    </g>
</svg>
