<svg xmlns="http://www.w3.org/2000/svg" width="170" height="91" viewBox="0 0 170 91">
    <path fill="#5F5F5F" d="M168.025 75.48l1.803.866-5.959 12.412-.769 1.603-.97-1.49-7.514-11.537 1.676-1.091 6.182 9.492.647-.041 4.904-10.213zm-5.252-1.891c.122.711.234 1.428.34 2.185l.079.575.086 1.318-1.996.13-.08-1.249c-.078-.588-.164-1.172-.256-1.753l-.144-.869 1.971-.337zm-3.07-11.778c.34.951.661 1.913.96 2.886l.293.977-1.92.56c-.277-.952-.575-1.892-.892-2.822l-.324-.926 1.883-.675zm-5.122-10.957c.515.876 1.009 1.764 1.482 2.663l.465.903-1.785.902c-.444-.878-.909-1.745-1.394-2.602l-.492-.852 1.724-1.014zm-7.145-9.902c.67.77 1.32 1.551 1.95 2.343l.623.796-1.584 1.22c-.598-.775-1.215-1.54-1.853-2.295l-.644-.75 1.508-1.314zm-8.74-8.478c.79.652 1.56 1.313 2.312 1.985l.746.675-1.351 1.474c-.72-.66-1.46-1.312-2.217-1.953l-.763-.639 1.273-1.542zm-9.892-7.056c.87.538 1.724 1.085 2.562 1.64l.833.558-1.122 1.655c-.81-.549-1.636-1.09-2.477-1.622l-.847-.53 1.05-1.7zm-10.653-5.767c.82.389 1.629.784 2.427 1.185l1.19.606-.92 1.777c-.773-.4-1.557-.795-2.353-1.183l-1.201-.578.857-1.807zm-11.131-4.668c.849.314 1.688.634 2.518.958l1.238.49-.745 1.856c-.809-.325-1.628-.644-2.456-.96l-1.25-.468.695-1.876zm-11.474-3.766c.868.252 1.727.508 2.579.769l1.27.394-.6 1.908c-.833-.262-1.675-.52-2.525-.773l-1.281-.377.557-1.92zm-11.683-3.01c.88.201 1.753.405 2.618.613l1.293.315-.479 1.942c-.85-.21-1.708-.416-2.573-.618l-1.303-.3.444-1.951zM72.045 5.833c.886.156 1.766.316 2.64.48l1.305.247-.378 1.964c-.86-.165-1.727-.327-2.6-.486l-1.315-.235.348-1.97zM60.143 3.991c.892.12 1.778.242 2.658.368l1.316.191-.292 1.979c-.869-.128-1.743-.253-2.623-.375l-1.325-.181.266-1.982zm-11.95-1.386c.896.088 1.786.18 2.671.273l1.324.143-.218 1.988c-.875-.096-1.756-.19-2.641-.28l-1.332-.134.196-1.99zM36.2 1.61c.897.061 1.79.125 2.677.19l1.328.102-.155 1.994c-.879-.068-1.762-.134-2.65-.197l-1.336-.093.136-1.996zM24.185.956l2.013.088 1.998.095-.1 1.998c-.881-.044-1.766-.086-2.656-.125l-1.338-.058.083-1.998zM12.167.601l2.014.04 2 .048-.05 1.999-1.994-.047-2.006-.04.036-2zM2.16.51l2.001.005-.008 2-1.994-.005-2.007.002-.006-2L2.16.509z"/>
</svg>
