<svg xmlns="http://www.w3.org/2000/svg" width="14" height="16" viewBox="0 0 14 16">
    <path fill="#585858" d="M7 0c2.245 0 4.184 1.53 4.646 3.667.462 2.137-.679 4.297-2.734 5.177C11.843 9.688 14 12.429 14 15.669V16H0v-.331c0-3.24 2.155-5.98 5.088-6.825-2.055-.88-3.196-3.04-2.734-5.177C2.816 1.53 4.754 0 7 0zm0 9.236C3.62 9.236.86 11.944.69 15.338l12.622.001c-.169-3.395-2.93-6.103-6.311-6.103zM7 .662c-2.246 0-4.067 1.771-4.067 3.956C2.936 6.802 4.755 8.572 7 8.575c2.246 0 4.068-1.772 4.068-3.957C11.069 2.433 9.247.662 7 .662z"/>
</svg>
