<svg xmlns="http://www.w3.org/2000/svg" width="206" height="36" fill="none" viewBox="0 0 206 36">
    <g fill="#fff" clip-path="url(#clip0)">
        <path d="M12.26 13.488l-1.423.062c-.893-2.218-2.228-5.568-3.12-7.787L6.466 2.67c-.034-.089-.069-.186-.112-.318l1.864 1.06c.043.124.078.221.113.318.416 1.035.832 2.06 1.248 3.094.902 2.227 1.795 4.446 2.68 6.664zM43.41 18.871c-1.17-2.492-2.774-4.64-4.898-6.364-1.128-.91-2.315-1.706-3.642-2.28l-1.638 3.818c.164.027.329.053.494.088 3.78.743 6.97 2.537 9.51 5.507.2.23.4.46.59.698l.13-.08c-.19-.468-.338-.936-.546-1.387zM23.044 23.76l-1.864-1.062c.105-.247.183-.433.26-.627l3.72-9.069c.017-.044.035-.088.043-.132l1.864 1.06c-.017.045-.026.089-.043.133l-3.72 9.068c-.069.195-.155.38-.26.628zM27.076 13.93l-1.864-1.06c.824-1.998 1.647-4.005 2.47-6.002l1.865 1.06c-.824 2.007-1.647 4.004-2.471 6.002z"/>
        <path d="M29.547 7.93l-1.864-1.062c.139-.3.277-.6.433-.883l1.864 1.06c-.156.292-.303.584-.433.884z"/>
        <path d="M29.972 7.054l-1.864-1.06c.32-.593.667-1.158 1.066-1.671l1.864 1.06c-.39.513-.745 1.07-1.066 1.671zM31.038 5.374l-1.864-1.06c.32-.425.659-.814 1.032-1.185l1.864 1.06c-.364.372-.711.77-1.032 1.185z"/>
        <path d="M32.07 4.2l-1.864-1.061c.355-.354.737-.69 1.136-.99l1.864 1.06c-.4.3-.78.637-1.136.99zM33.214 3.21L31.35 2.148c.451-.336.92-.646 1.43-.92l1.865 1.061c-.512.274-.989.575-1.43.92zM34.636 2.281l-1.864-1.06.009-.009C33.31.92 33.856.69 34.402.505l1.864 1.06c-.555.186-1.092.416-1.621.708 0 .008 0 .008-.009.008z"/>
        <path d="M36.275 1.574L34.41.514c.737-.24 1.5-.39 2.288-.46l1.864 1.06c-.788.062-1.551.221-2.288.46zM20.33 33.34l-1.863-1.06c-.052-.027-.096-.08-.13-.169-1.83-4.552-3.659-9.095-5.497-13.638-.017-.044-.026-.088-.026-.097l1.864 1.06c.009.018.009.063.026.098 1.83 4.543 3.667 9.086 5.497 13.638.043.088.086.141.13.168zM14.678 19.428l-1.864-1.06c.988-.265 1.968-.486 2.94-.796.095-.026.19-.062.277-.088l1.864 1.06c-.096.027-.191.062-.278.089-.962.31-1.95.54-2.939.795z"/>
        <path d="M17.903 18.554l-1.864-1.061c.876-.283 1.743-.628 2.653-.963l1.864 1.06c-.91.327-1.777.672-2.653.964z"/>
        <path d="M34.653 2.281c-2.306 1.255-3.996 3.155-5.106 5.657-.824 1.997-1.647 4.004-2.471 6.001-.017.044-.026.089-.043.133l-3.72 9.068c-.078.195-.156.38-.26.628-.85-2.113-1.673-4.154-2.488-6.17-1.015.363-1.968.743-2.94 1.052-.97.3-1.95.53-2.938.796.008.017.008.062.026.097 1.83 4.543 3.667 9.086 5.496 13.638.078.203.2.212.373.203l2.341-.185c.754-.062 1.517-.115 2.28-.16.252-.017.356-.123.451-.362 2.116-5.17 4.231-10.341 6.355-15.512.59-1.431 1.188-2.854 1.777-4.286.53-1.282 1.05-2.555 1.578-3.836.026-.08.044-.168.07-.239.71-1.741 1.43-3.491 2.141-5.232.33-.805.65-1.6.997-2.44-1.387.097-2.688.469-3.919 1.15zM18.129 11.57c-.27-.671-.555-1.343-.807-2.024-1.066-2.846-2.921-4.79-5.67-5.718-1.083-.363-2.22-.486-3.416-.407l.113.318c.416 1.035.832 2.06 1.248 3.094.894 2.218 1.787 4.446 2.68 6.664.052 0 .104.01.164 0h.035c1.682-.3 3.303-.875 4.916-1.538.234-.114.485-.265.737-.389z"/>
        <path d="M8.228 3.421l-1.864-1.06c1.205-.08 2.332.035 3.416.406.442.15.867.327 1.265.53l1.864 1.061c-.398-.203-.823-.38-1.265-.53-1.075-.371-2.211-.495-3.416-.407zM12.918 4.358l-1.864-1.06c.121.062.234.124.347.185l1.864 1.061c-.113-.07-.234-.132-.347-.186zM18.926 11.28c-.737.264-1.49.494-2.236.742-.27.114-.538.238-.816.335-1.725.557-3.476 1.026-5.288 1.203-.07.008-.139-.01-.208-.018-1.119.15-2.237.124-3.347-.07-2.635-.452-4.942-1.46-6.398-3.916-.121-.195-.32-.345-.486-.513l-.13.08c.07.212.104.433.2.627.373.734.72 1.485 1.153 2.183.745 1.185 1.465 2.404 2.35 3.474 1.915 2.307 4.516 3.252 7.403 3.456 2.055.141 4.067-.168 6.035-.787 2.106-.654 6.788-2.121 6.788-2.121s1.916-4.702 2.774-6.691c-1.127.08-.017 0-1.135.15-2.298.3-4.483 1.096-6.659 1.865zM66.2 2.519l-6.107 15.697h-3.96L50.052 2.52h4.347l3.856 10.218L62.19 2.519H66.2zM67.365 4.06c-.44-.428-.647-.97-.647-1.626 0-.657.207-1.17.647-1.627.44-.428 1.009-.657 1.708-.657.698 0 1.268.2 1.708.628.44.4.647.942.647 1.57 0 .685-.207 1.227-.647 1.684-.44.428-1.01.656-1.708.656-.699.029-1.268-.17-1.708-.628z"/>
        <path fill-rule="evenodd" d="M85.221 18.216V1.578h-3.856v5.537c-.724-.827-1.734-1.256-3.054-1.256-1.009 0-1.915.257-2.743.771-.828.514-1.475 1.256-1.967 2.198-.491.942-.724 2.055-.724 3.31 0 1.256.233 2.37.724 3.311.492.942 1.14 1.684 1.967 2.198.828.513 1.734.77 2.743.77 1.45 0 2.51-.456 3.235-1.398v1.198h3.675zm-3.804-6.107c0 .913-.207 1.627-.647 2.14-.44.514-.983.771-1.656.771-.673 0-1.217-.257-1.657-.77-.44-.514-.647-1.228-.647-2.141 0-.914.207-1.598.647-2.112.414-.514.984-.77 1.657-.77.672 0 1.242.256 1.656.77.44.514.647 1.227.647 2.112z" clip-rule="evenodd"/>
        <path d="M98.16 7.2c.829.885 1.243 2.255 1.243 4.053v6.935h-3.856v-6.25c0-1.655-.596-2.483-1.812-2.483-.673 0-1.19.228-1.604.713-.388.486-.596 1.199-.596 2.14v5.88H87.68V1.55h3.855v5.594c.415-.428.906-.77 1.475-.999.57-.228 1.191-.342 1.838-.342 1.371.057 2.484.513 3.312 1.398zM113.222 6.058l-4.736 12.644c-.543 1.484-1.242 2.54-2.044 3.139-.803.6-1.786.913-2.925.913-.595 0-1.164-.114-1.759-.314-.596-.2-1.061-.456-1.424-.799l1.346-2.968c.207.228.466.4.776.514.311.114.621.2.932.2.362 0 .673-.086.906-.257.233-.172.44-.428.595-.77l-4.71-12.302h3.959l2.692 7.42 2.717-7.42h3.675z"/>
        <path fill-rule="evenodd" d="M124.169 11.481c0-1.883-.492-3.31-1.45-4.224-.957-.941-2.355-1.398-4.166-1.398-.88 0-1.76.114-2.64.37-.88.258-1.604.6-2.225 1.057l1.294 2.883c.362-.314.828-.571 1.371-.771.544-.2 1.087-.285 1.605-.285 1.475 0 2.251.656 2.329 1.94h-2.2c-1.656 0-2.898.314-3.701.942-.802.628-1.19 1.541-1.19 2.683 0 .713.155 1.341.466 1.912.336.57.802.999 1.423 1.341.621.314 1.372.486 2.226.486 1.63 0 2.717-.6 3.26-1.77v1.57h3.598V11.48zm-3.882 2.826c-.155.456-.388.827-.725 1.056-.336.257-.724.342-1.164.342-.44 0-.803-.114-1.061-.342-.259-.2-.389-.514-.389-.885 0-.828.57-1.227 1.683-1.227h1.656v1.056z" clip-rule="evenodd"/>
        <path d="M128.439 18.045c-1.087-.314-1.967-.742-2.64-1.256l1.32-3.282c.647.457 1.371.828 2.225 1.113.828.286 1.657.429 2.485.429 1.552 0 2.329-.429 2.329-1.285 0-.457-.233-.77-.673-.999-.44-.228-1.139-.456-2.122-.685-1.061-.257-1.967-.513-2.692-.827-.724-.286-1.345-.771-1.837-1.399-.517-.628-.776-1.513-.776-2.597 0-.942.233-1.827.698-2.597.466-.77 1.191-1.37 2.123-1.827.931-.456 2.096-.685 3.467-.685.932 0 1.864.114 2.769.343.906.228 1.708.57 2.407 1.027L136.28 6.8c-1.346-.799-2.666-1.198-3.934-1.198-.802 0-1.371.142-1.759.4-.363.256-.544.599-.544 1.027 0 .428.207.742.647.941.44.2 1.139.429 2.096.657 1.087.257 1.993.514 2.692.828.698.314 1.319.742 1.837 1.398.518.628.776 1.484.776 2.597 0 .942-.233 1.798-.698 2.569-.466.77-1.191 1.37-2.122 1.827-.958.456-2.097.684-3.442.684-1.191 0-2.304-.17-3.39-.485z"/>
        <path fill-rule="evenodd" d="M150.073 11.481c0-1.883-.491-3.31-1.449-4.224-.957-.941-2.355-1.398-4.166-1.398-.88 0-1.76.114-2.64.37-.88.258-1.605.6-2.226 1.057l1.294 2.883c.363-.314.828-.571 1.372-.771.543-.2 1.087-.285 1.604-.285 1.475 0 2.252.656 2.329 1.94h-2.199c-1.656 0-2.899.314-3.701.942-.802.628-1.19 1.541-1.19 2.683 0 .713.155 1.341.466 1.912.336.57.802.999 1.423 1.341.621.314 1.371.486 2.225.486 1.631 0 2.718-.6 3.261-1.77v1.57h3.597V11.48zm-3.856 2.826c-.155.456-.388.827-.724 1.056-.363.257-.725.342-1.165.342-.44 0-.802-.114-1.061-.342-.259-.2-.388-.514-.388-.885 0-.828.569-1.227 1.682-1.227h1.656v1.056zM164.384 18.216V1.578h-3.856v5.537c-.724-.827-1.734-1.256-3.053-1.256-1.01 0-1.915.257-2.744.771-.828.514-1.475 1.256-1.966 2.198-.492.942-.725 2.055-.725 3.31 0 1.256.233 2.37.725 3.311.491.942 1.138 1.684 1.966 2.198.829.513 1.734.77 2.744.77 1.449 0 2.51-.456 3.234-1.398v1.198h3.675zm-3.804-6.107c0 .913-.207 1.627-.647 2.14-.44.514-.983.771-1.656.771-.673 0-1.216-.257-1.656-.77-.44-.514-.647-1.228-.647-2.141 0-.914.207-1.598.647-2.112.414-.514.983-.77 1.656-.77.673 0 1.242.256 1.656.77.44.514.647 1.227.647 2.112z" clip-rule="evenodd"/>
        <path d="M177.324 7.2c.828.885 1.242 2.255 1.242 4.053v6.935h-3.83v-6.25c0-1.655-.595-2.483-1.812-2.483-.673 0-1.19.228-1.604.713-.388.486-.595 1.199-.595 2.14v5.88h-3.856V1.55h3.856v5.594c.414-.428.905-.77 1.475-.999.569-.228 1.19-.342 1.837-.342 1.372.057 2.459.513 3.287 1.398z"/>
        <path fill-rule="evenodd" d="M191.324 11.481c0-1.883-.492-3.31-1.449-4.224-.958-.941-2.355-1.398-4.167-1.398-.88 0-1.759.114-2.639.37-.88.258-1.605.6-2.226 1.057l1.294 2.883c.362-.314.828-.571 1.372-.771.543-.2 1.087-.285 1.604-.285 1.475 0 2.252.656 2.329 1.94h-2.199c-1.657 0-2.899.314-3.701.942-.802.628-1.191 1.541-1.191 2.683 0 .713.156 1.341.466 1.912.337.57.803.999 1.424 1.341.621.314 1.371.486 2.225.486 1.631 0 2.717-.6 3.261-1.77v1.57h3.597V11.48zm-3.856 2.826c-.155.456-.388.827-.724 1.056-.337.257-.725.342-1.165.342-.44 0-.802-.114-1.061-.342-.259-.2-.388-.514-.388-.885 0-.828.569-1.227 1.682-1.227h1.656v1.056z" clip-rule="evenodd"/>
        <path d="M204.238 7.2c.828.884 1.242 2.254 1.242 4.052v6.936h-3.856v-6.25c0-1.656-.595-2.484-1.812-2.484-.673 0-1.19.229-1.604.714-.388.485-.595 1.198-.595 2.14v5.88h-3.856V6.029h3.674v1.313c.44-.485.958-.856 1.553-1.141.595-.257 1.242-.4 1.941-.4 1.372.057 2.484.514 3.313 1.399zM67.957 5.807H71.324V18.378H67.957zM53.888 29.28h-1.856v-.88h4.752v.88h-1.856V34h-1.04v-4.72zm5.154 4.776c-.432 0-.82-.093-1.168-.28-.346-.186-.618-.445-.816-.776-.192-.336-.288-.714-.288-1.136 0-.42.096-.797.288-1.128.198-.33.47-.589.816-.776.347-.186.736-.28 1.168-.28.438 0 .83.094 1.176.28.347.187.616.446.808.776.198.331.296.707.296 1.128 0 .422-.098.8-.296 1.137-.192.33-.46.589-.808.776-.346.186-.738.28-1.176.28zm0-.855c.368 0 .672-.123.912-.368.24-.246.36-.569.36-.968 0-.4-.12-.723-.36-.968-.24-.246-.544-.368-.912-.368s-.672.122-.912.367c-.234.246-.352.569-.352.968 0 .4.118.723.352.969.24.245.544.367.912.367zm9.695-2.113c.309.102.554.272.736.512.18.235.272.529.272.88 0 .486-.187.862-.56 1.129-.374.26-.918.392-1.633.392h-2.784v-5.6h2.624c.662 0 1.171.13 1.529.392.357.256.535.61.535 1.064 0 .277-.064.522-.192.736-.127.213-.303.378-.527.495zm-2.928-1.872v1.544h1.472c.362 0 .64-.064.831-.192.198-.133.297-.325.297-.576 0-.256-.1-.448-.297-.576-.191-.133-.469-.2-.831-.2h-1.473zm1.68 3.968c.805 0 1.207-.269 1.207-.807 0-.54-.402-.809-1.207-.809h-1.68v1.616h1.68zm4.313-2.831c.288-.449.794-.673 1.52-.673v.953c-.085-.017-.163-.024-.232-.024-.39 0-.694.114-.912.343-.219.224-.328.55-.328.976v2.073h-1v-4.272h.952v.623zm2.46-.625h1v4.273h-1v-4.272zm.504-.704c-.182 0-.334-.056-.456-.168-.123-.117-.184-.26-.184-.432 0-.17.06-.311.184-.424.122-.117.274-.175.456-.175.18 0 .333.056.456.168.122.106.184.242.184.408 0 .175-.062.325-.184.448-.118.117-.27.175-.456.175zm4.323.656c.54 0 .971.158 1.296.473.326.314.489.78.489 1.4V34h-1v-2.32c0-.374-.088-.654-.264-.84-.177-.193-.427-.289-.752-.289-.368 0-.66.113-.873.337-.213.218-.32.535-.32.951V34h-1V29.73h.953v.552c.165-.198.373-.347.624-.448.25-.102.533-.152.847-.152zm7.424.049v3.623c0 1.505-.768 2.257-2.304 2.257-.411 0-.8-.054-1.168-.16-.368-.102-.672-.251-.912-.448l.448-.752c.186.154.42.277.704.367.288.096.578.145.872.145.469 0 .813-.107 1.032-.32.218-.214.328-.54.328-.977v-.224c-.171.187-.38.328-.624.424-.246.096-.515.145-.808.145-.406 0-.774-.086-1.104-.256-.326-.176-.584-.422-.776-.736-.187-.315-.28-.675-.28-1.08 0-.406.093-.763.28-1.072.192-.315.45-.558.776-.729.33-.17.698-.256 1.104-.256.309 0 .589.051.84.152.256.102.469.256.64.465v-.569h.952zm-2.28 3.232c.378 0 .688-.112.928-.337.245-.229.368-.525.368-.888 0-.357-.123-.648-.368-.872-.24-.224-.55-.335-.928-.335-.384 0-.7.111-.944.335-.24.224-.36.515-.36.872 0 .363.12.66.36.888.245.224.56.337.944.337zm6.084-4.56h1.04v4.72h2.928V34h-3.968v-5.6zm4.785 1.328h1V34h-1v-4.272zm.504-.704c-.182 0-.334-.056-.456-.168-.123-.118-.184-.262-.184-.433 0-.17.06-.311.184-.424.122-.117.274-.175.456-.175.18 0 .333.056.456.168.122.106.184.242.184.408 0 .175-.062.325-.184.448-.118.117-.27.175-.456.175zm3.636-.208c-.422 0-.633.229-.633.688v.256h1.177v.8H98.64V34h-1v-3.44h-.704v-.8h.704v-.273c0-.458.134-.818.4-1.08.267-.266.643-.4 1.129-.4.383 0 .685.078.903.233l-.28.752c-.17-.118-.354-.176-.552-.176zm5.262 3.072c0 .069-.006.168-.016.296h-3.352c.058.314.21.565.456.752.25.18.56.272.928.272.469 0 .856-.155 1.16-.465l.536.617c-.192.229-.435.402-.728.52-.294.117-.624.175-.992.175-.47 0-.883-.093-1.24-.28-.358-.186-.635-.445-.832-.776-.192-.336-.288-.714-.288-1.136 0-.416.093-.789.28-1.12.192-.335.456-.597.792-.784.336-.186.714-.28 1.136-.28.416 0 .786.094 1.112.28.33.182.586.44.768.776.186.331.28.715.28 1.152zm-2.16-1.409c-.32 0-.592.096-.816.288-.219.187-.352.438-.4.752h2.424c-.043-.309-.174-.56-.392-.752-.219-.192-.491-.288-.816-.288zm8.202 3.6c-.565 0-1.077-.122-1.536-.367-.453-.251-.811-.595-1.072-1.032-.256-.438-.384-.931-.384-1.48 0-.55.131-1.043.392-1.48.261-.438.619-.78 1.072-1.024.459-.251.971-.377 1.536-.377.459 0 .877.08 1.256.24.379.16.699.393.96.697l-.672.631c-.405-.437-.904-.655-1.496-.655-.384 0-.728.085-1.032.255-.304.166-.541.398-.712.697-.171.298-.256.637-.256 1.016 0 .378.085.717.256 1.016.171.298.408.533.712.703.304.166.648.248 1.032.248.592 0 1.091-.22 1.496-.663l.672.64c-.261.303-.584.535-.968.695-.379.16-.797.24-1.256.24zm5.64-4.4c.538 0 .97.158 1.296.473.325.314.488.78.488 1.4V34h-1v-2.32c0-.374-.088-.654-.264-.84-.176-.193-.427-.289-.752-.289-.368 0-.659.113-.872.337-.214.218-.32.535-.32.951V34h-1v-5.936h1v2.16c.165-.175.368-.309.608-.4.245-.096.517-.144.816-.144zm4.776 0c.629 0 1.109.152 1.44.457.336.298.504.752.504 1.36V34h-.944v-.52c-.123.186-.299.33-.528.431-.224.096-.496.145-.816.145-.32 0-.6-.054-.84-.16-.24-.112-.427-.264-.56-.456-.128-.198-.192-.42-.192-.665 0-.384.141-.69.424-.92.288-.234.738-.352 1.352-.352h1.104v-.064c0-.298-.091-.527-.272-.688-.176-.16-.44-.24-.792-.24-.24 0-.478.038-.712.113-.23.074-.424.178-.584.311l-.392-.727c.224-.171.493-.302.808-.392.314-.091.648-.137 1-.137zm-.136 3.648c.25 0 .472-.056.664-.168.197-.117.336-.282.416-.495v-.496h-1.032c-.576 0-.864.189-.864.568 0 .18.072.325.216.431.144.107.344.16.6.16zm5.879-3.648c.538 0 .97.158 1.296.473.325.314.488.78.488 1.4V34h-1v-2.32c0-.374-.088-.654-.264-.84-.176-.193-.427-.289-.752-.289-.368 0-.659.113-.872.337-.214.218-.32.535-.32.951V34h-1V29.73h.952v.552c.165-.198.373-.347.624-.448.25-.102.533-.152.848-.152zm7.423.049v3.623c0 1.505-.768 2.257-2.304 2.257-.411 0-.8-.054-1.168-.16-.368-.102-.672-.251-.912-.448l.448-.752c.186.154.421.277.704.367.288.096.578.145.872.145.469 0 .813-.107 1.032-.32.218-.214.328-.54.328-.977v-.224c-.171.187-.379.328-.624.424-.246.096-.515.145-.808.145-.406 0-.774-.086-1.104-.256-.326-.176-.584-.422-.776-.736-.187-.315-.28-.675-.28-1.08 0-.406.093-.763.28-1.072.192-.315.45-.558.776-.729.33-.17.698-.256 1.104-.256.309 0 .589.051.84.152.256.102.469.256.64.465v-.569h.952zm-2.28 3.232c.378 0 .688-.112.928-.337.245-.229.368-.525.368-.888 0-.357-.123-.648-.368-.872-.24-.224-.55-.335-.928-.335-.384 0-.699.111-.944.335-.24.224-.36.515-.36.872 0 .363.12.66.36.888.245.224.56.337.944.337zm3.686-3.232h1V34h-1v-4.272zm.504-.704c-.182 0-.334-.056-.456-.168-.123-.118-.184-.262-.184-.433 0-.17.061-.311.184-.424.122-.117.274-.175.456-.175.181 0 .333.056.456.168.122.106.184.242.184.408 0 .175-.062.325-.184.448-.118.117-.27.175-.456.175zm4.324.655c.538 0 .97.158 1.296.473.325.314.488.78.488 1.4V34h-1v-2.32c0-.374-.088-.654-.264-.84-.176-.193-.427-.289-.752-.289-.368 0-.659.113-.872.337-.214.218-.32.535-.32.951V34h-1V29.73h.952v.552c.165-.198.373-.347.624-.448.25-.102.533-.152.848-.152zm7.423.049v3.623c0 1.505-.768 2.257-2.304 2.257-.411 0-.8-.054-1.168-.16-.368-.102-.672-.251-.912-.448l.448-.752c.186.154.421.277.704.367.288.096.578.145.872.145.469 0 .813-.107 1.032-.32.218-.214.328-.54.328-.977v-.224c-.171.187-.379.328-.624.424-.246.096-.515.145-.808.145-.406 0-.774-.086-1.104-.256-.326-.176-.584-.422-.776-.736-.187-.315-.28-.675-.28-1.08 0-.406.093-.763.28-1.072.192-.315.45-.558.776-.729.33-.17.698-.256 1.104-.256.309 0 .589.051.84.152.256.102.469.256.64.465v-.569h.952zm-2.28 3.232c.378 0 .688-.112.928-.337.245-.229.368-.525.368-.888 0-.357-.123-.648-.368-.872-.24-.224-.55-.335-.928-.335-.384 0-.699.111-.944.335-.24.224-.36.515-.36.872 0 .363.12.66.36.888.245.224.56.337.944.337zm7.22-3.68h-1.856v-.88h4.752v.88h-1.856V34h-1.04v-4.72zm7.707.448V34h-.952v-.544c-.16.191-.36.34-.6.447-.24.102-.499.152-.776.152-.571 0-1.022-.157-1.352-.471-.326-.32-.488-.793-.488-1.416v-2.44h1v2.303c0 .385.085.673.256.865.176.186.424.28.744.28.357 0 .64-.11.848-.328.213-.224.32-.544.32-.96v-2.16h1zm3.968 4.04c-.117.096-.261.168-.432.215-.165.048-.341.072-.528.072-.469 0-.832-.122-1.088-.367-.256-.246-.384-.603-.384-1.072V30.56h-.704v-.8h.704v-.976h1v.976h1.144v.8h-1.144v2.032c0 .207.051.367.152.48.102.106.248.16.44.16.224 0 .411-.06.56-.176l.28.712zm.914-4.04h1V34h-1v-4.272zm.504-.704c-.181 0-.333-.056-.456-.168-.122-.118-.184-.262-.184-.433 0-.17.062-.311.184-.424.123-.117.275-.175.456-.175.182 0 .334.056.456.168.123.106.184.242.184.408 0 .175-.061.325-.184.448-.117.117-.269.175-.456.175zm3.82 5.032c-.432 0-.821-.094-1.168-.28-.346-.187-.618-.446-.816-.776-.192-.337-.288-.715-.288-1.136 0-.422.096-.798.288-1.128.198-.331.47-.59.816-.776.347-.187.736-.28 1.168-.28.438 0 .83.093 1.176.28.347.186.616.445.808.776.198.33.296.706.296 1.128 0 .42-.098.8-.296 1.136-.192.33-.461.589-.808.776-.346.186-.738.28-1.176.28zm0-.857c.368 0 .672-.122.912-.367.24-.246.36-.569.36-.968 0-.4-.12-.723-.36-.968-.24-.246-.544-.368-.912-.368s-.672.122-.912.367c-.234.246-.352.569-.352.968 0 .4.118.723.352.969.24.245.544.367.912.367zm5.752-3.52c.539 0 .971.158 1.296.473.325.314.488.78.488 1.4V34h-1v-2.32c0-.374-.088-.654-.264-.84-.176-.193-.427-.289-.752-.289-.368 0-.659.113-.872.337-.213.218-.32.535-.32.951V34h-1V29.73h.952v.552c.165-.198.373-.347.624-.448.251-.102.533-.152.848-.152zm8.014 4.089c-.117.096-.261.168-.432.215-.165.048-.341.072-.528.072-.469 0-.832-.122-1.088-.367-.256-.246-.384-.603-.384-1.072V30.56h-.704v-.8h.704v-.976h1v.976h1.144v.8h-1.144v2.032c0 .207.051.367.152.48.102.106.248.16.44.16.224 0 .411-.06.56-.176l.28.712zm2.694.288c-.432 0-.822-.094-1.168-.28-.347-.187-.619-.446-.816-.776-.192-.337-.288-.715-.288-1.136 0-.422.096-.798.288-1.128.197-.331.469-.59.816-.776.346-.187.736-.28 1.168-.28.437 0 .829.093 1.176.28.346.186.616.445.808.776.197.33.296.706.296 1.128 0 .42-.099.8-.296 1.136-.192.33-.462.589-.808.776-.347.186-.739.28-1.176.28zm0-.857c.368 0 .672-.122.912-.367.24-.246.36-.569.36-.968 0-.4-.12-.723-.36-.968-.24-.246-.544-.368-.912-.368s-.672.122-.912.367c-.235.246-.352.569-.352.968 0 .4.117.723.352.969.24.245.544.367.912.367zm9.358-.495h-2.8L192.104 34h-1.072l2.52-5.6h1.024l2.528 5.6h-1.088l-.56-1.296zm-.344-.816l-1.056-2.448-1.048 2.448h2.104zm2.699-3.825h1v5.937h-1v-5.936zm2.404 0h1v5.937h-1v-5.936z"/>
    </g>
    <defs>
        <clipPath id="clip0">
            <path fill="#fff" d="M0 0H206V36H0z"/>
        </clipPath>
    </defs>
</svg>
