<svg xmlns="http://www.w3.org/2000/svg" width="13" height="17" viewBox="0 0 13 17">
    <g fill="#585858">
        <path d="M9.67 17c.632 0 1.146-.477 1.146-1.063V1.063C10.816.477 10.302 0 9.67 0H1.368C.736 0 .222.477.222 1.063v14.874C.222 16.523.736 17 1.368 17H9.67zM1.368.425H9.67c.38 0 .688.286.688.637V12.62H.68V1.063c0-.352.308-.638.687-.638zM.681 15.937v-2.892h9.677v2.893c0 .351-.309.637-.688.637H1.368c-.379 0-.687-.286-.687-.637z" transform="translate(1.163)"/>
        <path d="M5.658 16c.551 0 1-.517 1-1.153s-.449-1.154-1-1.154c-.551 0-1 .518-1 1.154 0 .636.449 1.153 1 1.153zm0-1.882c.348 0 .631.327.631.729 0 .401-.283.728-.631.728-.348 0-.632-.327-.632-.728 0-.402.284-.729.632-.729zM4.719 1.774h1.6c.091 0 .165-.095.165-.212 0-.118-.074-.213-.165-.213h-1.6c-.091 0-.165.095-.165.213 0 .117.074.212.165.212z" transform="translate(1.163)"/>
    </g>
</svg>
