<svg xmlns="http://www.w3.org/2000/svg" width="45" height="32" viewBox="0 0 45 32">
    <g fill="#AC0619">
        <path d="M38.437 10.666L38.437 13.524 43.88 10.666zM6.563 13.525L6.563 10.666 1.121 10.666 4.316 12.344zM37.875 13.82V.49H7.125v13.33l15.376 8.077 15.374-8.077zM18.588 16.37l-.572-.399 1.078-2.95.986.637c.292.189 1.084.626 2.124.626.768 0 1.265-.338 1.265-.86 0-.344-.116-.757-1.504-1.309-1.683-.646-3.62-1.685-3.62-3.987 0-1.697 1.054-3.067 2.765-3.621V2.499h3.016v1.84c.694.112 1.326.33 1.926.664l.69.385-1.126 2.92-.944-.531c-.317-.18-.91-.512-1.86-.512-.893 0-1.026.414-1.026.661 0 .237 0 .506 1.72 1.224 2.363.945 3.42 2.219 3.422 4.128 0 1.76-1.136 3.226-2.912 3.79v2.074H21v-1.886c-.934-.142-1.803-.46-2.413-.887z"/>
        <path d="M41.504 12.54L38.288 14.229 22.501 22.523 6.711 14.229 3.497 12.54 0.281 10.851 0.281 31.51 44.719 31.51 44.719 10.851z"/>
    </g>
</svg>
