<svg xmlns="http://www.w3.org/2000/svg" width="16" height="16" viewBox="0 0 16 16">
    <g fill="#585858">
        <path d="M14.033 15.234H1.967c-.167 0-.317.153-.317.323s.15.324.317.324h12.05c.166 0 .316-.153.316-.324.017-.17-.133-.323-.3-.323zM15.6.12H.4C.233.12.083.271.083.442v11.234c0 .17.15.323.317.323h6.367v2.077c0 .17.15.323.316.323.167 0 .317-.153.317-.323v-2.4c0-.17-.15-.324-.317-.324H.717V.766h14.566v10.587H8.55c-.167 0-.317.153-.317.324 0 .17.15.323.317.323h7.05c.167 0 .317-.153.317-.323V.443c0-.188-.15-.324-.317-.324z"/>
        <path d="M8.25 8.409h4.85c.167 0 .317-.154.317-.324s-.15-.323-.317-.323H8.25c-.167 0-.317.153-.317.323s.134.324.317.324zM8.25 6.502h4.2c.167 0 .317-.153.317-.323s-.15-.324-.317-.324h-4.2c-.167 0-.317.154-.317.324 0 .187.134.323.317.323zM8.25 4.596h3.967c.166 0 .316-.153.316-.324 0-.17-.15-.323-.316-.323H8.25c-.167 0-.317.153-.317.323s.134.324.317.324zM2.3 6.026c0 1.31 1.05 2.383 2.333 2.383 1.284 0 2.334-1.073 2.334-2.383 0-1.311-1.05-2.383-2.334-2.383C3.35 3.643 2.3 4.715 2.3 6.026zm4.033 0c0 .953-.766 1.736-1.7 1.736-.933 0-1.7-.783-1.7-1.736 0-.954.767-1.737 1.7-1.737.934 0 1.7.783 1.7 1.737z"/>
    </g>
</svg>
