<svg xmlns="http://www.w3.org/2000/svg" xmlns:xlink="http://www.w3.org/1999/xlink" width="32" height="32" viewBox="0 0 32 32">
    <defs>
        <circle id="wkcgnq7aua" cx="16" cy="16" r="16"/>
    </defs>
    <g fill="none" fill-rule="evenodd">
        <mask id="k5ib50rkrb" fill="#fff">
            <use xlink:href="#wkcgnq7aua"/>
        </mask>
        <use fill="#2DC76D" xlink:href="#wkcgnq7aua"/>
        <g fill="#FFF" fill-rule="nonzero" mask="url(#k5ib50rkrb)">
            <g>
                <path d="M14.714 7.551c.274-.31.426-.709.429-1.122V5.57c0-.946-.768-1.714-1.714-1.714-.947 0-1.715.768-1.715 1.714v.858c.003.413.155.812.429 1.122-.13.067-.254.146-.369.236.054.072.104.146.15.223.427.682.651 1.471.647 2.276v.857h3c.237 0 .429-.192.429-.429V9.643c0-.884-.497-1.693-1.286-2.092zM10.711 7.86c-.081-.081-.162-.154-.248-.227-.229-.187-.481-.342-.75-.463.217-.196.394-.434.518-.699.13-.282.197-.589.198-.9v-.857c0-1.183-.96-2.143-2.143-2.143-1.184 0-2.143.96-2.143 2.143v.857c0 .311.068.618.197.9.125.265.301.503.519.699-.27.12-.52.277-.746.467-.284.23-.529.506-.724.814-.348.55-.532 1.185-.532 1.835v1.285c0 .237.192.429.429.429h6c.236 0 .428-.192.428-.429v-1.285c.002-.649-.182-1.284-.531-1.83-.133-.217-.291-.417-.472-.596zM.571 9.643v1.071c0 .237.192.429.429.429h3v-.857c.001-.812.231-1.607.664-2.293.042-.072.09-.14.142-.206-.114-.091-.238-.17-.369-.236.27-.311.42-.71.42-1.122V5.57c0-.946-.767-1.714-1.714-1.714s-1.714.768-1.714 1.714v.858c.002.413.154.812.428 1.122C1.07 7.951.572 8.76.571 9.643zM3.439 12.561c-.11-.108-.268-.15-.416-.11-.149.039-.265.155-.304.303-.04.149.002.307.111.416 1.447 1.447 3.41 2.26 5.456 2.26 2.046 0 4.009-.813 5.455-2.26.168-.168.168-.44 0-.609-.168-.168-.44-.168-.608 0-2.678 2.676-7.017 2.676-9.694 0z" transform="translate(8 8)"/>
                <path d="M13.741 2.867c.082-.08.127-.19.127-.304 0-.114-.045-.224-.127-.304C12.295.81 10.332-.001 8.286-.001c-2.047 0-4.01.812-5.456 2.26-.081.08-.127.19-.127.304 0 .114.046.224.127.304.082.086.195.134.313.133.114 0 .223-.044.304-.124C6.125.2 10.464.2 13.141 2.876c.17.16.436.157.6-.009z" transform="translate(8 8)"/>
            </g>
        </g>
    </g>
</svg>
