<svg xmlns="http://www.w3.org/2000/svg" width="84" height="84" viewBox="0 0 84 84">
    <g fill="none" fill-rule="evenodd" transform="translate(2 2)">
        <circle cx="40" cy="40" r="40" fill="#FFF" stroke="#C4182C" stroke-width="3"/>
        <g fill="#3A61A9" fill-rule="nonzero">
            <path d="M3.792 32.417c2.012-6.12 1.601-7.394 2.883-7.394.621 0 .802.508 1.87 1.483l.184.567h3.951l-.657-2.016c-.18-.676-.616-.917-2.705-3.499l1.452-4.92 3.026 1.183c.701 0 2.6-.885 4.766-1.873.452-.15 1.315-.45 1.473-1.353.082-.485-.048-.984-.363-1.36-.322-.376-.788-.594-1.288-.594l-4.444 1.4c-1.018-.528-3.036-1.332-3.698-1.913-1.532-1.333-4.048-.876-4.896 1.25C-.057 31.832 5.92 12.312.388 31.46c-.253.93.295 1.9 1.192 2.153.205.068.377.075.507.075.794 0 1.479-.513 1.705-1.271z" transform="translate(18.783 19.478)"/>
            <path d="M9.434 11.452c1.753 0 3.178-1.422 3.178-3.164 0-1.75-1.425-3.17-3.178-3.17s-3.177 1.42-3.177 3.17c0 1.742 1.424 3.164 3.177 3.164zM21.638.998L17.794 5.304 21.952 5.304zM27.748.021L22.939.021 23.263 4.456zM22.247 6.671L17.792 6.671 26.912 16.905zM36.982.992L36.766 5.304 40.989 5.304zM29.408 19.078L34.988 6.671 23.752 6.671zM41.032 6.671L36.489 6.671 31.86 16.962zM18.133 24.686h6.335v1.367h-6.58c-.117.344-.265.684-.467 1.015h19.047v-5.616h-19.22c.623 1.156.91 2.225.885 3.234zM31.45 23.14h3.646v1.366h-3.646V23.14zM34.398 5.304L29.409.303 24.352 5.304zM35.659.021L31.06.021 35.439 4.41zM21.456 35.417h.013-.053.007-.162.004L2.28 35.406c.186.346.333.682.462 1.014h10.796v1.366H3.117c.17 1.152-.046 2.222-.663 3.236H21.5v-5.605h-.044zm-1.329 3.736h-4.32v-1.367h4.32v1.367zM24.44 35.417h-1.57v5.605h1.457c1.551 0 2.814-1.26 2.814-2.808 0-1.51-1.203-2.736-2.702-2.797zM21.261 35.417h-.011.011zM10.414 34.04l18.802.01v-5.612H10.235c1.019 1.896 1.29 3.766.18 5.601zm13.792-3.907h3.213v1.366h-3.213v-1.366zm-11.692-.686h4.935v1.366h-4.935v-1.366zM39.294 21.452h-1.457v5.616h1.457c1.552 0 2.814-1.26 2.814-2.808 0-1.548-1.262-2.808-2.814-2.808zM32.039 28.438h-1.213v5.613h1.213c1.552 0 2.815-1.261 2.815-2.81 0-1.546-1.263-2.803-2.815-2.803z" transform="translate(18.783 19.478)"/>
        </g>
    </g>
</svg>
