<svg xmlns="http://www.w3.org/2000/svg" width="1787" height="845" fill="none" viewBox="0 0 1787 845">
    <path fill="url(#paint0_linear)" d="M6 30h1774v750H6V30z" opacity=".9"/>
    <circle cx="1637.5" cy="126.5" r="89.5" fill="#FFEA9C" fill-opacity=".74" opacity=".501"/>
    <circle cx="133.5" cy="538.5" r="133.5" fill="#fff" opacity=".281"/>
    <path fill="#CED2F7" fill-rule="evenodd" d="M1599.09 566.757c-4.53 3.376-9.06 6.751-13.46 10.258l-2.46 1.94c-18.71 14.76-37.53 29.605-58.99 40.237-.88.439-1.88.963-3.02 1.556-12.87 6.691-42.53 22.12-93.11 22.847-.02.192-.03.384-.05.576-15.55-1.135-30.45-4.989-45.13-10.218-27.7-9.932-51.56-25.98-72.19-47.034-2.24-2.323-4.28-4.791-6.34-7.281-1.33-1.605-2.66-3.22-4.06-4.811l1.05-1.261c.48.3.96.603 1.44.905 2.28 1.448 4.57 2.892 7.01 4.072 70.05 33.796 112.06 24.657 120.52 22.456.05-.556.08-.849.08-.849s55.26-13.41 149.71-97.829c17.93-13.147 37.38-23.328 58.83-29.12 30.15-8.092 59.96-7.699 87.51 8.814 10.74 6.467 20.65 14.422 30.51 22.342 1.84 1.472 3.67 2.944 5.51 4.404 5.23 4.216 10.05 8.921 14.87 13.622 1.49 1.447 2.97 2.893 4.46 4.324 1.07 1.051 1.91 2.301 2.77 3.566.46.692.93 1.388 1.44 2.057l-1.05 1.258c-.67-.333-1.38-.64-2.08-.947-1.65-.718-3.31-1.439-4.65-2.513-23.38-19.641-50.4-21.693-78.85-16.977-11.99 1.938-23.49 5.599-34.38 11.041-.18.039-.37.072-.56.105-.56.099-1.12.198-1.62.448-17.87 8.145-34.11 19.016-49.78 30.686-1.93 1.513-3.75 3.167-5.56 4.813-.53.48-1.06.959-1.59 1.434-2.25 1.704-4.51 3.392-6.78 5.079z" clip-rule="evenodd" opacity=".146"/>
    <ellipse cx="188.5" cy="46" stroke="#fff" stroke-width="12" opacity=".301" rx="40.5" ry="40"/>
    <path fill="#fff" d="M6 681s-26.614 33.131 288.609 8.891c315.224-24.241 568.334-158.451 961.971-17.146C1650.23 814.05 1780 753.153 1780 753.153V845L6 813.482"/>
    <defs>
        <linearGradient id="paint0_linear" x1="1094.26" x2="1166.25" y1="-162" y2="1152.4" gradientUnits="userSpaceOnUse">
            <stop offset=".057" stop-color="#F53B0A"/>
            <stop offset=".568" stop-color="#93276C"/>
            <stop offset="1" stop-color="#000AFF"/>
        </linearGradient>
    </defs>
</svg>
