<svg xmlns="http://www.w3.org/2000/svg" width="723" height="393" fill="none" viewBox="0 0 723 393">
    <path fill="#DEE7F6" d="M89.36 380.002s-75.247-80.733-12.728-168.139c55.468-77.551 120.147-72.25 167.594-40.778 20.212 13.405 78.479 1.65 128.073-77.259 67.633-107.618 302.065-42.345 259.317 123.222-20.687 80.123 62.954 83.035 20.335 163.131l-562.591-.177z"/>
    <path fill="#C1D2EC" d="M233.855 223.923s-37.226-52.947-51.774-46.085c-14.541 6.862 51.774 46.085 51.774 46.085zM231.491 209.691s-5.685-39.814-14.65-38.253c-8.965 1.568 14.65 38.253 14.65 38.253z"/>
    <path fill="#98B2DD" d="M200.017 333.788s3.58-17.715-10.316-19.941c0 0-9.427-.326-14.976 3.224 0 0 15.757 9.095 13.882 11.918-1.874 2.824-16.83-11.395-16.83-11.395s-16.891 7.391-20.667 12.753c0 0 19.961 3.556 17.448 5.83-2.513 2.281-23.459-.455-23.459-.455s-13.495 10.867-7.621 19.514c5.882 8.646 12.586 8.585 14.711 7.085 2.126-1.5 12.518-13.92 13.842-12.23 1.325 1.69-3.253 12.176-8.666 15.57 0 0 16.993 5.721 22.114-1.527 5.121-7.249 2.751-12.883 5.997-17.301 3.247-4.418 6.968-6.495 6.303-3.461-.666 3.033-7.451 9.407-7.478 15.203-.027 5.796-.604 10.011 6.018 4.887 6.622-5.125 15.424-16.975 12.551-23.314l-2.853-6.36z"/>
    <path fill="#4756A5" d="M144.956 351.38s39.644-24.176 55.061-17.592c0 0 5.291 4.819 14.392 6.808l2.391 2.056s-11.159-3.475-13.917-2.525c0 0-4.088-16.54-57.927 11.253z"/>
    <path fill="#4756A5" d="M214.409 340.596s12.286 1.574 19.309 12.719l-1.501 1.025s-9.414-10.324-17.034-12.163c-7.607-1.846-.774-1.581-.774-1.581z"/>
    <path fill="#C1D2EC" d="M212.155 282.09s28.784-16.106 15.35-37.968c0 0-10.745-13.425-22.264-16.873 0 0 6.14 32.599 0 33.366-6.14.767-4.224-36.82-4.224-36.82s-30.319-14.572-42.218-13.425c0 0 18.806 31.832 12.666 31.065-6.139-.767-27.248-32.986-27.248-32.986s-31.086-5.756-36.078 12.658c-4.992 18.407 3.07 27.617 7.674 28.764 4.605 1.147 34.156.767 33.389 4.602-.768 3.835-20.729 9.97-31.854 6.522 0 0 12.28 30.299 28.404 28.765 16.117-1.534 21.109-11.505 31.086-12.272 9.977-.767 17.271 1.921 12.279 4.602-4.992 2.688-21.876.882-29.938 7.731-8.062 6.848-14.582 11.063.38 14.137 14.97 3.068 41.838 1.154 47.21-10.357l5.386-11.511z"/>
    <path fill="#4756A5" d="M122.34 226.862s80.598 26.084 89.808 55.228c0 0-.387 13.038 7.674 27.997v5.756s-8.442-19.561-13.047-22.249c0 .007 18.039-25.309-84.435-66.732z"/>
    <path fill="#4756A5" d="M219.829 310.094s12.429 18.861 5.345 41.822l-3.199-.855s3.104-25.289-3.396-38.008c-6.506-12.726 1.25-2.959 1.25-2.959z"/>
    <path fill="#E75755" d="M241.407 147.316L198.34 369.822c-.876 4.527 2.595 8.728 7.206 8.728h22.712l13.149-231.234z"/>
    <path fill="#98B2DD" d="M527.695 211.008s-19.371-12.353-9.156-27.013c0 0 8.008-8.905 16.151-10.846 0 0-5.569 22.425-1.331 23.205 4.238.781 4.408-25.431 4.408-25.431s21.666-8.926 29.891-7.65c0 0-14.352 21.387-10.046 21.095 4.3-.285 20.267-21.848 20.267-21.848s21.849-2.762 24.58 10.242c2.737 12.997-3.24 19.079-6.486 19.696-3.247.618-23.785-.828-23.405 1.867.38 2.694 14.011 7.758 21.89 5.803 0 0-9.753 20.579-20.898 18.868-11.146-1.71-14.222-8.843-21.13-9.773-6.907-.93-12.089.645-8.72 2.708 3.362 2.063 15.179 1.486 20.511 6.57 5.331 5.084 9.699 8.274-.829 9.814-10.534 1.534-29.137-.868-32.41-9.081l-3.287-8.226z"/>
    <path fill="#98B2DD" d="M592.346 176.189s-57.085 14.919-64.658 34.826c0 0-.251 9.081-6.459 19.16l-.231 3.998s6.656-13.263 9.964-14.946c.006 0-11.526-18.325 61.384-43.038z"/>
    <path fill="#98B2DD" d="M521.236 230.175s-9.4 12.617-5.386 28.866l2.255-.468s-1.148-17.708 3.885-26.294c5.032-8.586-.754-2.104-.754-2.104z"/>
    <path fill="#fff" d="M475.534 157.409s-29.762-6.529-23.751-29.457c0 0 5.902-14.741 15.153-20.877 0 0 3.314 30.461 8.944 29.497 5.638-.964-6.139-33.678-6.139-33.678s22.895-21 33.721-23.172c0 0-8.089 33.176-2.866 30.855 5.223-2.321 15.241-36.454 15.241-36.454s25.937-13.412 35.283 1.527c9.345 14.939 4.693 25.235.93 27.482-3.762 2.253-29.992 9.827-28.281 13.011 1.705 3.183 20.994 3.264 29.911-2.769 0 0-2.73 30.074-17.393 33.033-14.664 2.959-21.748-4.52-30.774-2.525-9.026 1.995-14.752 6.319-9.624 7.357 5.128 1.039 19.574-5.083 28.532-1.187 8.959 3.895 15.859 5.877 3.451 12.597-12.409 6.719-36.669 12.217-44.507 3.488l-7.831-8.728z"/>
    <path fill="#fff" d="M540.111 84.535s-64.251 44.639-64.584 72.874c0 0 3.838 11.423.72 26.803l1.542 5.083s2.221-19.554 5.569-23.158c.007 0-22.725-17.545 56.753-81.602z"/>
    <path fill="#fff" d="M476.254 184.212s-5.929 20.002 6.493 38.402l2.595-1.616s-9.523-21.522-7.186-34.506c2.336-12.991-1.902-2.28-1.902-2.28z"/>
    <path fill="#4163AE" d="M241.924 146.414l-28.546 218.467c-.944 7.242 4.7 13.669 12.008 13.669h41.878l-23.608-232.924-1.732.788z"/>
    <path fill="#7089C5" d="M241.924 146.414l-12.783 217.075c-.482 8.172 6.018 15.061 14.209 15.061h62.457l-63.883-232.136z"/>
    <path fill="#4756A5" d="M241.448 148.185l6.215 215.304c-.482 8.172 6.017 15.061 14.208 15.061h62.458l-82.881-230.365z"/>
    <path fill="#fff" d="M540.478 378.55H294.214c-6.147 0-11.417-4.392-12.524-10.439l-37.471-204.784c-1.698-9.298 5.447-17.864 14.902-17.864h243.363c6.147 0 11.417 4.392 12.524 10.432l37.994 207.635c1.426 7.819-4.578 15.02-12.524 15.02z"/>
    <path fill="#F37269" d="M249.089 189.926h272.317l-6.982-38.666c-.605-3.353-3.525-5.797-6.941-5.797H243.716c-1.439 0-2.533 1.304-2.268 2.722l7.641 41.741z"/>
    <path fill="#4163AE" d="M255.459 133.83c-6.513 0-11.804 5.287-11.804 11.796h2.269c0-5.253 4.279-9.529 9.535-9.529 5.257 0 9.543 4.276 9.543 9.529 0 1.059-.17 2.07-.489 3.021-.937 2.803-3.145 5.029-5.929 5.993-.815.285-1.678.461-2.574.509v2.267c1.046-.048 2.057-.231 3.015-.537 3.831-1.208 6.819-4.33 7.858-8.232.258-.964.394-1.976.394-3.021-.013-6.509-5.311-11.796-11.818-11.796z"/>
    <path fill="#4163AE" d="M259.106 156.194c0 .238-.034.468-.088.679-.299 1.079-1.29 1.873-2.465 1.873-1.413 0-2.554-1.147-2.554-2.552 0-1.412 1.148-2.552 2.554-2.552.822 0 1.555.394 2.024.998.332.427.529.97.529 1.554zM297.786 133.83c-6.514 0-11.805 5.287-11.805 11.796h2.269c0-5.253 4.279-9.529 9.542-9.529 5.257 0 9.536 4.276 9.536 9.529 0 1.059-.17 2.07-.489 3.021-.937 2.803-3.145 5.029-5.929 5.993-.815.285-1.678.461-2.581.509v2.267c1.046-.048 2.058-.231 3.015-.537 3.831-1.208 6.826-4.33 7.859-8.232.258-.964.393-1.976.393-3.021-.006-6.509-5.297-11.796-11.81-11.796z"/>
    <path fill="#4163AE" d="M301.434 156.194c0 .238-.034.468-.096.679-.298 1.079-1.283 1.873-2.465 1.873-1.413 0-2.554-1.147-2.554-2.552 0-1.412 1.148-2.552 2.554-2.552.829 0 1.555.394 2.024.998.34.427.537.97.537 1.554zM340.113 133.83c-6.514 0-11.804 5.287-11.804 11.796h2.261c0-5.253 4.279-9.529 9.543-9.529 5.257 0 9.535 4.276 9.535 9.529 0 1.059-.169 2.07-.489 3.021-.937 2.803-3.144 5.029-5.929 5.993-.815.285-1.677.461-2.581.509v2.267c1.046-.048 2.058-.231 3.016-.537 3.83-1.214 6.819-4.33 7.858-8.232.258-.964.394-1.976.394-3.021 0-6.509-5.291-11.796-11.804-11.796z"/>
    <path fill="#4163AE" d="M343.767 156.194c0 .238-.034.468-.089.679-.299 1.079-1.29 1.873-2.465 1.873-1.413 0-2.554-1.147-2.554-2.552 0-1.412 1.148-2.552 2.554-2.552.822 0 1.555.394 2.024.998.333.427.53.97.53 1.554zM382.439 133.83c-6.513 0-11.804 5.287-11.804 11.796h2.268c0-5.253 4.279-9.529 9.536-9.529s9.542 4.276 9.542 9.529c0 1.059-.169 2.07-.489 3.021-.937 2.803-3.144 5.029-5.929 5.993-.815.285-1.677.461-2.574.509v2.267c1.046-.048 2.058-.231 3.016-.537 3.83-1.214 6.819-4.33 7.858-8.232.258-.964.394-1.976.394-3.021-.007-6.509-5.305-11.796-11.818-11.796z"/>
    <path fill="#4163AE" d="M386.093 156.194c0 .238-.034.468-.095.679-.299 1.079-1.291 1.873-2.466 1.873-1.412 0-2.553-1.147-2.553-2.552 0-1.412 1.147-2.552 2.553-2.552.822 0 1.556.394 2.024.998.34.427.537.97.537 1.554zM424.772 133.83c-6.513 0-11.804 5.287-11.804 11.796h2.268c0-5.253 4.279-9.529 9.543-9.529 5.257 0 9.535 4.276 9.535 9.529 0 1.059-.169 2.07-.489 3.021-.937 2.803-3.144 5.029-5.929 5.993-.815.285-1.677.461-2.574.509v2.267c1.046-.048 2.058-.231 3.016-.537 3.83-1.208 6.825-4.33 7.858-8.232.258-.964.394-1.976.394-3.021-.014-6.509-5.312-11.796-11.818-11.796z"/>
    <path fill="#4163AE" d="M428.42 156.194c0 .238-.034.468-.095.679-.299 1.079-1.284 1.873-2.466 1.873-1.412 0-2.553-1.147-2.553-2.552 0-1.412 1.147-2.552 2.553-2.552.829 0 1.556.394 2.024.998.34.427.537.97.537 1.554zM467.098 133.83c-6.513 0-11.804 5.287-11.804 11.796h2.268c0-5.253 4.279-9.529 9.543-9.529 5.264 0 9.536 4.276 9.536 9.529 0 1.059-.17 2.07-.489 3.021-.938 2.803-3.145 5.029-5.93 5.993-.815.285-1.677.461-2.574.509v2.267c1.046-.048 2.058-.231 3.016-.537 3.83-1.208 6.819-4.33 7.858-8.232.258-.964.394-1.976.394-3.021-.014-6.509-5.311-11.796-11.818-11.796z"/>
    <path fill="#4163AE" d="M470.745 156.194c0 .238-.034.468-.088.679-.299 1.079-1.291 1.873-2.466 1.873-1.412 0-2.553-1.147-2.553-2.552 0-1.412 1.147-2.552 2.553-2.552.822 0 1.556.394 2.024.998.333.427.53.97.53 1.554zM509.425 133.83c-6.513 0-11.804 5.287-11.804 11.796h2.269c0-5.253 4.278-9.529 9.535-9.529 5.257 0 9.543 4.276 9.543 9.529 0 1.059-.17 2.07-.489 3.021-.938 2.803-3.145 5.029-5.93 5.993-.815.285-1.677.461-2.574.509v2.267c1.046-.048 2.058-.231 3.016-.537 3.83-1.208 6.819-4.33 7.858-8.232.258-.964.394-1.976.394-3.021-.014-6.509-5.311-11.796-11.818-11.796z"/>
    <path fill="#4163AE" d="M513.079 156.194c0 .238-.034.468-.095.679-.299 1.079-1.29 1.873-2.465 1.873-1.413 0-2.554-1.147-2.554-2.552 0-1.412 1.148-2.552 2.554-2.552.821 0 1.555.394 2.024.998.339.427.536.97.536 1.554z"/>
    <path fill="#7089C5" d="M406.563 262.563h-13.767c-1.589 0-3.144-1.303-3.45-2.892l-2.655-13.757c-.306-1.588.747-2.892 2.336-2.892h13.767c1.589 0 3.145 1.304 3.45 2.892l2.656 13.757c.312 1.589-.741 2.892-2.337 2.892zM441.304 262.563h-13.767c-1.59 0-3.145-1.303-3.451-2.892l-2.655-13.757c-.306-1.588.747-2.892 2.336-2.892h13.767c1.589 0 3.145 1.304 3.45 2.892l2.656 13.757c.306 1.589-.747 2.892-2.336 2.892z"/>
    <path fill="#4163AE" d="M476.037 262.563H462.27c-1.589 0-3.145-1.303-3.45-2.892l-2.656-13.757c-.305-1.588.747-2.892 2.337-2.892h13.766c1.59 0 3.145 1.304 3.451 2.892l2.655 13.757c.313 1.589-.74 2.892-2.336 2.892z"/>
    <path fill="#7089C5" d="M302.357 262.563H288.59c-1.589 0-3.144-1.303-3.45-2.892l-2.656-13.757c-.305-1.588.748-2.892 2.337-2.892h13.767c1.589 0 3.144 1.304 3.45 2.892l2.656 13.757c.305 1.589-.747 2.892-2.337 2.892z"/>
    <path fill="#F37269" d="M287.272 221.263h-5.915c-.686 0-1.352-.557-1.481-1.242l-1.141-5.912c-.129-.685.319-1.242 1.005-1.242h5.916c.686 0 1.351.557 1.48 1.242l1.142 5.912c.129.679-.327 1.242-1.006 1.242z"/>
    <path fill="#7089C5" d="M337.09 262.563h-13.767c-1.59 0-3.145-1.303-3.451-2.892l-2.655-13.757c-.306-1.588.747-2.892 2.336-2.892h13.767c1.59 0 3.145 1.304 3.45 2.892l2.656 13.757c.313 1.589-.74 2.892-2.336 2.892zM371.83 262.563h-13.767c-1.589 0-3.145-1.303-3.45-2.892l-2.656-13.757c-.306-1.588.747-2.892 2.336-2.892h13.767c1.59 0 3.145 1.304 3.451 2.892l2.655 13.757c.306 1.589-.747 2.892-2.336 2.892z"/>
    <path fill="#4163AE" d="M510.776 262.563H497.01c-1.59 0-3.145-1.303-3.451-2.892l-2.655-13.757c-.306-1.588.74-2.892 2.336-2.892h13.767c1.589 0 3.145 1.304 3.45 2.892l2.656 13.757c.306 1.589-.747 2.892-2.337 2.892z"/>
    <path fill="#7089C5" d="M400.797 232.679H387.03c-1.59 0-3.145-1.303-3.45-2.891l-2.656-13.758c-.306-1.588.747-2.891 2.336-2.891h13.767c1.59 0 3.145 1.303 3.451 2.891l2.655 13.758c.306 1.595-.74 2.891-2.336 2.891zM435.537 232.679H421.77c-1.589 0-3.145-1.303-3.45-2.891l-2.656-13.758c-.305-1.588.747-2.891 2.337-2.891h13.766c1.59 0 3.145 1.303 3.451 2.891l2.655 13.758c.306 1.595-.747 2.891-2.336 2.891z"/>
    <path fill="#4163AE" d="M470.27 232.679h-13.767c-1.589 0-3.144-1.303-3.45-2.891l-2.655-13.758c-.306-1.588.747-2.891 2.336-2.891h13.767c1.589 0 3.145 1.303 3.45 2.891l2.656 13.758c.305 1.595-.741 2.891-2.337 2.891zM505.011 232.679h-13.767c-1.59 0-3.145-1.303-3.451-2.891l-2.655-13.758c-.306-1.588.747-2.891 2.336-2.891h13.767c1.589 0 3.145 1.303 3.45 2.891l2.656 13.758c.306 1.595-.747 2.891-2.336 2.891z"/>
    <path fill="#7089C5" d="M412.682 294.225h-13.767c-1.589 0-3.144-1.303-3.45-2.891l-2.655-13.758c-.306-1.588.747-2.891 2.336-2.891h13.767c1.589 0 3.145 1.303 3.45 2.891l2.656 13.758c.305 1.595-.747 2.891-2.337 2.891zM447.416 294.225h-13.767c-1.589 0-3.145-1.303-3.45-2.891l-2.656-13.758c-.306-1.588.747-2.891 2.336-2.891h13.767c1.59 0 3.145 1.303 3.451 2.891l2.655 13.758c.306 1.595-.747 2.891-2.336 2.891z"/>
    <path fill="#4163AE" d="M482.156 294.225h-13.767c-1.589 0-3.145-1.303-3.45-2.891l-2.656-13.758c-.305-1.588.747-2.891 2.337-2.891h13.767c1.589 0 3.144 1.303 3.45 2.891l2.655 13.758c.306 1.595-.747 2.891-2.336 2.891z"/>
    <path fill="#7089C5" d="M308.47 294.225h-13.767c-1.59 0-3.145-1.303-3.451-2.891l-2.655-13.758c-.306-1.588.747-2.891 2.336-2.891H304.7c1.589 0 3.145 1.303 3.45 2.891l2.656 13.758c.306 1.595-.747 2.891-2.336 2.891zM343.21 294.225h-13.767c-1.589 0-3.145-1.303-3.45-2.891l-2.656-13.758c-.306-1.588.747-2.891 2.336-2.891h13.767c1.59 0 3.145 1.303 3.451 2.891l2.655 13.758c.306 1.595-.747 2.891-2.336 2.891zM377.943 294.225h-13.767c-1.589 0-3.144-1.303-3.45-2.891l-2.656-13.758c-.305-1.588.747-2.891 2.337-2.891h13.767c1.589 0 3.144 1.303 3.45 2.891l2.656 13.758c.305 1.595-.748 2.891-2.337 2.891z"/>
    <path fill="#4163AE" d="M516.889 294.225h-13.766c-1.59 0-3.145-1.303-3.451-2.891l-2.655-13.758c-.306-1.588.747-2.891 2.336-2.891h13.767c1.589 0 3.145 1.303 3.45 2.891l2.656 13.758c.305 1.595-.747 2.891-2.337 2.891z"/>
    <path fill="#7089C5" d="M418.796 325.894h-13.767c-1.59 0-3.145-1.303-3.45-2.891l-2.656-13.758c-.306-1.588.747-2.891 2.336-2.891h13.767c1.59 0 3.145 1.303 3.451 2.891l2.655 13.758c.306 1.588-.747 2.891-2.336 2.891zM453.528 325.894h-13.767c-1.589 0-3.144-1.303-3.45-2.891l-2.655-13.758c-.306-1.588.74-2.891 2.336-2.891h13.767c1.589 0 3.145 1.303 3.45 2.891l2.656 13.758c.305 1.588-.747 2.891-2.337 2.891z"/>
    <path fill="#4163AE" d="M488.268 325.894h-13.767c-1.589 0-3.144-1.303-3.45-2.891l-2.655-13.758c-.306-1.588.747-2.891 2.336-2.891h13.767c1.589 0 3.144 1.303 3.45 2.891l2.656 13.758c.305 1.588-.747 2.891-2.337 2.891z"/>
    <path fill="#7089C5" d="M314.583 325.894h-13.767c-1.589 0-3.145-1.303-3.45-2.891l-2.656-13.758c-.306-1.588.747-2.891 2.336-2.891h13.767c1.59 0 3.145 1.303 3.451 2.891l2.655 13.758c.306 1.588-.747 2.891-2.336 2.891z"/>
    <path fill="#F37269" d="M349.322 325.894h-13.767c-1.589 0-3.144-1.303-3.45-2.891l-2.656-13.758c-.305-1.588.747-2.891 2.337-2.891h13.767c1.589 0 3.144 1.303 3.45 2.891l2.655 13.758c.306 1.588-.747 2.891-2.336 2.891z"/>
    <path fill="#7089C5" d="M384.055 325.894h-13.766c-1.59 0-3.145-1.303-3.451-2.891l-2.655-13.758c-.306-1.588.747-2.891 2.336-2.891h13.767c1.589 0 3.145 1.303 3.45 2.891l2.656 13.758c.305 1.588-.747 2.891-2.337 2.891z"/>
    <path fill="#4163AE" d="M523.002 325.894h-13.767c-1.589 0-3.145-1.303-3.45-2.891l-2.656-13.758c-.306-1.588.747-2.891 2.336-2.891h13.767c1.59 0 3.145 1.303 3.451 2.891l2.655 13.758c.306 1.588-.747 2.891-2.336 2.891z"/>
    <path fill="#7089C5" d="M424.561 355.772h-13.767c-1.589 0-3.144-1.303-3.45-2.891l-2.655-13.758c-.306-1.588.747-2.891 2.336-2.891h13.767c1.589 0 3.145 1.303 3.45 2.891l2.656 13.758c.305 1.588-.747 2.891-2.337 2.891zM459.295 355.772h-13.767c-1.59 0-3.145-1.303-3.45-2.891l-2.656-13.758c-.306-1.588.747-2.891 2.336-2.891h13.767c1.59 0 3.145 1.303 3.451 2.891l2.655 13.758c.306 1.588-.74 2.891-2.336 2.891z"/>
    <path fill="#4163AE" d="M494.034 355.772h-13.767c-1.589 0-3.145-1.303-3.45-2.891l-2.656-13.758c-.305-1.588.747-2.891 2.337-2.891h13.767c1.589 0 3.144 1.303 3.45 2.891l2.655 13.758c.306 1.588-.747 2.891-2.336 2.891z"/>
    <path fill="#7089C5" d="M320.348 355.772h-13.767c-1.589 0-3.144-1.303-3.45-2.891l-2.655-13.758c-.306-1.588.747-2.891 2.336-2.891h13.767c1.589 0 3.145 1.303 3.45 2.891l2.656 13.758c.305 1.588-.747 2.891-2.337 2.891zM355.088 355.772h-13.767c-1.59 0-3.145-1.303-3.45-2.891l-2.656-13.758c-.306-1.588.747-2.891 2.336-2.891h13.767c1.59 0 3.145 1.303 3.45 2.891l2.656 13.758c.306 1.588-.747 2.891-2.336 2.891zM389.821 355.772h-13.767c-1.589 0-3.144-1.303-3.45-2.891l-2.656-13.758c-.305-1.588.747-2.891 2.337-2.891h13.767c1.589 0 3.144 1.303 3.45 2.891l2.655 13.758c.306 1.588-.747 2.891-2.336 2.891zM328.994 215.833h-36.472c-.537 0-.978-.441-.978-.977s.441-.978.978-.978h36.472c.536 0 .978.442.978.978s-.442.977-.978.977zM330.101 220.245h-36.472c-.536 0-.978-.441-.978-.978 0-.536.442-.977.978-.977h36.472c.537 0 .978.441.978.977 0 .537-.441.978-.978.978z"/>
    <path fill="#fff" d="M289.88 182.963h-12.517c-1.026 0-1.861-.835-1.861-1.86 0-1.025.835-1.86 1.861-1.86h12.517c1.026 0 1.861.842 1.861 1.86 0 1.025-.835 1.86-1.861 1.86zM324.22 182.963h-12.517c-1.026 0-1.861-.835-1.861-1.86 0-1.025.835-1.86 1.861-1.86h12.517c1.026 0 1.861.842 1.861 1.86 0 1.025-.835 1.86-1.861 1.86zM358.559 182.963h-12.517c-1.026 0-1.861-.835-1.861-1.86 0-1.025.842-1.86 1.861-1.86h12.517c1.025 0 1.861.842 1.861 1.86 0 1.025-.836 1.86-1.861 1.86zM392.899 182.963h-12.518c-1.025 0-1.86-.835-1.86-1.86 0-1.025.835-1.86 1.86-1.86h12.518c1.025 0 1.861.842 1.861 1.86 0 1.025-.836 1.86-1.861 1.86zM427.237 182.963h-12.518c-1.025 0-1.861-.835-1.861-1.86 0-1.025.836-1.86 1.861-1.86h12.518c1.025 0 1.861.842 1.861 1.86 0 1.025-.836 1.86-1.861 1.86zM461.577 182.963h-12.518c-1.025 0-1.861-.835-1.861-1.86 0-1.025.842-1.86 1.861-1.86h12.518c1.025 0 1.861.842 1.861 1.86 0 1.025-.836 1.86-1.861 1.86zM495.916 182.963h-12.517c-1.026 0-1.861-.835-1.861-1.86 0-1.025.835-1.86 1.861-1.86h12.517c1.026 0 1.861.842 1.861 1.86.007 1.025-.835 1.86-1.861 1.86z"/>
    <path fill="#EC6966" d="M416.764 232.951c-2.765 0-4.775-.876-5.875-2.579-2.106-3.265-.482-7.833 4.822-13.595 3.871-4.202 8.401-7.534 8.442-7.568.177-.129.428-.095.557.088.129.177.095.428-.088.557-.177.129-17.618 13.031-13.068 20.083 1.44 2.233 4.524 2.382 6.86 2.111 4.32-.502 9.957-2.824 15.071-6.217 5.298-3.516 9.026-7.473 10.235-10.866.795-2.227.55-3.801-.726-4.684-1.651-1.14-5.094-1.14-9.217 0-3.946 1.093-7.926 3.055-10.371 5.125-.17.142-.421.122-.564-.048-.142-.17-.122-.421.048-.563 2.533-2.138 6.622-4.168 10.677-5.287 4.414-1.222 8.014-1.175 9.888.115 1.108.767 2.187 2.362 1.026 5.606-1.263 3.55-5.107 7.656-10.541 11.267-5.216 3.461-10.982 5.837-15.417 6.346-.618.075-1.202.109-1.759.109z"/>
    <path fill="#F59191" d="M489.029 210.275l-1.419-2.681s.706-4.772-5.277-7.792c0 0-2.187-.889-3.423.889-1.135 1.643 2.166 1.344 1.99 4.154-.177 2.81 1.154 4.459 3.015 5.368l1.535 1.779 3.579-1.717z"/>
    <path fill="#101131" d="M545.585 203.874s-5.141 25.208-33.422 33.441c-8.829 2.572-28.886-26.477-28.886-26.477s.707-2.674 5.121-2.064c0 0 19.527 12.916 21.985 14.321 2.181 1.242 16.532-16.011 23.065-18.793 6.548-2.776 12.137-.428 12.137-.428z"/>
    <path fill="#EC6966" d="M462.897 203.419l1.133 6.114 30.781-5.697-1.133-6.113-30.781 5.696z"/>
    <path fill="#F59191" d="M456.3 207.804l7.722 1.731-1.134-6.116-6.588 4.385zM497.629 199.089l.36 1.935c.217 1.187-.564 2.335-1.76 2.552l-1.426.264-1.134-6.115 1.549-.285c1.12-.21 2.2.529 2.411 1.649z"/>
    <path fill="#101131" d="M579.347 362.329s3.511 3.196 2.826 5.47c-.686 2.274-3.851 3.787-4.279 6.57-.428 2.776-2.14 4.296-3.681 4.296h-7.342s-1.135-1.954 1.602-2.545c2.738-.59 3.77-3.855 3.6-6.889-.17-3.034.258-7.072.258-7.072l5.821-1.344 1.195 1.514zM536.301 370.609s.631 7.283-.91 8.043l-19.71-.041s0-2.274 3.165-2.776c3.165-.502 8.727-2.355 9.671-6.482.944-4.133 7.784 1.256 7.784 1.256z"/>
    <path fill="#F37269" d="M519.66 267.749s1.039 12.766 2.262 28.105c1.664 20.844 3.661 46.445 3.858 51.291.339 8.423 1.711 21.896 1.711 21.896s3.253 3.197 9.753 1.853c0 0 5.794-19.228 7.451-39.576.027-.333.054-.672.074-1.005 1.542-20.714 3.933-64.329 3.933-64.329l-29.042 1.765z"/>
    <path fill="#E75755" d="M519.66 267.749s1.039 12.766 2.262 28.105l22.773 35.464c.027-.333.054-.672.074-1.005 1.542-20.715 3.933-64.329 3.933-64.329l-29.042 1.765z"/>
    <path fill="#F37269" d="M524.408 269.262s18.739 46.228 31.059 67.954c12.32 21.725 16.171 27.786 16.171 27.786s7.057-2.776 7.702-4.676c0 0-4.713-41.938-12.965-52.16-4.666-5.776-10.14-23.11-10.399-29.178-.258-6.061-1.67-18.061-1.67-18.061l-29.898 8.335z"/>
    <path fill="#F59191" d="M549.069 198.024s-12.68 6.115-19.988 3.848c0 0 1.8-2.267 4.951-3.957-.251-1.466-.448-2.742-.563-3.814-.313-2.491-.313-3.903-.313-3.903l4.89-3.848 4.639-3.679c-.367 10.344 6.384 15.353 6.384 15.353z"/>
    <path fill="#1D1852" d="M518.859 268.801c.224.197.475.305.761.305 2.757-.054 10.765 1.466 17.543.774 5.739-.556 10.799-2.213 16.225-4.588.734-.333 2.391-1.215 2.364-1.989-.027-.882-.109-2.131-.224-3.739-.224-3.163-.55-7.65-.652-12.971-.075-3.943-.034-8.348.251-13.011.014-.312.034-.631.048-.943.081-1.711.122-3.428.122-5.111.027-5.423-.36-10.595-1.148-15.217-1.379-8.023-3.966-14.301-7.79-17.097-.51-.387-3.654 1.133-6.581 2.545-2.67 1.303-5.339 1.439-7.872.944l-2.533 2.212c-3.07 2.79-6.439 6.638-7.933 12.448-1.236 4.928-1.97 13.832-2.364 23.077-.197 4.201-.333 8.409-.394 12.42v.136c-.027.414-.027.835-.027 1.249-.129 10.255.007 18.42.204 18.556z"/>
    <path fill="#EA8787" d="M542.766 186.628s-3.206 5.837-9.305 7.473c-.313-2.491-.313-3.903-.313-3.903l4.89-3.848 4.728.278z"/>
    <path fill="#F59191" d="M530.921 190.028s12.096 1.976 13.23-5.456c1.135-7.432 3.464-12.184-4.21-13.758-7.675-1.575-9.611 1.038-10.602 3.427-.999 2.389-1.535 15.082 1.582 15.787z"/>
    <path fill="#151533" d="M548.552 169.925c.109-.129.36-.224.924-.258 0 0-.449-.285-1.053-.299-.116-.78-.537-2.172-1.881-2.504 0 0 .726.386.821 1.221-1.562-1.602-4.91-2.769-14.181-2.043-12.218.964-8.191 8.783-6.608 9.713 1.582.93 5.562-1.622 8.51-1.392 2.948.231 3.504 4.487 4.51 5.07.998.584.604-.447 1.956-1.058 1.351-.611 1.48 1.629 1.093 3.088-.394 1.459 1.467 3.38 1.467 3.38l1.882-2.023c1.881-2.022 3.647-10.581 2.791-12.407-.082-.163-.156-.326-.231-.488z"/>
    <path fill="#F59191" d="M487.582 207.472s.415-1.643-.726-2.383-2.187-2.749-2.67-2.477c-.998.563.544 2.314.265 4.5-.102.767 1.685 2.776 3.131.36z"/>
    <path fill="#101131" d="M554.876 246.586c-.075-3.943-.034-8.348.251-13.011.014-.312.034-.631.048-.943-1.148-5.695-2.887-10.744-5.447-10.907 0 0-7.627 11.979 5.148 24.861z"/>
    <path fill="#F59191" d="M564.963 267.246s-.639 6.177-1.332 7.344c-.699 1.168-3.667 4.901-4.93 5.634-1.264.733.774-4.921.516-6.021-.258-1.099-1.039 2.009-1.596 2.077-.557.075-.415-2.721-.435-3.74-.02-1.018 2.71-3.529 3.674-5.694.958-2.165 4.103.4 4.103.4z"/>
    <path fill="#1D1852" d="M546.352 195.146s7.654 3.624 11.322 9.19c5.691 8.633 12.293 40.112 12.408 43.024.123 2.912-4.815 23.491-4.815 23.491s-5.006-.333-6.296-2.858c0 0 .998-21.142.367-22.499-.632-1.358-20.878-28.364-18.603-34.12 2.275-5.762 5.617-16.228 5.617-16.228z"/>
    <path fill="#EC6966" d="M460.253 205.17l.407 3.611-4.36-.977 3.953-2.634z"/>
    <path fill="#4756A5" d="M625.864 378.55h-22.053c-1.182-1.005.815-3.278 2.907-3.428.91-.068 2.057.123 3.368.401.306-4.032 2.038-22.14 8.572-21.414 7.341.815 0 7.975-2.079 12.217-1.535 3.143-3.158 7.643-3.898 9.767.597.129 1.215.258 1.847.373.971-2.986 4.598-13.038 9.203-12.448 5.406.686 3.233 4.718-.598 7.107-2.812 1.758-6.269 4.255-7.905 5.463 1.392.224 2.839.38 4.312.347 3.763-.096 5.61 1.018 6.324 1.615zM122.388 377.505c-1.168-1.833-4.686-6.597-9.372-5.966-5.108.685 5.637 4.052 8.924 5.979-.734.014-1.358-.047-1.82-.21-2.201-.781-5.963.719-7.166 1.249h20.933c-.143-.502-.523-1.317-1.494-1.914-.347-.211-1.033-.238-1.929-.17 1.243-1.466 2.112-6.149-1.359-4.948-2.533.883-2.526 3.74-2.275 5.437-.536.081-1.087.17-1.623.244-1.039-5.307-4.727-20.864-12.198-21.278-7.573-.421 6.425 16.134 11.084 21.428-.598.067-1.175.122-1.705.149z"/>
    <path fill="#101131" d="M695.167 380.07H40.173c-.482 0-.87-.394-.87-.869s.395-.868.87-.868h654.994c.482 0 .869.393.869.868s-.394.869-.869.869z"/>
</svg>
