<svg xmlns="http://www.w3.org/2000/svg" width="84" height="84" viewBox="0 0 84 84">
    <g fill="none" fill-rule="evenodd" transform="translate(2 2)">
        <circle cx="40" cy="40" r="40" fill="#FFF" stroke="#C4182C" stroke-width="3"/>
        <g fill="#3A61A9" fill-rule="nonzero">
            <path d="M14.286 24.286H15.715V25.715H14.286zM8.571 35.714H10V37.143H8.571zM14.286 30H15.715V37.143H14.286zM8.571 30H10V31.429H8.571zM2.857 35.714H4.2860000000000005V37.143H2.857zM10 .441L9.605.64c-.2.1-.438.1-.639 0L7.857.084 6.748.64c-.201.1-.438.1-.639 0L5 .084 3.89.64c-.2.1-.437.1-.638 0L2.857.44v10.273H10V.441zM8.571 9.286H4.286V7.857H8.57v1.429zm0-2.857H4.286V5H8.57v1.429zm0-2.858H4.286V2.143H8.57V3.57zM2.857 24.286H4.2860000000000005V25.715H2.857zM2.857 30H4.2860000000000005V31.429H2.857zM8.571 24.286H10V25.715H8.571zM2.857 19.286h12.857V15H2.857v4.286zm10-2.857h1.429v1.428h-1.429V16.43zm-2.857 0h1.429v1.428H10V16.43zm-2.857 0H8.57v1.428H7.143V16.43zM39.617 30.627l-1.55-1.55c-.135-.134-.21-.316-.21-.506V14.286c-.005-4.732-3.84-8.566-8.571-8.572-.248 0-.478-.128-.608-.339-.13-.21-.142-.473-.031-.694L30.987 0H21.87l2.34 4.68c.111.222.1.485-.031.695-.13.211-.36.34-.608.34-2.76-.002-5.352 1.328-6.961 3.57h.533c1.577.002 2.855 1.28 2.857 2.858v20.714h18.694c.528 0 1.004-.318 1.207-.806.202-.488.09-1.05-.284-1.424zM19.602 8.35c1.174-.789 2.556-1.209 3.97-1.207V8.57c-1.13-.001-2.236.335-3.174.965l-.796-1.186zm11.112 9.507h-1.428v-1.016c-.001-1.016-.825-1.84-1.842-1.841h-2.031c-.883 0-1.641.626-1.808 1.493-.167.867.304 1.73 1.124 2.058l3.93 1.572c1.455.582 2.293 2.115 1.996 3.654-.296 1.54-1.643 2.652-3.21 2.652h-.302v1.428h-1.429V26.43h-.301c-1.805-.002-3.268-1.465-3.27-3.27v-1.016h1.428v1.016c.002 1.016.825 1.84 1.842 1.841h2.031c.883 0 1.642-.626 1.808-1.493.167-.867-.304-1.73-1.124-2.058l-3.93-1.572c-1.455-.582-2.293-2.115-1.996-3.654.296-1.54 1.643-2.652 3.21-2.652h.302v-1.428h1.429v1.428h.301c1.805.002 3.268 1.465 3.27 3.27v1.016z" transform="translate(20 20)"/>
            <path d="M17.143 10.714h-5.714v.715c0 .394-.32.714-.715.714H2.143c-.395 0-.714-.32-.714-.714v-.715C.64 10.715 0 11.354 0 12.143V38.57C0 39.36.64 40 1.429 40h15.714c.788 0 1.427-.64 1.428-1.429V12.143c0-.789-.64-1.428-1.428-1.429zM5.714 37.857c0 .395-.32.714-.714.714H2.143c-.395 0-.714-.32-.714-.714V35c0-.394.32-.714.714-.714H5c.394 0 .714.32.714.714v2.857zm0-5.714c0 .394-.32.714-.714.714H2.143c-.395 0-.714-.32-.714-.714v-2.857c0-.395.32-.715.714-.715H5c.394 0 .714.32.714.715v2.857zm0-5.714c0 .394-.32.714-.714.714H2.143c-.395 0-.714-.32-.714-.714V23.57c0-.394.32-.714.714-.714H5c.394 0 .714.32.714.714v2.858zm5.715 11.428c0 .395-.32.714-.715.714H7.857c-.394 0-.714-.32-.714-.714V35c0-.394.32-.714.714-.714h2.857c.395 0 .715.32.715.714v2.857zm0-5.714c0 .394-.32.714-.715.714H7.857c-.394 0-.714-.32-.714-.714v-2.857c0-.395.32-.715.714-.715h2.857c.395 0 .715.32.715.715v2.857zm0-5.714c0 .394-.32.714-.715.714H7.857c-.394 0-.714-.32-.714-.714V23.57c0-.394.32-.714.714-.714h2.857c.395 0 .715.32.715.714v2.858zm5.714 11.428c0 .395-.32.714-.714.714H13.57c-.394 0-.714-.32-.714-.714v-8.571c0-.395.32-.715.714-.715h2.858c.394 0 .714.32.714.715v8.571zm0-11.428c0 .394-.32.714-.714.714H13.57c-.394 0-.714-.32-.714-.714V23.57c0-.394.32-.714.714-.714h2.858c.394 0 .714.32.714.714v2.858zm0-6.429c0 .394-.32.714-.714.714H2.143c-.395 0-.714-.32-.714-.714v-5.714c0-.395.32-.715.714-.715h14.286c.394 0 .714.32.714.715V20z" transform="translate(20 20)"/>
        </g>
    </g>
</svg>
