<svg xmlns="http://www.w3.org/2000/svg" width="143" height="115" viewBox="0 0 143 115">
    <defs>
        <linearGradient id="prefix__a" x1="110.89%" x2="-21.419%" y1="81.906%" y2="5.952%">
            <stop offset="0%" stop-color="#ED1D32"/>
            <stop offset="100%" stop-color="#7F132A"/>
        </linearGradient>
        <linearGradient id="prefix__b" x1="66.428%" x2="33.604%" y1="57.866%" y2="30.878%">
            <stop offset="0%" stop-color="#3C66B0"/>
            <stop offset="100%" stop-color="#1A2557"/>
        </linearGradient>
        <linearGradient id="prefix__c" x1="96.151%" x2="-12.002%" y1="86.887%" y2="19.633%">
            <stop offset="0%" stop-color="#3C66B0"/>
            <stop offset="100%" stop-color="#1A2557"/>
        </linearGradient>
        <linearGradient id="prefix__d" x1="-.007%" x2="99.994%" y1="49.919%" y2="49.919%">
            <stop offset="0%" stop-color="#ED1D32"/>
            <stop offset="100%" stop-color="#7F132A"/>
        </linearGradient>
        <linearGradient id="prefix__e" x1=".014%" x2="100.108%" y1="50.836%" y2="50.836%">
            <stop offset="0%" stop-color="#ED1D32"/>
            <stop offset="100%" stop-color="#7F132A"/>
        </linearGradient>
    </defs>
    <g fill="none">
        <g fill="#000">
            <path d="M1.024.575L.191.575.191.05 2.477.05 2.477.575 1.644.575 1.644 2.8 1.024 2.8zM3.692 2.675c-.214-.125-.38-.3-.524-.5-.119-.225-.19-.45-.19-.725 0-.275.071-.525.19-.725.12-.225.286-.375.524-.5C3.907.1 4.17.05 4.431.05s.524.05.738.175c.215.125.381.3.524.5.12.225.19.45.19.725 0 .275-.07.525-.19.725-.119.225-.286.375-.524.5-.214.125-.452.175-.738.175s-.524-.05-.739-.175zM4.836 2.2c.119-.075.214-.175.286-.325.071-.125.095-.275.095-.45s-.024-.325-.095-.45C5.05.85 4.955.725 4.836.65c-.12-.075-.262-.1-.43-.1-.166 0-.285.025-.428.1-.119.075-.214.175-.286.325-.071.125-.095.275-.095.45s.024.325.095.45c.072.125.167.25.286.325.12.075.262.1.429.1.167 0 .31-.025.429-.1zM10.41 1.625c.095.125.119.25.119.425 0 .25-.095.425-.262.55-.19.125-.429.2-.786.2H8.123V.05H9.41c.31 0 .572.075.739.2.167.125.262.3.262.525 0 .125-.024.25-.095.35-.072.1-.143.2-.262.25.143.05.262.125.357.25zM8.719.525v.65h.595c.143 0 .262-.025.334-.075.071-.05.119-.125.119-.25s-.048-.2-.12-.25c-.07-.05-.19-.075-.333-.075H8.72zM9.79 2.25c.071-.05.119-.15.119-.25 0-.225-.167-.35-.477-.35H8.72v.675h.714c.167 0 .286-.025.358-.075zM13.054 2.8l-.5-.775h-.548V2.8h-.62V.05h1.144c.238 0 .429.05.596.125.166.075.31.2.405.35.095.15.142.325.142.525s-.047.375-.142.525c-.096.15-.239.25-.405.35l.595.875h-.667zM12.887.7c-.095-.075-.238-.125-.405-.125h-.5v.95h.5c.191 0 .31-.05.405-.125.096-.075.143-.2.143-.35 0-.15-.047-.275-.143-.35zM14.507.05L15.127.05 15.127 2.8 14.507 2.8zM18.509.05L18.509 2.8 18.009 2.8 16.699 1.125 16.699 2.8 16.103 2.8 16.103.05 16.603.05 17.914 1.725 17.914.05zM21.296 1.375h.548V2.5c-.143.125-.31.2-.5.25-.19.05-.381.1-.572.1-.262 0-.524-.05-.738-.175-.215-.125-.381-.3-.5-.5-.12-.225-.191-.45-.191-.725 0-.275.071-.525.19-.725.12-.225.286-.375.525-.5.238-.125.476-.175.738-.175.238 0 .429.05.62.125.19.075.333.2.476.35L21.51.9c-.19-.2-.405-.3-.691-.3-.167 0-.31.025-.453.1-.119.075-.238.175-.31.3-.07.125-.119.275-.119.45s.048.325.12.45c.071.125.166.25.31.325.118.075.285.1.452.1.167 0 .333-.05.476-.125v-.825zM24.226.05L24.846.05 24.846 2.275 26.156 2.275 26.156 2.8 24.226 2.8zM26.87.05L27.49.05 27.49 2.8 26.87 2.8zM29.086.55L29.086 1.275 30.301 1.275 30.301 1.775 29.086 1.775 29.086 2.775 28.467 2.775 28.467.025 30.444.025 30.444.525 29.086.525zM33.278 2.3L33.278 2.8 31.254 2.8 31.254.05 33.231.05 33.231.55 31.849.55 31.849 1.15 33.064 1.15 33.064 1.65 31.849 1.65 31.849 2.3zM36.113 2.675c-.214-.125-.381-.3-.5-.5-.12-.225-.19-.45-.19-.725 0-.275.07-.525.19-.725.119-.225.286-.375.5-.5.215-.125.453-.175.739-.175.238 0 .428.05.619.125.19.075.333.2.453.35L37.542.9c-.166-.225-.405-.325-.667-.325-.166 0-.31.025-.428.1-.12.075-.239.175-.31.325-.071.125-.095.275-.095.45s.024.325.095.45c.071.125.167.25.31.325.119.075.262.1.428.1.262 0 .477-.1.667-.325l.382.375c-.12.15-.286.275-.477.375-.19.075-.381.125-.62.125-.261-.025-.5-.075-.714-.2zM41.116.05L41.116 2.8 40.496 2.8 40.496 1.675 39.305 1.675 39.305 2.8 38.686 2.8 38.686.05 39.305.05 39.305 1.125 40.496 1.125 40.496.05zM43.831 2.225h-1.215l-.238.6h-.62l1.168-2.75h.596l1.167 2.75h-.62l-.238-.6zm-.19-.5l-.405-1.05-.405 1.05h.81zM47.762.05L47.762 2.8 47.262 2.8 45.951 1.125 45.951 2.8 45.356 2.8 45.356.05 45.856.05 47.166 1.725 47.166.05zM50.525 1.375h.548V2.5c-.143.125-.31.2-.5.25-.19.05-.381.1-.572.1-.262 0-.524-.05-.738-.175-.215-.125-.382-.3-.525-.5-.119-.225-.19-.45-.19-.725 0-.275.071-.525.19-.725.12-.225.286-.375.525-.5C49.5.1 49.739.05 50 .05c.238 0 .429.05.62.125.19.075.333.2.476.35L50.716.9c-.19-.2-.405-.3-.691-.3-.167 0-.31.025-.453.1-.143.075-.238.175-.31.3-.07.125-.119.275-.119.45s.048.325.12.45c.071.125.166.25.31.325.118.075.285.1.452.1.167 0 .333-.05.476-.125v-.825h.024zM52.026.05L52.645.05 52.645 2.8 52.026 2.8zM56.052.05L56.052 2.8 55.551 2.8 54.241 1.125 54.241 2.8 53.646 2.8 53.646.05 54.146.05 55.456 1.725 55.456.05zM58.815 1.375h.548V2.5c-.143.125-.31.2-.5.25-.191.05-.382.1-.572.1-.262 0-.524-.05-.739-.175-.214-.125-.38-.3-.524-.5-.119-.225-.19-.45-.19-.725 0-.275.071-.525.19-.725.12-.225.286-.375.524-.5.239-.125.477-.175.739-.175.238 0 .429.05.62.125.19.075.333.2.476.35L59.005.9c-.19-.2-.405-.3-.69-.3-.167 0-.31.025-.453.1-.143.075-.238.175-.31.3-.071.125-.119.275-.119.45s.048.325.12.45c.07.125.166.25.309.325.12.075.286.1.453.1.166 0 .333-.05.476-.125v-.825h.024zM62.293.575L61.459.575 61.459.05 63.746.05 63.746.575 62.888.575 62.888 2.8 62.269 2.8 62.269.575zM64.675 2.525c-.214-.225-.31-.525-.31-.925V.05h.62v1.525c0 .5.19.75.595.75.19 0 .334-.05.429-.175.095-.125.143-.3.143-.55V.075h.595v1.55c0 .4-.095.725-.31.925-.214.225-.5.325-.88.325-.382 0-.668-.125-.882-.35zM68.224.575L67.391.575 67.391.05 69.677.05 69.677.575 68.844.575 68.844 2.8 68.224 2.8zM70.368.05L70.988.05 70.988 2.8 70.368 2.8zM72.512 2.675c-.214-.125-.381-.3-.524-.5-.119-.225-.19-.45-.19-.725 0-.275.071-.525.19-.725.12-.225.286-.375.524-.5.215-.125.477-.175.739-.175s.524.05.738.175c.214.125.381.3.524.5.12.225.19.45.19.725 0 .275-.07.525-.19.725-.119.225-.286.375-.524.5-.214.125-.453.175-.738.175-.286 0-.524-.05-.739-.175zM73.68 2.2c.12-.075.215-.175.286-.325.072-.125.096-.275.096-.45s-.024-.325-.096-.45C73.894.85 73.8.725 73.68.65c-.119-.075-.262-.1-.428-.1-.167 0-.286.025-.43.1-.118.075-.214.175-.285.325-.071.125-.095.275-.095.45s.024.325.095.45c.071.125.167.25.286.325.119.075.262.1.429.1.166 0 .31-.025.428-.1zM77.943.05L77.943 2.8 77.443 2.8 76.133 1.125 76.133 2.8 75.514 2.8 75.514.05 76.014.05 77.324 1.725 77.324.05zM80.921.575L80.087.575 80.087.05 82.374.05 82.374.575 81.54.575 81.54 2.8 80.921 2.8zM83.565 2.675c-.214-.125-.38-.3-.524-.5-.119-.225-.19-.45-.19-.725 0-.275.071-.525.19-.725.12-.225.286-.375.524-.5.215-.125.477-.175.739-.175s.524.05.738.175c.215.125.381.3.524.5.12.225.19.45.19.725 0 .275-.07.525-.19.725-.119.225-.286.375-.524.5-.214.125-.452.175-.738.175s-.524-.05-.739-.175zM84.71 2.2c.119-.075.214-.175.286-.325.071-.125.095-.275.095-.45s-.024-.325-.095-.45c-.072-.125-.167-.25-.286-.325-.12-.075-.262-.1-.43-.1-.166 0-.285.025-.428.1-.119.075-.214.175-.286.325-.071.125-.095.275-.095.45s.024.325.095.45c.072.125.167.25.286.325.12.075.262.1.429.1.167 0 .31-.025.429-.1zM89.735 2.225H88.52l-.238.6h-.62L88.83.075h.595l1.168 2.75h-.644l-.214-.6zm-.19-.5l-.406-1.05-.405 1.05h.81zM91.26.05L91.879.05 91.879 2.275 93.189 2.275 93.189 2.8 91.26 2.8zM93.904.05L94.523.05 94.523 2.275 95.833 2.275 95.833 2.8 93.904 2.8z" transform="translate(24 112)"/>
        </g>
        <g>
            <path fill="#002B61" d="M33.68 36.333l-3.906.167c-2.454-5.976-6.122-15-8.575-20.976-1.143-2.786-2.287-5.548-3.43-8.334-.095-.238-.19-.5-.31-.857L22.58 9.19l.31.858c1.143 2.785 2.287 5.547 3.43 8.333 2.477 6 4.93 11.976 7.36 17.952" transform="translate(11)"/>
            <path fill="url(#prefix__a)" d="M28.035 23.452c-3.216-6.714-7.622-12.5-13.458-17.142C11.481 3.857 8.217 1.714 4.573.167L.071 10.452c.453.072.906.143 1.358.238 10.385 2 19.15 6.834 26.13 14.834.547.619 1.095 1.238 1.62 1.88l.356-.214c-.524-1.261-.929-2.523-1.5-3.738z" transform="translate(11) translate(91.226 27.381)"/>
            <g>
                <path fill="#002B61" d="M45.923 64l-5.121-2.857c.286-.667.5-1.167.714-1.69l10.219-24.43c.047-.118.095-.237.119-.356l5.12 2.857c-.047.119-.07.238-.118.357L46.637 62.31c-.19.523-.428 1.023-.714 1.69M56.999 37.524l-5.121-2.857c2.262-5.381 4.525-10.786 6.788-16.167l5.121 2.857c-2.263 5.405-4.526 10.786-6.788 16.167" transform="translate(11) translate(17.388)"/>
                <g>
                    <path fill="#002B61" d="M5.193 21.357L.07 18.5c.382-.81.763-1.619 1.191-2.381l5.121 2.857c-.428.786-.833 1.572-1.19 2.381" transform="translate(11) translate(17.388) translate(58.594)"/>
                    <path fill="#002D64" d="M6.36 19l-5.121-2.857c.88-1.595 1.834-3.12 2.93-4.5l5.12 2.857c-1.071 1.381-2.048 2.881-2.93 4.5" transform="translate(11) translate(17.388) translate(58.594)"/>
                    <path fill="#002F66" d="M9.29 14.476L4.167 11.62c.882-1.143 1.81-2.19 2.835-3.19l5.12 2.857c-1 1-1.952 2.071-2.834 3.19" transform="translate(11) translate(17.388) translate(58.594)"/>
                    <path fill="#003169" d="M12.124 11.31L7.003 8.452c.976-.952 2.024-1.857 3.12-2.666l5.121 2.857c-1.096.81-2.144 1.714-3.12 2.667" transform="translate(11) translate(17.388) translate(58.594)"/>
                    <path fill="#00336B" d="M15.268 8.643l-5.121-2.857c1.238-.905 2.525-1.738 3.93-2.476l5.121 2.857c-1.405.738-2.715 1.547-3.93 2.476" transform="translate(11) translate(17.388) translate(58.594)"/>
                    <path fill="#00346E" d="M19.174 6.143l-5.12-2.857.023-.024c1.453-.786 2.954-1.405 4.454-1.905l5.121 2.857c-1.524.5-3.001 1.12-4.454 1.905 0 .024 0 .024-.024.024" transform="translate(11) translate(17.388) translate(58.594)"/>
                    <path fill="#003671" d="M23.676 4.238l-5.121-2.857C20.58.738 22.675.333 24.843.143L29.964 3c-2.167.167-4.263.595-6.288 1.238" transform="translate(11) translate(17.388) translate(58.594)"/>
                </g>
                <path fill="#002B61" d="M38.468 89.81l-5.122-2.858c-.142-.071-.262-.214-.357-.452C27.963 74.238 22.938 62 17.888 49.762c-.048-.12-.071-.238-.071-.262l5.12 2.857c.024.048.024.167.072.262 5.026 12.238 10.075 24.476 15.101 36.738.12.238.238.381.358.453" transform="translate(11) translate(17.388)"/>
                <g>
                    <path fill="#003671" d="M5.312 7.81L.19 4.952c2.715-.714 5.406-1.31 8.074-2.142.262-.072.524-.167.762-.239l5.121 2.858c-.262.071-.524.166-.762.238-2.644.833-5.359 1.452-8.074 2.143" transform="translate(11) translate(17.388) translate(17.626 44.524)"/>
                    <path fill="#00346E" d="M14.172 5.452l-5.12-2.857C11.456 1.833 13.838.905 16.34 0l5.12 2.857c-2.5.881-4.882 1.81-7.288 2.595" transform="translate(11) translate(17.388) translate(17.626 44.524)"/>
                </g>
                <g>
                    <path fill="url(#prefix__b)" d="M72.576 3.286c-6.336 3.38-10.98 8.5-14.03 15.238-2.262 5.38-4.525 10.786-6.788 16.166-.047.12-.071.239-.119.358L41.421 59.476c-.214.524-.429 1.024-.715 1.69-2.334-5.69-4.597-11.19-6.836-16.618-2.786.976-5.406 2-8.074 2.833-2.668.81-5.36 1.429-8.075 2.143.024.047.024.166.072.262 5.026 12.238 10.075 24.476 15.1 36.738.215.547.549.571 1.025.547l6.431-.5c2.072-.166 4.169-.31 6.265-.428.69-.048.976-.333 1.238-.976 5.812-13.929 11.624-27.857 17.46-41.786 1.62-3.857 3.263-7.69 4.882-11.548 1.453-3.452 2.882-6.88 4.335-10.333.072-.214.12-.452.19-.643 1.954-4.69 3.931-9.405 5.884-14.095.905-2.167 1.787-4.31 2.74-6.572-3.812.262-7.385 1.262-10.767 3.096z" transform="translate(11) translate(17.388) translate(5.24 2.857)"/>
                    <path fill="url(#prefix__c)" d="M27.177 28.31c-.738-1.81-1.524-3.62-2.215-5.453-2.93-7.667-8.027-12.905-15.577-15.405C6.407 6.476 3.287 6.142 0 6.357c.12.333.214.595.31.857C1.453 10 2.596 12.762 3.74 15.548 6.193 21.524 8.646 27.524 11.1 33.5c.143 0 .285.024.452 0h.095c4.621-.81 9.075-2.357 13.506-4.143.643-.31 1.334-.714 2.024-1.047z" transform="translate(11) translate(17.388) translate(5.24 2.857)"/>
                </g>
                <g>
                    <path fill="#003671" d="M5.216 3.024L.096.167c3.31-.215 6.407.095 9.384 1.095 1.215.405 2.382.88 3.477 1.428l5.122 2.858C16.983 5 15.816 4.524 14.6 4.119c-2.954-1-6.074-1.333-9.385-1.095" transform="translate(11) translate(17.388) translate(0 6.19)"/>
                    <path fill="#00346E" d="M18.102 5.548l-5.12-2.858c.333.167.642.334.952.5l5.121 2.858c-.31-.19-.643-.358-.953-.5" transform="translate(11) translate(17.388) translate(0 6.19)"/>
                </g>
            </g>
            <path fill="url(#prefix__d)" d="M51.997 30.381c-2.025.714-4.097 1.333-6.146 2-.738.31-1.476.643-2.239.905-4.74 1.5-9.551 2.762-14.53 3.238-.19.024-.38-.024-.57-.048-3.073.405-6.146.334-9.195-.19C12.077 35.07 5.74 32.357 1.74 25.738c-.334-.524-.882-.928-1.334-1.38-.12.07-.238.142-.357.213.19.572.285 1.167.547 1.69 1.025 1.977 1.977 4 3.168 5.882 2.049 3.19 4.026 6.476 6.455 9.357 5.264 6.214 12.41 8.762 20.342 9.31 5.645.38 11.17-.453 16.578-2.12 5.788-1.761 18.65-5.714 18.65-5.714s5.264-12.666 7.622-18.024c-3.097.215-.048 0-3.12.405-6.312.81-12.315 2.953-18.293 5.024z" transform="translate(11)"/>
        </g>
        <g>
            <path fill="#1C3664" d="M14.895 2.019L9.28 15.081 5.639 15.081 0.048 2.019 4.045 2.019 7.59 10.521 11.207 2.019z" transform="translate(0 90)"/>
            <path fill="url(#prefix__e)" d="M15.966 3.301c-.405-.356-.595-.807-.595-1.354 0-.546.19-.973.595-1.353.404-.356.928-.546 1.57-.546s1.166.166 1.57.522c.405.333.595.784.595 1.306 0 .57-.19 1.022-.595 1.401-.404.357-.928.547-1.57.547-.642.024-1.166-.143-1.57-.523z" transform="translate(0 90)"/>
            <path fill="#1C3664" d="M32.383 1.235v13.846h-3.379v-.997c-.666.784-1.641 1.164-2.974 1.164-.928 0-1.76-.214-2.522-.642-.761-.427-1.356-1.045-1.808-1.829-.452-.783-.666-1.71-.666-2.754 0-1.046.214-1.972.666-2.755.452-.784 1.047-1.402 1.808-1.83.762-.427 1.594-.64 2.522-.64 1.214 0 2.142.356 2.808 1.045V1.235h3.545zM28.291 11.78c.404-.428.595-1.021.595-1.781 0-.737-.19-1.33-.595-1.758-.381-.427-.904-.641-1.523-.641-.619 0-1.142.214-1.523.641-.404.428-.595.998-.595 1.758s.19 1.353.595 1.781c.405.428.904.641 1.523.641.619 0 1.118-.213 1.523-.641zM44.28 5.914c.761.736 1.142 1.876 1.142 3.372v5.771h-3.545v-5.2c0-1.378-.547-2.067-1.666-2.067-.618 0-1.094.19-1.475.594-.357.403-.547.997-.547 1.781v4.893h-3.545V1.21h3.545v4.655c.38-.356.833-.641 1.356-.831.524-.19 1.095-.285 1.69-.285 1.26.048 2.284.428 3.045 1.164zM58.128 4.964l-4.354 10.521c-.5 1.235-1.142 2.114-1.88 2.613-.738.498-1.642.76-2.689.76-.547 0-1.07-.096-1.618-.262-.547-.166-.975-.38-1.308-.665l1.237-2.47c.19.19.428.333.714.428.285.095.57.166.856.166.333 0 .619-.071.833-.214.214-.142.405-.356.547-.641l-4.33-10.236h3.64l2.475 6.175 2.498-6.175h3.379zM66.86 5.961c.88.76 1.333 1.948 1.333 3.515v5.605h-3.308v-1.306c-.5.974-1.499 1.473-2.998 1.473-.785 0-1.475-.143-2.046-.404-.571-.285-1-.641-1.309-1.117-.285-.475-.428-.997-.428-1.59 0-.95.357-1.71 1.095-2.233.737-.523 1.88-.784 3.402-.784h2.023c-.072-1.069-.786-1.615-2.142-1.615-.476 0-.975.071-1.475.237-.5.167-.928.38-1.261.642l-1.19-2.399c.571-.38 1.238-.665 2.046-.879.81-.213 1.618-.308 2.427-.308 1.666 0 2.95.38 3.831 1.163zm-2.903 6.745c.31-.19.524-.498.667-.878v-.88H63.1c-1.023 0-1.547.333-1.547 1.022 0 .309.12.57.357.736.238.19.571.285.976.285.404 0 .761-.071 1.07-.285zM72.119 14.939c-1-.261-1.809-.618-2.427-1.045l1.213-2.732c.595.38 1.261.69 2.046.927.762.237 1.523.356 2.285.356 1.427 0 2.141-.356 2.141-1.069 0-.38-.214-.641-.619-.831-.404-.19-1.047-.38-1.95-.57-.976-.214-1.809-.428-2.475-.689-.666-.237-1.237-.641-1.69-1.163-.475-.523-.713-1.26-.713-2.162 0-.784.214-1.52.642-2.161.428-.641 1.095-1.14 1.951-1.52.857-.38 1.927-.57 3.188-.57.857 0 1.714.095 2.546.285.833.19 1.57.475 2.213.855l-1.142 2.731c-1.237-.665-2.45-.997-3.617-.997-.737 0-1.26.119-1.617.332-.334.214-.5.499-.5.855 0 .357.19.618.595.784.404.166 1.047.356 1.927.546 1 .214 1.832.428 2.475.689.642.261 1.213.618 1.689 1.164.476.522.714 1.235.714 2.161 0 .784-.214 1.496-.643 2.137-.428.642-1.094 1.14-1.95 1.52-.881.38-1.928.57-3.165.57-1.095 0-2.118-.142-3.117-.403zM90.678 5.961c.88.76 1.332 1.948 1.332 3.515v5.605h-3.307v-1.306c-.5.974-1.5 1.473-2.998 1.473-.785 0-1.475-.143-2.046-.404-.571-.285-1-.641-1.31-1.117-.285-.475-.427-.997-.427-1.59 0-.95.357-1.71 1.094-2.233.738-.523 1.88-.784 3.403-.784h2.022c-.071-1.069-.785-1.615-2.141-1.615-.476 0-.976.071-1.476.237-.5.167-.927.38-1.26.642l-1.19-2.399c.57-.38 1.237-.665 2.046-.879.809-.213 1.618-.308 2.427-.308 1.665 0 2.95.38 3.83 1.163zm-2.88 6.745c.31-.19.524-.498.667-.878v-.88h-1.523c-1.023 0-1.546.333-1.546 1.022 0 .309.118.57.356.736.238.19.571.285.976.285.404 0 .738-.071 1.07-.285zM105.168 1.235v13.846h-3.379v-.997c-.666.784-1.641 1.164-2.974 1.164-.928 0-1.76-.214-2.522-.642-.761-.427-1.356-1.045-1.808-1.829-.452-.783-.667-1.71-.667-2.754 0-1.046.215-1.972.667-2.755.452-.784 1.047-1.402 1.808-1.83.761-.427 1.594-.64 2.522-.64 1.214 0 2.142.356 2.808 1.045V1.235h3.545zm-4.092 10.545c.404-.428.594-1.021.594-1.781 0-.737-.19-1.33-.594-1.758-.381-.427-.905-.641-1.523-.641-.619 0-1.142.214-1.523.641-.405.428-.595.998-.595 1.758s.19 1.353.595 1.781c.404.428.904.641 1.523.641.618 0 1.118-.213 1.523-.641zM117.065 5.914c.761.736 1.142 1.876 1.142 3.372v5.771h-3.521v-5.2c0-1.378-.548-2.067-1.666-2.067-.619 0-1.095.19-1.475.594-.357.403-.547.997-.547 1.781v4.893h-3.546V1.21h3.546v4.655c.38-.356.832-.641 1.356-.831.523-.19 1.094-.285 1.69-.285 1.26.048 2.26.428 3.02 1.164zM128.605 5.961c.88.76 1.332 1.948 1.332 3.515v5.605h-3.307v-1.306c-.5.974-1.5 1.473-2.998 1.473-.785 0-1.475-.143-2.046-.404-.571-.285-1-.641-1.309-1.117-.285-.475-.428-.997-.428-1.59 0-.95.357-1.71 1.094-2.233.738-.523 1.88-.784 3.403-.784h2.022c-.071-1.069-.785-1.615-2.141-1.615-.476 0-.976.071-1.475.237-.5.167-.928.38-1.261.642l-1.19-2.399c.57-.38 1.237-.665 2.046-.879.81-.213 1.618-.308 2.427-.308 1.666 0 2.95.38 3.83 1.163zm-2.88 6.745c.31-.19.524-.498.667-.878v-.88h-1.523c-1.023 0-1.546.333-1.546 1.022 0 .309.119.57.357.736.237.19.57.285.975.285s.761-.071 1.07-.285zM141.81 5.914c.762.736 1.142 1.876 1.142 3.372v5.771h-3.545v-5.2c0-1.378-.547-2.067-1.665-2.067-.619 0-1.095.19-1.476.594-.357.403-.547.997-.547 1.781v4.893h-3.545V4.94h3.379v1.092c.404-.403.88-.712 1.427-.95.547-.213 1.142-.332 1.785-.332 1.26.048 2.284.428 3.045 1.164zM15.775 4.964H19.32V15.081000000000001H15.775z" transform="translate(0 90)"/>
        </g>
    </g>
</svg>
